  0
SECTION
  2
HEADER
  9
$ACADVER
  1
AC1015
  9
$ACADMAINTVER
 70
     6
  9
$DWGCODEPAGE
  3
ANSI_1252
  9
$INSBASE
 10
0.0
 20
0.0
 30
0.0
  9
$EXTMIN
 10
0.0
 20
0.0
 30
0.0
  9
$EXTMAX
 10
1117.6
 20
863.6
 30
0.0
  9
$LIMMIN
 10
0.0
 20
0.0
  9
$LIMMAX
 10
1117.6
 20
863.6
  9
$ORTHOMODE
 70
     0
  9
$REGENMODE
 70
     1
  9
$FILLMODE
 70
     1
  9
$QTEXTMODE
 70
     0
  9
$MIRRTEXT
 70
     1
  9
$LTSCALE
 40
1.0
  9
$ATTMODE
 70
     1
  9
$TEXTSIZE
 40
3.5
  9
$TRACEWID
 40
1.0
  9
$TEXTSTYLE
  7
Standard
  9
$CLAYER
  8
0
  9
$CELTYPE
  6
ByLayer
  9
$CECOLOR
 62
   256
  9
$CELTSCALE
 40
1.0
  9
$DISPSILH
 70
     0
  9
$DIMSCALE
 40
1.0
  9
$DIMASZ
 40
3.302
  9
$DIMEXO
 40
1.0
  9
$DIMDLI
 40
3.75
  9
$DIMRND
 40
0.0
  9
$DIMDLE
 40
0.0
  9
$DIMEXE
 40
1.0
  9
$DIMTP
 40
0.0
  9
$DIMTM
 40
0.0
  9
$DIMTXT
 40
3.5
  9
$DIMCEN
 40
2.5
  9
$DIMTSZ
 40
0.0
  9
$DIMTOL
 70
     0
  9
$DIMLIM
 70
     0
  9
$DIMTIH
 70
     1
  9
$DIMTOH
 70
     1
  9
$DIMSE1
 70
     0
  9
$DIMSE2
 70
     0
  9
$DIMTAD
 70
     1
  9
$DIMZIN
 70
     1
  9
$DIMBLK
  1

  9
$DIMASO
 70
     1
  9
$DIMSHO
 70
     1
  9
$DIMPOST
  1

  9
$DIMAPOST
  1

  9
$DIMALT
 70
     0
  9
$DIMALTD
 70
     3
  9
$DIMALTF
 40
0.0393700787
  9
$DIMLFAC
 40
1.0
  9
$DIMTOFL
 70
     1
  9
$DIMTVP
 40
0.0
  9
$DIMTIX
 70
     0
  9
$DIMSOXD
 70
     0
  9
$DIMSAH
 70
     0
  9
$DIMBLK1
  1

  9
$DIMBLK2
  1

  9
$DIMSTYLE
  2
ISO-25
  9
$DIMCLRD
 70
     0
  9
$DIMCLRE
 70
     0
  9
$DIMCLRT
 70
     0
  9
$DIMTFAC
 40
1.0
  9
$DIMGAP
 40
1.524
  9
$DIMJUST
 70
     0
  9
$DIMSD1
 70
     0
  9
$DIMSD2
 70
     0
  9
$DIMTOLJ
 70
     0
  9
$DIMTZIN
 70
     1
  9
$DIMALTZ
 70
     0
  9
$DIMALTTZ
 70
     0
  9
$DIMUPT
 70
     0
  9
$DIMDEC
 70
     0
  9
$DIMTDEC
 70
     4
  9
$DIMALTU
 70
     2
  9
$DIMALTTD
 70
     3
  9
$DIMTXSTY
  7
Standard
  9
$DIMAUNIT
 70
     0
  9
$DIMADEC
 70
     0
  9
$DIMALTRND
 40
0.0
  9
$DIMAZIN
 70
     0
  9
$DIMDSEP
 70
    44
  9
$DIMATFIT
 70
     3
  9
$DIMFRAC
 70
     0
  9
$DIMLDRBLK
  1

  9
$DIMLUNIT
 70
     2
  9
$DIMLWD
 70
    -2
  9
$DIMLWE
 70
    -2
  9
$DIMTMOVE
 70
     0
  9
$LUNITS
 70
     2
  9
$LUPREC
 70
     4
  9
$SKETCHINC
 40
1.0
  9
$FILLETRAD
 40
10.0
  9
$AUNITS
 70
     0
  9
$AUPREC
 70
     0
  9
$MENU
  1
.
  9
$ELEVATION
 40
0.0
  9
$PELEVATION
 40
0.0
  9
$THICKNESS
 40
0.0
  9
$LIMCHECK
 70
     0
  9
$CHAMFERA
 40
10.0
  9
$CHAMFERB
 40
10.0
  9
$CHAMFERC
 40
20.0
  9
$CHAMFERD
 40
0.0
  9
$SKPOLY
 70
     0
  9
$TDCREATE
 40
2456423.96584037
  9
$TDUCREATE
 40
2456423.46584037
  9
$TDUPDATE
 40
2456423.96584353
  9
$TDUUPDATE
 40
2456423.46584353
  9
$TDINDWG
 40
0.0000000116
  9
$TDUSRTIMER
 40
0.0000000116
  9
$USRTIMER
 70
     1
  9
$ANGBASE
 50
0.0
  9
$ANGDIR
 70
     0
  9
$PDMODE
 70
     0
  9
$PDSIZE
 40
-1.0
  9
$PLINEWID
 40
0.0
  9
$SPLFRAME
 70
     0
  9
$SPLINETYPE
 70
     6
  9
$SPLINESEGS
 70
     8
  9
$HANDSEED
  5
2A8
  9
$SURFTAB1
 70
     6
  9
$SURFTAB2
 70
     6
  9
$SURFTYPE
 70
     6
  9
$SURFU
 70
     6
  9
$SURFV
 70
     6
  9
$UCSBASE
  2

  9
$UCSNAME
  2

  9
$UCSORG
 10
0.0
 20
0.0
 30
0.0
  9
$UCSXDIR
 10
1.0
 20
0.0
 30
0.0
  9
$UCSYDIR
 10
0.0
 20
1.0
 30
0.0
  9
$UCSORTHOREF
  2

  9
$UCSORTHOVIEW
 70
     0
  9
$UCSORGTOP
 10
0.0
 20
0.0
 30
0.0
  9
$UCSORGBOTTOM
 10
0.0
 20
0.0
 30
0.0
  9
$UCSORGLEFT
 10
0.0
 20
0.0
 30
0.0
  9
$UCSORGRIGHT
 10
0.0
 20
0.0
 30
0.0
  9
$UCSORGFRONT
 10
0.0
 20
0.0
 30
0.0
  9
$UCSORGBACK
 10
0.0
 20
0.0
 30
0.0
  9
$PUCSBASE
  2

  9
$PUCSNAME
  2

  9
$PUCSORG
 10
0.0
 20
0.0
 30
0.0
  9
$PUCSXDIR
 10
1.0
 20
0.0
 30
0.0
  9
$PUCSYDIR
 10
0.0
 20
1.0
 30
0.0
  9
$PUCSORTHOREF
  2

  9
$PUCSORTHOVIEW
 70
     0
  9
$PUCSORGTOP
 10
0.0
 20
0.0
 30
0.0
  9
$PUCSORGBOTTOM
 10
0.0
 20
0.0
 30
0.0
  9
$PUCSORGLEFT
 10
0.0
 20
0.0
 30
0.0
  9
$PUCSORGRIGHT
 10
0.0
 20
0.0
 30
0.0
  9
$PUCSORGFRONT
 10
0.0
 20
0.0
 30
0.0
  9
$PUCSORGBACK
 10
0.0
 20
0.0
 30
0.0
  9
$USERI1
 70
     0
  9
$USERI2
 70
     0
  9
$USERI3
 70
     0
  9
$USERI4
 70
     0
  9
$USERI5
 70
     0
  9
$USERR1
 40
0.0
  9
$USERR2
 40
0.0
  9
$USERR3
 40
0.0
  9
$USERR4
 40
0.0
  9
$USERR5
 40
0.0
  9
$WORLDVIEW
 70
     1
  9
$SHADEDGE
 70
     3
  9
$SHADEDIF
 70
    70
  9
$TILEMODE
 70
     1
  9
$MAXACTVP
 70
    64
  9
$PINSBASE
 10
0.0
 20
0.0
 30
0.0
  9
$PLIMCHECK
 70
     0
  9
$PEXTMIN
 10
1.0000000000E+20
 20
1.0000000000E+20
 30
1.0000000000E+20
  9
$PEXTMAX
 10
-1.0000000000E+20
 20
-1.0000000000E+20
 30
-1.0000000000E+20
  9
$PLIMMIN
 10
0.0
 20
0.0
  9
$PLIMMAX
 10
420.0
 20
297.0
  9
$UNITMODE
 70
     0
  9
$VISRETAIN
 70
     1
  9
$PLINEGEN
 70
     0
  9
$PSLTSCALE
 70
     1
  9
$TREEDEPTH
 70
  3020
  9
$CMLSTYLE
  2
Standard
  9
$CMLJUST
 70
     0
  9
$CMLSCALE
 40
20.0
  9
$PROXYGRAPHICS
 70
     1
  9
$MEASUREMENT
 70
     1
  9
$CELWEIGHT
370
    -1
  9
$ENDCAPS
280
     0
  9
$JOINSTYLE
280
     0
  9
$LWDISPLAY
290
     1
  9
$INSUNITS
 70
     4
  9
$HYPERLINKBASE
  1

  9
$STYLESHEET
  1

  9
$XEDIT
290
     1
  9
$CEPSNTYPE
380
     0
  9
$PSTYLEMODE
290
     1
  9
$FINGERPRINTGUID
  2
{BEBE0D99-699D-4E4E-B838-43C336F6D6A1}
  9
$VERSIONGUID
  2
{FAEB1C32-E019-11D5-929B-00C0DF256EC4}
  9
$EXTNAMES
290
     1
  9
$PSVPSCALE
 40
0.0
  9
$OLESTARTUP
290
     0
  0
ENDSEC
  0
SECTION
  2
CLASSES
  0
CLASS
  1
ACDBDICTIONARYWDFLT
  2
AcDbDictionaryWithDefault
  3
ObjectDBX Classes
 90
        0
280
     0
281
     0
  0
CLASS
  1
VISUALSTYLE
  2
AcDbVisualStyle
  3
ObjectDBX Classes
 90
     4095
280
     0
281
     0
  0
CLASS
  1
MATERIAL
  2
AcDbMaterial
  3
ObjectDBX Classes
 90
     1153
280
     0
281
     0
  0
CLASS
  1
ACDBPLACEHOLDER
  2
AcDbPlaceHolder
  3
ObjectDBX Classes
 90
        0
280
     0
281
     0
  0
CLASS
  1
LAYOUT
  2
AcDbLayout
  3
ObjectDBX Classes
 90
        0
280
     0
281
     0
  0
ENDSEC
  0
SECTION
  2
TABLES
  0
TABLE
  2
VPORT
  5
8
330
0
100
AcDbSymbolTable
 70
     1
  0
VPORT
  5
29
330
8
100
AcDbSymbolTableRecord
100
AcDbViewportTableRecord
  2
*Active
 70
     0
 10
0.0
 20
0.0
 11
1.0
 21
1.0
 12
558.8
 22
431.8
 13
0.0
 23
0.0
 14
10.0
 24
10.0
 15
10.0
 25
10.0
 16
0.0
 26
0.0
 36
1.0
 17
0.0
 27
0.0
 37
0.0
 40
863.6
 41
1.2941176471
 42
50.0
 43
0.0
 44
0.0
 50
0.0
 51
0.0
 71
     0
 72
  2000
 73
     1
 74
     3
 75
     0
 76
     0
 77
     0
 78
     0
281
     0
 65
     1
110
0.0
120
0.0
130
0.0
111
1.0
121
0.0
131
0.0
112
0.0
122
1.0
132
0.0
 79
     0
146
0.0
  0
ENDTAB
  0
TABLE
  2
LTYPE
  5
5
330
0
100
AcDbSymbolTable
 70
     6
  0
LTYPE
  5
14
330
5
100
AcDbSymbolTableRecord
100
AcDbLinetypeTableRecord
  2
ByBlock
 70
     0
  3

 72
    65
 73
     0
 40
0.0
  0
LTYPE
  5
15
330
5
100
AcDbSymbolTableRecord
100
AcDbLinetypeTableRecord
  2
ByLayer
 70
     0
  3

 72
    65
 73
     0
 40
0.0
  0
LTYPE
  5
16
330
5
100
AcDbSymbolTableRecord
100
AcDbLinetypeTableRecord
  2
Continuous
 70
     0
  3
Solid line
 72
    65
 73
     0
 40
0.0
  0
LTYPE
  5
3F
330
5
100
AcDbSymbolTableRecord
100
AcDbLinetypeTableRecord
  2
HIDDEN
 70
     0
  3
Hidden __ __ __ __ __ __ __ __ __ __ __ __ __ __
 72
    65
 73
     2
 40
1.905
 49
1.27
 74
     0
 49
-0.635
 74
     0
  0
LTYPE
  5
40
330
5
100
AcDbSymbolTableRecord
100
AcDbLinetypeTableRecord
  2
PHANTOM
 70
     0
  3
Phantom ______  __  __  ______  __  __  ______
 72
    65
 73
     6
 40
12.7
 49
6.35
 74
     0
 49
-1.27
 74
     0
 49
1.27
 74
     0
 49
-1.27
 74
     0
 49
1.27
 74
     0
 49
-1.27
 74
     0
  0
LTYPE
  5
41
330
5
100
AcDbSymbolTableRecord
100
AcDbLinetypeTableRecord
  2
CENTER
 70
     0
  3
Center ____ _ ____ _ ____ _ ____ _ ____ _ ____
 72
    65
 73
     4
 40
10.16
 49
6.35
 74
     0
 49
-1.27
 74
     0
 49
1.27
 74
     0
 49
-1.27
 74
     0
  0
LTYPE
  5
42
330
5
100
AcDbSymbolTableRecord
100
AcDbLinetypeTableRecord
  2
CENTERX2
 70
     0
  3
Center (2x) ________  __  ________  __  _____
 72
    65
 73
     4
 40
20.32
 49
12.7
 74
     0
 49
-2.54
 74
     0
 49
2.54
 74
     0
 49
-2.54
 74
     0
  0
LTYPE
  5
43
330
5
100
AcDbSymbolTableRecord
100
AcDbLinetypeTableRecord
  2
DOT2
 70
     0
  3
Dot (.5x) ........................................
 72
    65
 73
     2
 40
0.635
 49
0.0
 74
     0
 49
-0.635
 74
     0
  0
ENDTAB
  0
TABLE
  2
LAYER
  5
2
330
0
100
AcDbSymbolTable
 70
     3
  0
LAYER
  5
10
330
2
100
AcDbSymbolTableRecord
100
AcDbLayerTableRecord
  2
0
 70
     0
 62
     7
  6
Continuous
370
    -3
390
F
  0
LAYER
  5
44
330
2
100
AcDbSymbolTableRecord
100
AcDbLayerTableRecord
  2
SLD-0
 70
     0
 62
   179
  6
Continuous
370
    -3
390
F
  0
LAYER
  5
45
330
2
100
AcDbSymbolTableRecord
100
AcDbLayerTableRecord
  2
PYDXF
 70
     0
 62
   179
  6
Continuous
370
    -3
390
F
  0
ENDTAB
  0
TABLE
  2
STYLE
  5
3
330
0
100
AcDbSymbolTable
 70
     3
  0
STYLE
  5
11
330
3
100
AcDbSymbolTableRecord
100
AcDbTextStyleTableRecord
  2
Standard
 70
     0
 40
0.0
 41
1.0
 50
0.0
 71
     0
 42
3.5
  3
txt
  4

  0
STYLE
  5
15D
330
3
100
AcDbSymbolTableRecord
100
AcDbTextStyleTableRecord
  2
SLDTEXTSTYLE0
 70
     0
 40
0.0
 41
0.75
 50
0.0
 71
     0
 42
0.2
  3
TXT
  4

  0
STYLE
  5
2A5
330
3
100
AcDbSymbolTableRecord
100
AcDbTextStyleTableRecord
  2
SLDTEXTSTYLE1
 70
     0
 40
0.0
 41
0.7
 50
0.0
 71
     0
 42
0.2
  3
TXT
  4

  0
ENDTAB
  0
TABLE
  2
VIEW
  5
6
330
0
100
AcDbSymbolTable
 70
     0
  0
ENDTAB
  0
TABLE
  2
UCS
  5
7
330
0
100
AcDbSymbolTable
 70
     0
  0
ENDTAB
  0
TABLE
  2
APPID
  5
9
330
0
100
AcDbSymbolTable
 70
     1
  0
APPID
  5
12
330
9
100
AcDbSymbolTableRecord
100
AcDbRegAppTableRecord
  2
ACAD
 70
     0
  0
ENDTAB
  0
TABLE
  2
DIMSTYLE
  5
A
330
0
100
AcDbSymbolTable
 70
     5
100
AcDbDimStyleTable
  0
DIMSTYLE
105
27
330
A
100
AcDbSymbolTableRecord
100
AcDbDimStyleTableRecord
  2
ISO-25
 70
     0
 41
2.5
 42
0.625
 43
3.75
 44
1.25
 73
     0
 74
     0
 77
     1
 78
     8
140
2.5
141
2.5
143
0.0393700787
147
0.625
171
     3
172
     1
178
     0
271
     2
272
     2
274
     3
278
    44
283
     0
284
     8
340
11
  0
DIMSTYLE
105
15E
102
{ACAD_REACTORS
330
15C
330
169
330
18A
330
1AF
330
1BB
330
1C7
330
211
330
228
330
233
330
23E
330
249
330
261
330
279
330
284
330
28F
330
29A
102
}
330
A
100
AcDbSymbolTableRecord
100
AcDbDimStyleTableRecord
  2
SLDDIMSTYLE0
 70
     0
 41
3.302
 44
0.0
 45
0.000000001
 73
     0
 74
     0
 77
     1
 78
     4
 79
     1
140
3.5
147
0.875
173
     1
178
     0
271
     0
276
     2
284
    12
340
15D
  0
DIMSTYLE
105
174
102
{ACAD_REACTORS
330
173
330
195
330
1A2
330
1D1
330
1DD
330
1EA
330
1F7
330
204
330
254
330
26C
102
}
330
A
100
AcDbSymbolTableRecord
100
AcDbDimStyleTableRecord
  2
SLDDIMSTYLE1
 70
     0
 41
3.302
 44
0.0
 45
0.000000001
 73
     0
 74
     0
 77
     1
 78
     4
 79
     1
140
3.5
147
0.875
172
     1
173
     1
178
     0
271
     0
276
     2
284
    12
289
     0
340
15D
  0
DIMSTYLE
105
181
102
{ACAD_REACTORS
330
180
102
}
330
A
100
AcDbSymbolTableRecord
100
AcDbDimStyleTableRecord
  2
SLDDIMSTYLE2
 70
     0
 41
3.302
 44
0.0
 45
0.000000001
 73
     0
 74
     0
 77
     1
 78
    12
 79
     3
140
3.5
147
0.875
172
     1
173
     1
178
     0
271
     0
276
     2
284
    12
289
     0
340
15D
341
182
343
182
344
182
  0
DIMSTYLE
105
21D
102
{ACAD_REACTORS
330
21C
102
}
330
A
100
AcDbSymbolTableRecord
100
AcDbDimStyleTableRecord
  2
SLDDIMSTYLE3
 70
     0
 41
3.302
 44
0.0
 45
0.000000001
 73
     0
 74
     0
 77
     1
 78
    12
 79
     3
140
3.5
147
0.875
173
     1
178
     0
271
     0
276
     2
284
    12
340
15D
  0
ENDTAB
  0
TABLE
  2
BLOCK_RECORD
  5
1
330
0
100
AcDbSymbolTable
 70
    30
  0
BLOCK_RECORD
  5
1F
330
1
100
AcDbSymbolTableRecord
100
AcDbBlockTableRecord
  2
*Model_Space
340
22
  0
BLOCK_RECORD
  5
1B
330
1
100
AcDbSymbolTableRecord
100
AcDbBlockTableRecord
  2
*Paper_Space
340
1E
  0
BLOCK_RECORD
  5
23
330
1
100
AcDbSymbolTableRecord
100
AcDbBlockTableRecord
  2
*Paper_Space0
340
26
  0
BLOCK_RECORD
  5
15F
330
1
100
AcDbSymbolTableRecord
100
AcDbBlockTableRecord
  2
_D
340
0
  0
BLOCK_RECORD
  5
16A
330
1
100
AcDbSymbolTableRecord
100
AcDbBlockTableRecord
  2
_D_1
340
0
  0
BLOCK_RECORD
  5
175
330
1
100
AcDbSymbolTableRecord
100
AcDbBlockTableRecord
  2
_D_2
340
0
  0
BLOCK_RECORD
  5
182
330
1
100
AcDbSymbolTableRecord
100
AcDbBlockTableRecord
  2
_NONE
340
0
  0
BLOCK_RECORD
  5
185
330
1
100
AcDbSymbolTableRecord
100
AcDbBlockTableRecord
  2
_D_3
340
0
  0
BLOCK_RECORD
  5
18B
330
1
100
AcDbSymbolTableRecord
100
AcDbBlockTableRecord
  2
_D_4
340
0
  0
BLOCK_RECORD
  5
196
330
1
100
AcDbSymbolTableRecord
100
AcDbBlockTableRecord
  2
_D_5
340
0
  0
BLOCK_RECORD
  5
1A3
330
1
100
AcDbSymbolTableRecord
100
AcDbBlockTableRecord
  2
_D_6
340
0
  0
BLOCK_RECORD
  5
1B0
330
1
100
AcDbSymbolTableRecord
100
AcDbBlockTableRecord
  2
_D_7
340
0
  0
BLOCK_RECORD
  5
1BC
330
1
100
AcDbSymbolTableRecord
100
AcDbBlockTableRecord
  2
_D_8
340
0
  0
BLOCK_RECORD
  5
1C8
330
1
100
AcDbSymbolTableRecord
100
AcDbBlockTableRecord
  2
_D_9
340
0
  0
BLOCK_RECORD
  5
1D2
330
1
100
AcDbSymbolTableRecord
100
AcDbBlockTableRecord
  2
_D_10
340
0
  0
BLOCK_RECORD
  5
1DE
330
1
100
AcDbSymbolTableRecord
100
AcDbBlockTableRecord
  2
_D_11
340
0
  0
BLOCK_RECORD
  5
1EB
330
1
100
AcDbSymbolTableRecord
100
AcDbBlockTableRecord
  2
_D_12
340
0
  0
BLOCK_RECORD
  5
1F8
330
1
100
AcDbSymbolTableRecord
100
AcDbBlockTableRecord
  2
_D_13
340
0
  0
BLOCK_RECORD
  5
205
330
1
100
AcDbSymbolTableRecord
100
AcDbBlockTableRecord
  2
_D_14
340
0
  0
BLOCK_RECORD
  5
212
330
1
100
AcDbSymbolTableRecord
100
AcDbBlockTableRecord
  2
_D_15
340
0
  0
BLOCK_RECORD
  5
21E
330
1
100
AcDbSymbolTableRecord
100
AcDbBlockTableRecord
  2
_D_16
340
0
  0
BLOCK_RECORD
  5
229
330
1
100
AcDbSymbolTableRecord
100
AcDbBlockTableRecord
  2
_D_17
340
0
  0
BLOCK_RECORD
  5
234
330
1
100
AcDbSymbolTableRecord
100
AcDbBlockTableRecord
  2
_D_18
340
0
  0
BLOCK_RECORD
  5
23F
330
1
100
AcDbSymbolTableRecord
100
AcDbBlockTableRecord
  2
_D_19
340
0
  0
BLOCK_RECORD
  5
24A
330
1
100
AcDbSymbolTableRecord
100
AcDbBlockTableRecord
  2
_D_20
340
0
  0
BLOCK_RECORD
  5
255
330
1
100
AcDbSymbolTableRecord
100
AcDbBlockTableRecord
  2
_D_21
340
0
  0
BLOCK_RECORD
  5
262
330
1
100
AcDbSymbolTableRecord
100
AcDbBlockTableRecord
  2
_D_22
340
0
  0
BLOCK_RECORD
  5
26D
330
1
100
AcDbSymbolTableRecord
100
AcDbBlockTableRecord
  2
_D_23
340
0
  0
BLOCK_RECORD
  5
27A
330
1
100
AcDbSymbolTableRecord
100
AcDbBlockTableRecord
  2
_D_24
340
0
  0
BLOCK_RECORD
  5
285
330
1
100
AcDbSymbolTableRecord
100
AcDbBlockTableRecord
  2
_D_25
340
0
  0
BLOCK_RECORD
  5
290
330
1
100
AcDbSymbolTableRecord
100
AcDbBlockTableRecord
  2
_D_26
340
0
  0
BLOCK_RECORD
  5
29B
330
1
100
AcDbSymbolTableRecord
100
AcDbBlockTableRecord
  2
_D_27
340
0
  0
ENDTAB
  0
ENDSEC
  0
SECTION
  2
BLOCKS
  0
BLOCK
  5
20
330
1F
100
AcDbEntity
  8
0
100
AcDbBlockBegin
  2
*Model_Space
 70
     0
 10
0.0
 20
0.0
 30
0.0
  3
*Model_Space
  1

  0
ENDBLK
  5
21
330
1F
100
AcDbEntity
  8
0
100
AcDbBlockEnd
  0
BLOCK
  5
1C
330
1B
100
AcDbEntity
 67
     1
  8
0
100
AcDbBlockBegin
  2
*Paper_Space
 70
     0
 10
0.0
 20
0.0
 30
0.0
  3
*Paper_Space
  1

  0
ENDBLK
  5
1D
330
1B
100
AcDbEntity
 67
     1
  8
0
100
AcDbBlockEnd
  0
BLOCK
  5
24
330
23
100
AcDbEntity
  8
0
100
AcDbBlockBegin
  2
*Paper_Space0
 70
     0
 10
0.0
 20
0.0
 30
0.0
  3
*Paper_Space0
  1

  0
ENDBLK
  5
25
330
23
100
AcDbEntity
  8
0
100
AcDbBlockEnd
  0
BLOCK
  5
160
330
15F
100
AcDbEntity
  8
0
100
AcDbBlockBegin
  2
_D
 70
     0
 10
0.0
 20
0.0
 30
0.0
  3
_D
  1

  0
SOLID
  5
162
330
15F
100
AcDbEntity
  8
SLD-0
100
AcDbTrace
 10
-39.0
 20
57.9576490841
 30
0.0
 11
-35.698
 21
57.4496490841
 31
0.0
 12
-35.698
 22
58.4656490841
 32
0.0
 13
-35.698
 23
58.4656490841
 33
0.0
  0
SOLID
  5
163
330
15F
100
AcDbEntity
  8
SLD-0
100
AcDbTrace
 10
39.0
 20
57.9576490841
 30
0.0
 11
35.698
 21
58.4656490841
 31
0.0
 12
35.698
 22
57.4496490841
 32
0.0
 13
35.698
 23
57.4496490841
 33
0.0
  0
LINE
  5
164
330
15F
100
AcDbEntity
  8
SLD-0
100
AcDbLine
 10
-39.0
 20
53.0246765285
 30
0.0
 11
-39.0
 21
58.9576490841
 31
0.0
  0
LINE
  5
165
330
15F
100
AcDbEntity
  8
SLD-0
100
AcDbLine
 10
39.0
 20
53.0246765285
 30
0.0
 11
39.0
 21
58.9576490841
 31
0.0
  0
LINE
  5
166
330
15F
100
AcDbEntity
  8
SLD-0
100
AcDbLine
 10
-39.0
 20
57.9576490841
 30
0.0
 11
39.0
 21
57.9576490841
 31
0.0
  0
MTEXT
  5
167
330
15F
100
AcDbEntity
  8
SLD-0
100
AcDbMText
 10
2.7103408283
 20
68.0256359897
 30
0.1
 40
3.5
 41
0.0
 71
     1
 72
     1
  1
78.0000
  7
SLDTEXTSTYLE0
 73
     1
 44
1.0
  0
MTEXT
  5
168
330
15F
100
AcDbEntity
  8
SLD-0
100
AcDbMText
 10
7.787771341
 20
62.4693859987
 30
0.1
 40
3.5
 41
0.0
 71
     1
 72
     1
  1
(D2)
  7
SLDTEXTSTYLE0
 73
     1
 44
1.0
  0
ENDBLK
  5
161
330
15F
100
AcDbEntity
  8
0
100
AcDbBlockEnd
  0
BLOCK
  5
16B
330
16A
100
AcDbEntity
  8
0
100
AcDbBlockBegin
  2
_D_1
 70
     0
 10
0.0
 20
0.0
 30
0.0
  3
_D_1
  1

  0
SOLID
  5
16D
330
16A
100
AcDbEntity
  8
SLD-0
100
AcDbTrace
 10
24.1843619748
 20
26.2810096727
 30
0.0
 11
20.8823619748
 21
26.7890096727
 31
0.0
 12
20.8823619748
 22
25.7730096727
 32
0.0
 13
20.8823619748
 23
25.7730096727
 33
0.0
  0
SOLID
  5
16E
330
16A
100
AcDbEntity
  8
SLD-0
100
AcDbTrace
 10
-26.3156380252
 20
26.2810096727
 30
0.0
 11
-23.0136380252
 21
25.7730096727
 31
0.0
 12
-23.0136380252
 22
26.7890096727
 32
0.0
 13
-23.0136380252
 23
26.7890096727
 33
0.0
  0
LINE
  5
16F
330
16A
100
AcDbEntity
  8
SLD-0
100
AcDbLine
 10
24.1843619748
 20
23.2432169799
 30
0.0
 11
24.1843619748
 21
27.2810096727
 31
0.0
  0
LINE
  5
170
330
16A
100
AcDbEntity
  8
SLD-0
100
AcDbLine
 10
24.1843619748
 20
26.2810096727
 30
0.0
 11
-26.3156380252
 21
26.2810096727
 31
0.0
  0
MTEXT
  5
171
330
16A
100
AcDbEntity
  8
SLD-0
100
AcDbMText
 10
-18.3203060345
 20
36.3489965784
 30
0.1
 40
3.5
 41
0.0
 71
     1
 72
     1
  1
50.5000
  7
SLDTEXTSTYLE0
 73
     1
 44
1.0
  0
MTEXT
  5
172
330
16A
100
AcDbEntity
  8
SLD-0
100
AcDbMText
 10
-13.2428755217
 20
30.7927465873
 30
0.1
 40
3.5
 41
0.0
 71
     1
 72
     1
  1
(D3)
  7
SLDTEXTSTYLE0
 73
     1
 44
1.0
  0
ENDBLK
  5
16C
330
16A
100
AcDbEntity
  8
0
100
AcDbBlockEnd
  0
BLOCK
  5
176
330
175
100
AcDbEntity
  8
0
100
AcDbBlockBegin
  2
_D_2
 70
     0
 10
0.0
 20
0.0
 30
0.0
  3
_D_2
  1

  0
SOLID
  5
178
330
175
100
AcDbEntity
  8
SLD-0
100
AcDbTrace
 10
-19.3156380252
 20
-23.1733474538
 30
0.0
 11
-16.0136380252
 21
-23.6813474538
 31
0.0
 12
-16.0136380252
 22
-22.6653474538
 32
0.0
 13
-16.0136380252
 23
-22.6653474538
 33
0.0
  0
SOLID
  5
179
330
175
100
AcDbEntity
  8
SLD-0
100
AcDbTrace
 10
-26.3156380252
 20
-23.1733474538
 30
0.0
 11
-29.6176380252
 21
-22.6653474538
 31
0.0
 12
-29.6176380252
 22
-23.6813474538
 32
0.0
 13
-29.6176380252
 23
-23.6813474538
 33
0.0
  0
LINE
  5
17A
330
175
100
AcDbEntity
  8
SLD-0
100
AcDbLine
 10
-19.3156380252
 20
-27.6067830201
 30
0.0
 11
-19.3156380252
 21
-22.1733474538
 31
0.0
  0
LINE
  5
17B
330
175
100
AcDbEntity
  8
SLD-0
100
AcDbLine
 10
-19.3156380252
 20
-23.1733474538
 30
0.0
 11
-7.237614568
 21
-23.1733474538
 31
0.0
  0
LINE
  5
17C
330
175
100
AcDbEntity
  8
SLD-0
100
AcDbLine
 10
-19.3156380252
 20
-23.1733474538
 30
0.0
 11
-26.3156380252
 21
-23.1733474538
 31
0.0
  0
LINE
  5
17D
330
175
100
AcDbEntity
  8
SLD-0
100
AcDbLine
 10
-26.3156380252
 20
-23.1733474538
 30
0.0
 11
-32.6656380252
 21
-23.1733474538
 31
0.0
  0
MTEXT
  5
17E
330
175
100
AcDbEntity
  8
SLD-0
100
AcDbMText
 10
-24.3049761911
 20
-13.1053605481
 30
0.1
 40
3.5
 41
0.0
 71
     1
 72
     1
  1
7.0000
  7
SLDTEXTSTYLE0
 73
     1
 44
1.0
  0
MTEXT
  5
17F
330
175
100
AcDbEntity
  8
SLD-0
100
AcDbMText
 10
-20.5206013915
 20
-18.6616105392
 30
0.1
 40
3.5
 41
0.0
 71
     1
 72
     1
  1
(D5)
  7
SLDTEXTSTYLE0
 73
     1
 44
1.0
  0
ENDBLK
  5
177
330
175
100
AcDbEntity
  8
0
100
AcDbBlockEnd
  0
BLOCK
  5
183
330
182
100
AcDbEntity
  8
0
100
AcDbBlockBegin
  2
_NONE
 70
     0
 10
0.0
 20
0.0
 30
0.0
  3
_NONE
  1

  0
ENDBLK
  5
184
330
182
100
AcDbEntity
  8
0
100
AcDbBlockEnd
  0
BLOCK
  5
186
330
185
100
AcDbEntity
  8
0
100
AcDbBlockBegin
  2
_D_3
 70
     0
 10
0.0
 20
0.0
 30
0.0
  3
_D_3
  1

  0
MTEXT
  5
188
330
185
100
AcDbEntity
  8
0
  6
Continuous
 62
     7
370
     0
100
AcDbMText
 10
-29.7493060119
 20
-64.9320130944
 30
0.1
 40
3.5
 41
0.0
 71
     1
 72
     1
  1
2
  7
SLDTEXTSTYLE0
 73
     1
 44
1.0
  0
MTEXT
  5
189
330
185
100
AcDbEntity
  8
0
  6
Continuous
 62
     7
370
     0
100
AcDbMText
 10
-29.7493060119
 20
-70.4882630854
 30
0.1
 40
3.5
 41
0.0
 71
     1
 72
     1
  1
(D8)
  7
SLDTEXTSTYLE0
 73
     1
 44
1.0
  0
ENDBLK
  5
187
330
185
100
AcDbEntity
  8
0
100
AcDbBlockEnd
  0
BLOCK
  5
18C
330
18B
100
AcDbEntity
  8
0
100
AcDbBlockBegin
  2
_D_4
 70
     0
 10
0.0
 20
0.0
 30
0.0
  3
_D_4
  1

  0
SOLID
  5
18E
330
18B
100
AcDbEntity
  8
SLD-0
100
AcDbTrace
 10
-73.4315209418
 20
-58.0
 30
0.0
 11
-73.9395209418
 21
-61.302
 31
0.0
 12
-72.9235209418
 22
-61.302
 32
0.0
 13
-72.9235209418
 23
-61.302
 33
0.0
  0
SOLID
  5
18F
330
18B
100
AcDbEntity
  8
SLD-0
100
AcDbTrace
 10
-73.4315209418
 20
-95.0
 30
0.0
 11
-72.9235209418
 21
-91.698
 31
0.0
 12
-73.9395209418
 22
-91.698
 32
0.0
 13
-73.9395209418
 23
-91.698
 33
0.0
  0
LINE
  5
190
330
18B
100
AcDbEntity
  8
SLD-0
100
AcDbLine
 10
-26.0
 20
-58.0
 30
0.0
 11
-74.4315209418
 21
-58.0
 31
0.0
  0
LINE
  5
191
330
18B
100
AcDbEntity
  8
SLD-0
100
AcDbLine
 10
-26.0
 20
-95.0
 30
0.0
 11
-74.4315209418
 21
-95.0
 31
0.0
  0
LINE
  5
192
330
18B
100
AcDbEntity
  8
SLD-0
100
AcDbLine
 10
-73.4315209418
 20
-58.0
 30
0.0
 11
-73.4315209418
 21
-95.0
 31
0.0
  0
MTEXT
  5
193
330
18B
100
AcDbEntity
  8
SLD-0
100
AcDbMText
 10
-83.4995078475
 20
-84.8267365247
 30
0.1
 40
3.5
 41
0.0
 71
     1
 72
     1
  1
37.0000
  7
SLDTEXTSTYLE0
 11
-3.368954760864739E-14
 21
1.0
 31
0.0
 73
     1
 44
1.0
  0
MTEXT
  5
194
330
18B
100
AcDbEntity
  8
SLD-0
100
AcDbMText
 10
-77.9432578564
 20
-79.7493060119
 30
0.1
 40
3.5
 41
0.0
 71
     1
 72
     1
  1
(D4)
  7
SLDTEXTSTYLE0
 11
-3.368954760864739E-14
 21
1.0
 31
0.0
 73
     1
 44
1.0
  0
ENDBLK
  5
18D
330
18B
100
AcDbEntity
  8
0
100
AcDbBlockEnd
  0
BLOCK
  5
197
330
196
100
AcDbEntity
  8
0
100
AcDbBlockBegin
  2
_D_5
 70
     0
 10
0.0
 20
0.0
 30
0.0
  3
_D_5
  1

  0
SOLID
  5
199
330
196
100
AcDbEntity
  8
SLD-0
100
AcDbTrace
 10
95.5
 20
-154.8123901204
 30
0.0
 11
98.802
 21
-155.3203901204
 31
0.0
 12
98.802
 22
-154.3043901204
 32
0.0
 13
98.802
 23
-154.3043901204
 33
0.0
  0
SOLID
  5
19A
330
196
100
AcDbEntity
  8
SLD-0
100
AcDbTrace
 10
85.5
 20
-154.8123901204
 30
0.0
 11
82.198
 21
-154.3043901204
 31
0.0
 12
82.198
 22
-155.3203901204
 32
0.0
 13
82.198
 23
-155.3203901204
 33
0.0
  0
LINE
  5
19B
330
196
100
AcDbEntity
  8
SLD-0
100
AcDbLine
 10
95.5
 20
-159.3718423907
 30
0.0
 11
95.5
 21
-153.8123901204
 31
0.0
  0
LINE
  5
19C
330
196
100
AcDbEntity
  8
SLD-0
100
AcDbLine
 10
85.5
 20
-159.3718423907
 30
0.0
 11
85.5
 21
-153.8123901204
 31
0.0
  0
LINE
  5
19D
330
196
100
AcDbEntity
  8
SLD-0
100
AcDbLine
 10
95.5
 20
-154.8123901204
 30
0.0
 11
101.85
 21
-154.8123901204
 31
0.0
  0
LINE
  5
19E
330
196
100
AcDbEntity
  8
SLD-0
100
AcDbLine
 10
95.5
 20
-154.8123901204
 30
0.0
 11
85.5
 21
-154.8123901204
 31
0.0
  0
LINE
  5
19F
330
196
100
AcDbEntity
  8
SLD-0
100
AcDbLine
 10
85.5
 20
-154.8123901204
 30
0.0
 11
79.15
 21
-154.8123901204
 31
0.0
  0
MTEXT
  5
1A0
330
196
100
AcDbEntity
  8
SLD-0
100
AcDbMText
 10
80.1279467995
 20
-144.7444032147
 30
0.1
 40
3.5
 41
0.0
 71
     1
 72
     1
  1
10.0000
  7
SLDTEXTSTYLE0
 73
     1
 44
1.0
  0
MTEXT
  5
1A1
330
196
100
AcDbEntity
  8
SLD-0
100
AcDbMText
 10
83.9123215991
 20
-150.3006532058
 30
0.1
 40
3.5
 41
0.0
 71
     1
 72
     1
  1
(D17)
  7
SLDTEXTSTYLE0
 73
     1
 44
1.0
  0
ENDBLK
  5
198
330
196
100
AcDbEntity
  8
0
100
AcDbBlockEnd
  0
BLOCK
  5
1A4
330
1A3
100
AcDbEntity
  8
0
100
AcDbBlockBegin
  2
_D_6
 70
     0
 10
0.0
 20
0.0
 30
0.0
  3
_D_6
  1

  0
SOLID
  5
1A6
330
1A3
100
AcDbEntity
  8
SLD-0
100
AcDbTrace
 10
-52.6094710519
 20
-71.5
 30
0.0
 11
-52.1014710519
 21
-68.198
 31
0.0
 12
-53.1174710519
 22
-68.198
 32
0.0
 13
-53.1174710519
 23
-68.198
 33
0.0
  0
SOLID
  5
1A7
330
1A3
100
AcDbEntity
  8
SLD-0
100
AcDbTrace
 10
-52.6094710519
 20
-81.5
 30
0.0
 11
-53.1174710519
 21
-84.802
 31
0.0
 12
-52.1014710519
 22
-84.802
 32
0.0
 13
-52.1014710519
 23
-84.802
 33
0.0
  0
LINE
  5
1A8
330
1A3
100
AcDbEntity
  8
SLD-0
100
AcDbLine
 10
-35.0
 20
-71.5
 30
0.0
 11
-53.6094710519
 21
-71.5
 31
0.0
  0
LINE
  5
1A9
330
1A3
100
AcDbEntity
  8
SLD-0
100
AcDbLine
 10
-35.0
 20
-81.5
 30
0.0
 11
-53.6094710519
 21
-81.5
 31
0.0
  0
LINE
  5
1AA
330
1A3
100
AcDbEntity
  8
SLD-0
100
AcDbLine
 10
-52.6094710519
 20
-71.5
 30
0.0
 11
-52.6094710519
 21
-65.15
 31
0.0
  0
LINE
  5
1AB
330
1A3
100
AcDbEntity
  8
SLD-0
100
AcDbLine
 10
-52.6094710519
 20
-71.5
 30
0.0
 11
-52.6094710519
 21
-81.5
 31
0.0
  0
LINE
  5
1AC
330
1A3
100
AcDbEntity
  8
SLD-0
100
AcDbLine
 10
-52.6094710519
 20
-81.5
 30
0.0
 11
-52.6094710519
 21
-87.85
 31
0.0
  0
MTEXT
  5
1AD
330
1A3
100
AcDbEntity
  8
SLD-0
100
AcDbMText
 10
-62.6774579575
 20
-82.163628708
 30
0.1
 40
3.5
 41
0.0
 71
     1
 72
     1
  1
10.0000
  7
SLDTEXTSTYLE0
 11
-8.820551857043885E-15
 21
1.0
 31
0.0
 73
     1
 44
1.0
  0
MTEXT
  5
1AE
330
1A3
100
AcDbEntity
  8
SLD-0
100
AcDbMText
 10
-57.1212079665
 20
-78.3792539084
 30
0.1
 40
3.5
 41
0.0
 71
     1
 72
     1
  1
(D18)
  7
SLDTEXTSTYLE0
 11
-8.820551857043885E-15
 21
1.0
 31
0.0
 73
     1
 44
1.0
  0
ENDBLK
  5
1A5
330
1A3
100
AcDbEntity
  8
0
100
AcDbBlockEnd
  0
BLOCK
  5
1B1
330
1B0
100
AcDbEntity
  8
0
100
AcDbBlockBegin
  2
_D_7
 70
     0
 10
0.0
 20
0.0
 30
0.0
  3
_D_7
  1

  0
SOLID
  5
1B3
330
1B0
100
AcDbEntity
  8
SLD-0
100
AcDbTrace
 10
-52.6094710519
 20
-44.6
 30
0.0
 11
-53.1174710519
 21
-47.902
 31
0.0
 12
-52.1014710519
 22
-47.902
 32
0.0
 13
-52.1014710519
 23
-47.902
 33
0.0
  0
SOLID
  5
1B4
330
1B0
100
AcDbEntity
  8
SLD-0
100
AcDbTrace
 10
-52.6094710519
 20
-52.6
 30
0.0
 11
-52.1014710519
 21
-49.298
 31
0.0
 12
-53.1174710519
 22
-49.298
 32
0.0
 13
-53.1174710519
 23
-49.298
 33
0.0
  0
LINE
  5
1B5
330
1B0
100
AcDbEntity
  8
SLD-0
100
AcDbLine
 10
-35.0
 20
-44.6
 30
0.0
 11
-53.6094710519
 21
-44.6
 31
0.0
  0
LINE
  5
1B6
330
1B0
100
AcDbEntity
  8
SLD-0
100
AcDbLine
 10
-35.0
 20
-52.6
 30
0.0
 11
-53.6094710519
 21
-52.6
 31
0.0
  0
LINE
  5
1B7
330
1B0
100
AcDbEntity
  8
SLD-0
100
AcDbLine
 10
-52.6094710519
 20
-44.6
 30
0.0
 11
-52.6094710519
 21
-33.6806027532
 31
0.0
  0
LINE
  5
1B8
330
1B0
100
AcDbEntity
  8
SLD-0
100
AcDbLine
 10
-52.6094710519
 20
-44.6
 30
0.0
 11
-52.6094710519
 21
-52.6
 31
0.0
  0
MTEXT
  5
1B9
330
1B0
100
AcDbEntity
  8
SLD-0
100
AcDbMText
 10
-62.6774579575
 20
-50.7479643762
 30
0.1
 40
3.5
 41
0.0
 71
     1
 72
     1
  1
8.0000
  7
SLDTEXTSTYLE0
 11
-7.932373437343760E-15
 21
1.0
 31
0.0
 73
     1
 44
1.0
  0
MTEXT
  5
1BA
330
1B0
100
AcDbEntity
  8
SLD-0
100
AcDbMText
 10
-57.1212079665
 20
-48.2566452898
 30
0.1
 40
3.5
 41
0.0
 71
     1
 72
     1
  1
(D24)
  7
SLDTEXTSTYLE0
 11
-7.932373437343760E-15
 21
1.0
 31
0.0
 73
     1
 44
1.0
  0
ENDBLK
  5
1B2
330
1B0
100
AcDbEntity
  8
0
100
AcDbBlockEnd
  0
BLOCK
  5
1BD
330
1BC
100
AcDbEntity
  8
0
100
AcDbBlockBegin
  2
_D_8
 70
     0
 10
0.0
 20
0.0
 30
0.0
  3
_D_8
  1

  0
SOLID
  5
1BF
330
1BC
100
AcDbEntity
  8
SLD-0
100
AcDbTrace
 10
-56.4780872438
 20
-103.4
 30
0.0
 11
-55.9700872438
 21
-100.098
 31
0.0
 12
-56.9860872438
 22
-100.098
 32
0.0
 13
-56.9860872438
 23
-100.098
 33
0.0
  0
SOLID
  5
1C0
330
1BC
100
AcDbEntity
  8
SLD-0
100
AcDbTrace
 10
-56.4780872438
 20
-95.4
 30
0.0
 11
-56.9860872438
 21
-98.702
 31
0.0
 12
-55.9700872438
 22
-98.702
 32
0.0
 13
-55.9700872438
 23
-98.702
 33
0.0
  0
LINE
  5
1C1
330
1BC
100
AcDbEntity
  8
SLD-0
100
AcDbLine
 10
-35.0
 20
-103.4
 30
0.0
 11
-57.4780872438
 21
-103.4
 31
0.0
  0
LINE
  5
1C2
330
1BC
100
AcDbEntity
  8
SLD-0
100
AcDbLine
 10
-35.0
 20
-95.4
 30
0.0
 11
-57.4780872438
 21
-95.4
 31
0.0
  0
LINE
  5
1C3
330
1BC
100
AcDbEntity
  8
SLD-0
100
AcDbLine
 10
-56.4780872438
 20
-103.4
 30
0.0
 11
-56.4780872438
 21
-118.236996998
 31
0.0
  0
LINE
  5
1C4
330
1BC
100
AcDbEntity
  8
SLD-0
100
AcDbLine
 10
-56.4780872438
 20
-103.4
 30
0.0
 11
-56.4780872438
 21
-95.4
 31
0.0
  0
MTEXT
  5
1C5
330
1BC
100
AcDbEntity
  8
SLD-0
100
AcDbMText
 10
-66.5460741494
 20
-118.236996998
 30
0.1
 40
3.5
 41
0.0
 71
     1
 72
     1
  1
8.0000
  7
SLDTEXTSTYLE0
 11
-8.269460797427576E-16
 21
1.0
 31
0.0
 73
     1
 44
1.0
  0
MTEXT
  5
1C6
330
1BC
100
AcDbEntity
  8
SLD-0
100
AcDbMText
 10
-60.9898241584
 20
-115.7456779116
 30
0.1
 40
3.5
 41
0.0
 71
     1
 72
     1
  1
(D25)
  7
SLDTEXTSTYLE0
 11
-8.269460797427576E-16
 21
1.0
 31
0.0
 73
     1
 44
1.0
  0
ENDBLK
  5
1BE
330
1BC
100
AcDbEntity
  8
0
100
AcDbBlockEnd
  0
BLOCK
  5
1C9
330
1C8
100
AcDbEntity
  8
0
100
AcDbBlockBegin
  2
_D_9
 70
     0
 10
0.0
 20
0.0
 30
0.0
  3
_D_9
  1

  0
SOLID
  5
1CB
330
1C8
100
AcDbEntity
  8
SLD-0
100
AcDbTrace
 10
8.6843619748
 20
-25.073942827
 30
0.0
 11
5.3823619748
 21
-24.565942827
 31
0.0
 12
5.3823619748
 22
-25.581942827
 32
0.0
 13
5.3823619748
 23
-25.581942827
 33
0.0
  0
SOLID
  5
1CC
330
1C8
100
AcDbEntity
  8
SLD-0
100
AcDbTrace
 10
-26.3156380252
 20
-25.073942827
 30
0.0
 11
-23.0136380252
 21
-25.581942827
 31
0.0
 12
-23.0136380252
 22
-24.565942827
 32
0.0
 13
-23.0136380252
 23
-24.565942827
 33
0.0
  0
LINE
  5
1CD
330
1C8
100
AcDbEntity
  8
SLD-0
100
AcDbLine
 10
8.6843619748
 20
-27.6067830201
 30
0.0
 11
8.6843619748
 21
-24.073942827
 31
0.0
  0
LINE
  5
1CE
330
1C8
100
AcDbEntity
  8
SLD-0
100
AcDbLine
 10
8.6843619748
 20
-25.073942827
 30
0.0
 11
-26.3156380252
 21
-25.073942827
 31
0.0
  0
MTEXT
  5
1CF
330
1C8
100
AcDbEntity
  8
SLD-0
100
AcDbMText
 10
-5.3044981675
 20
-15.0059559214
 30
0.1
 40
3.5
 41
0.0
 71
     1
 72
     1
  1
35.0000
  7
SLDTEXTSTYLE0
 73
     1
 44
1.0
  0
MTEXT
  5
1D0
330
1C8
100
AcDbEntity
  8
SLD-0
100
AcDbMText
 10
-1.5201233679
 20
-20.5622059124
 30
0.1
 40
3.5
 41
0.0
 71
     1
 72
     1
  1
(D13)
  7
SLDTEXTSTYLE0
 73
     1
 44
1.0
  0
ENDBLK
  5
1CA
330
1C8
100
AcDbEntity
  8
0
100
AcDbBlockEnd
  0
BLOCK
  5
1D3
330
1D2
100
AcDbEntity
  8
0
100
AcDbBlockBegin
  2
_D_10
 70
     0
 10
0.0
 20
0.0
 30
0.0
  3
_D_10
  1

  0
SOLID
  5
1D5
330
1D2
100
AcDbEntity
  8
SLD-0
100
AcDbTrace
 10
-23.8156380252
 20
7.7537915104
 30
0.0
 11
-20.5136380252
 21
7.2457915104
 31
0.0
 12
-20.5136380252
 22
8.2617915104
 32
0.0
 13
-20.5136380252
 23
8.2617915104
 33
0.0
  0
SOLID
  5
1D6
330
1D2
100
AcDbEntity
  8
SLD-0
100
AcDbTrace
 10
-26.3156380252
 20
7.7537915104
 30
0.0
 11
-29.6176380252
 21
8.2617915104
 31
0.0
 12
-29.6176380252
 22
7.2457915104
 32
0.0
 13
-29.6176380252
 23
7.2457915104
 33
0.0
  0
LINE
  5
1D7
330
1D2
100
AcDbEntity
  8
SLD-0
100
AcDbLine
 10
-23.8156380252
 20
21.24321698
 30
0.0
 11
-23.8156380252
 21
6.7537915104
 31
0.0
  0
LINE
  5
1D8
330
1D2
100
AcDbEntity
  8
SLD-0
100
AcDbLine
 10
-23.8156380252
 20
7.7537915104
 30
0.0
 11
-4.3551041977
 21
7.7537915104
 31
0.0
  0
LINE
  5
1D9
330
1D2
100
AcDbEntity
  8
SLD-0
100
AcDbLine
 10
-23.8156380252
 20
7.7537915104
 30
0.0
 11
-26.3156380252
 21
7.7537915104
 31
0.0
  0
LINE
  5
1DA
330
1D2
100
AcDbEntity
  8
SLD-0
100
AcDbLine
 10
-26.3156380252
 20
7.7537915104
 30
0.0
 11
-32.6656380252
 21
7.7537915104
 31
0.0
  0
MTEXT
  5
1DB
330
1D2
100
AcDbEntity
  8
SLD-0
100
AcDbMText
 10
-21.4224658208
 20
17.821778416
 30
0.1
 40
3.5
 41
0.0
 71
     1
 72
     1
  1
2.5000
  7
SLDTEXTSTYLE0
 73
     1
 44
1.0
  0
MTEXT
  5
1DC
330
1D2
100
AcDbEntity
  8
SLD-0
100
AcDbMText
 10
-18.9311467344
 20
12.265528425
 30
0.1
 40
3.5
 41
0.0
 71
     1
 72
     1
  1
(D19)
  7
SLDTEXTSTYLE0
 73
     1
 44
1.0
  0
ENDBLK
  5
1D4
330
1D2
100
AcDbEntity
  8
0
100
AcDbBlockEnd
  0
BLOCK
  5
1DF
330
1DE
100
AcDbEntity
  8
0
100
AcDbBlockBegin
  2
_D_11
 70
     0
 10
0.0
 20
0.0
 30
0.0
  3
_D_11
  1

  0
SOLID
  5
1E1
330
1DE
100
AcDbEntity
  8
SLD-0
100
AcDbTrace
 10
-15.0
 20
-176.717694803
 30
0.0
 11
-18.302
 21
-176.209694803
 31
0.0
 12
-18.302
 22
-177.225694803
 32
0.0
 13
-18.302
 23
-177.225694803
 33
0.0
  0
SOLID
  5
1E2
330
1DE
100
AcDbEntity
  8
SLD-0
100
AcDbTrace
 10
15.0
 20
-176.717694803
 30
0.0
 11
18.302
 21
-177.225694803
 31
0.0
 12
18.302
 22
-176.209694803
 32
0.0
 13
18.302
 23
-176.209694803
 33
0.0
  0
LINE
  5
1E3
330
1DE
100
AcDbEntity
  8
SLD-0
100
AcDbLine
 10
-15.0
 20
-177.9258485645
 30
0.0
 11
-15.0
 21
-175.717694803
 31
0.0
  0
LINE
  5
1E4
330
1DE
100
AcDbEntity
  8
SLD-0
100
AcDbLine
 10
15.0
 20
-177.9258485645
 30
0.0
 11
15.0
 21
-175.717694803
 31
0.0
  0
LINE
  5
1E5
330
1DE
100
AcDbEntity
  8
SLD-0
100
AcDbLine
 10
-15.0
 20
-176.717694803
 30
0.0
 11
-21.35
 21
-176.717694803
 31
0.0
  0
LINE
  5
1E6
330
1DE
100
AcDbEntity
  8
SLD-0
100
AcDbLine
 10
-15.0
 20
-176.717694803
 30
0.0
 11
15.0
 21
-176.717694803
 31
0.0
  0
LINE
  5
1E7
330
1DE
100
AcDbEntity
  8
SLD-0
100
AcDbLine
 10
15.0
 20
-176.717694803
 30
0.0
 11
21.35
 21
-176.717694803
 31
0.0
  0
MTEXT
  5
1E8
330
1DE
100
AcDbEntity
  8
SLD-0
100
AcDbMText
 10
-8.9255963107
 20
-166.6497078974
 30
0.1
 40
3.5
 41
0.0
 71
     1
 72
     1
  1
30.0000
  7
SLDTEXTSTYLE0
 73
     1
 44
1.0
  0
MTEXT
  5
1E9
330
1DE
100
AcDbEntity
  8
SLD-0
100
AcDbMText
 10
-3.8481657979
 20
-172.2059578884
 30
0.1
 40
3.5
 41
0.0
 71
     1
 72
     1
  1
(D6)
  7
SLDTEXTSTYLE0
 73
     1
 44
1.0
  0
ENDBLK
  5
1E0
330
1DE
100
AcDbEntity
  8
0
100
AcDbBlockEnd
  0
BLOCK
  5
1EC
330
1EB
100
AcDbEntity
  8
0
100
AcDbBlockBegin
  2
_D_12
 70
     0
 10
0.0
 20
0.0
 30
0.0
  3
_D_12
  1

  0
SOLID
  5
1EE
330
1EB
100
AcDbEntity
  8
SLD-0
100
AcDbTrace
 10
-48.3456773255
 20
-168.3718489656
 30
0.0
 11
-47.8376773255
 21
-165.0698489656
 31
0.0
 12
-48.8536773255
 22
-165.0698489656
 32
0.0
 13
-48.8536773255
 23
-165.0698489656
 33
0.0
  0
SOLID
  5
1EF
330
1EB
100
AcDbEntity
  8
SLD-0
100
AcDbTrace
 10
-48.3456773255
 20
-178.3718489656
 30
0.0
 11
-48.8536773255
 21
-181.6738489656
 31
0.0
 12
-47.8376773255
 22
-181.6738489656
 32
0.0
 13
-47.8376773255
 23
-181.6738489656
 33
0.0
  0
LINE
  5
1F0
330
1EB
100
AcDbEntity
  8
SLD-0
100
AcDbLine
 10
-35.0
 20
-168.3718489656
 30
0.0
 11
-49.3456773255
 21
-168.3718489656
 31
0.0
  0
LINE
  5
1F1
330
1EB
100
AcDbEntity
  8
SLD-0
100
AcDbLine
 10
-35.0
 20
-178.3718489656
 30
0.0
 11
-49.3456773255
 21
-178.3718489656
 31
0.0
  0
LINE
  5
1F2
330
1EB
100
AcDbEntity
  8
SLD-0
100
AcDbLine
 10
-48.3456773255
 20
-168.3718489656
 30
0.0
 11
-48.3456773255
 21
-162.0218489656
 31
0.0
  0
LINE
  5
1F3
330
1EB
100
AcDbEntity
  8
SLD-0
100
AcDbLine
 10
-48.3456773255
 20
-168.3718489656
 30
0.0
 11
-48.3456773255
 21
-178.3718489656
 31
0.0
  0
LINE
  5
1F4
330
1EB
100
AcDbEntity
  8
SLD-0
100
AcDbLine
 10
-48.3456773255
 20
-178.3718489656
 30
0.0
 11
-48.3456773255
 21
-184.7218489656
 31
0.0
  0
MTEXT
  5
1F5
330
1EB
100
AcDbEntity
  8
SLD-0
100
AcDbMText
 10
-58.4136642311
 20
-182.7765062139
 30
0.1
 40
3.5
 41
0.0
 71
     1
 72
     1
  1
10.0000
  7
SLDTEXTSTYLE0
 11
-8.820551857043885E-15
 21
1.0
 31
0.0
 73
     1
 44
1.0
  0
MTEXT
  5
1F6
330
1EB
100
AcDbEntity
  8
SLD-0
100
AcDbMText
 10
-52.8574142401
 20
-178.9921314143
 30
0.1
 40
3.5
 41
0.0
 71
     1
 72
     1
  1
(D20)
  7
SLDTEXTSTYLE0
 11
-8.820551857043885E-15
 21
1.0
 31
0.0
 73
     1
 44
1.0
  0
ENDBLK
  5
1ED
330
1EB
100
AcDbEntity
  8
0
100
AcDbBlockEnd
  0
BLOCK
  5
1F9
330
1F8
100
AcDbEntity
  8
0
100
AcDbBlockBegin
  2
_D_13
 70
     0
 10
0.0
 20
0.0
 30
0.0
  3
_D_13
  1

  0
SOLID
  5
1FB
330
1F8
100
AcDbEntity
  8
SLD-0
100
AcDbTrace
 10
49.3420856331
 20
-163.3869006254
 30
0.0
 11
49.8500856331
 21
-160.0849006254
 31
0.0
 12
48.8340856331
 22
-160.0849006254
 32
0.0
 13
48.8340856331
 23
-160.0849006254
 33
0.0
  0
SOLID
  5
1FC
330
1F8
100
AcDbEntity
  8
SLD-0
100
AcDbTrace
 10
49.3420856331
 20
-183.3869006254
 30
0.0
 11
48.8340856331
 21
-186.6889006254
 31
0.0
 12
49.8500856331
 22
-186.6889006254
 32
0.0
 13
49.8500856331
 23
-186.6889006254
 33
0.0
  0
LINE
  5
1FD
330
1F8
100
AcDbEntity
  8
SLD-0
100
AcDbLine
 10
37.0191501841
 20
-163.3869006254
 30
0.0
 11
50.3420856331
 21
-163.3869006254
 31
0.0
  0
LINE
  5
1FE
330
1F8
100
AcDbEntity
  8
SLD-0
100
AcDbLine
 10
37.0191501841
 20
-183.3869006254
 30
0.0
 11
50.3420856331
 21
-183.3869006254
 31
0.0
  0
LINE
  5
1FF
330
1F8
100
AcDbEntity
  8
SLD-0
100
AcDbLine
 10
49.3420856331
 20
-163.3869006254
 30
0.0
 11
49.3420856331
 21
-157.0369006254
 31
0.0
  0
LINE
  5
200
330
1F8
100
AcDbEntity
  8
SLD-0
100
AcDbLine
 10
49.3420856331
 20
-163.3869006254
 30
0.0
 11
49.3420856331
 21
-183.3869006254
 31
0.0
  0
LINE
  5
201
330
1F8
100
AcDbEntity
  8
SLD-0
100
AcDbLine
 10
49.3420856331
 20
-183.3869006254
 30
0.0
 11
49.3420856331
 21
-189.7369006254
 31
0.0
  0
MTEXT
  5
202
330
1F8
100
AcDbEntity
  8
SLD-0
100
AcDbMText
 10
39.2740987275
 20
-182.7765062139
 30
0.1
 40
3.5
 41
0.0
 71
     1
 72
     1
  1
20.0000
  7
SLDTEXTSTYLE0
 11
-7.044195017643634E-15
 21
1.0
 31
0.0
 73
     1
 44
1.0
  0
MTEXT
  5
203
330
1F8
100
AcDbEntity
  8
SLD-0
100
AcDbMText
 10
44.8303487185
 20
-177.6990757011
 30
0.1
 40
3.5
 41
0.0
 71
     1
 72
     1
  1
(D7)
  7
SLDTEXTSTYLE0
 11
-7.044195017643634E-15
 21
1.0
 31
0.0
 73
     1
 44
1.0
  0
ENDBLK
  5
1FA
330
1F8
100
AcDbEntity
  8
0
100
AcDbBlockEnd
  0
BLOCK
  5
206
330
205
100
AcDbEntity
  8
0
100
AcDbBlockBegin
  2
_D_14
 70
     0
 10
0.0
 20
0.0
 30
0.0
  3
_D_14
  1

  0
SOLID
  5
208
330
205
100
AcDbEntity
  8
SLD-0
100
AcDbTrace
 10
-25.0191501841
 20
-154.8123901204
 30
0.0
 11
-21.7171501841
 21
-155.3203901204
 31
0.0
 12
-21.7171501841
 22
-154.3043901204
 32
0.0
 13
-21.7171501841
 23
-154.3043901204
 33
0.0
  0
SOLID
  5
209
330
205
100
AcDbEntity
  8
SLD-0
100
AcDbTrace
 10
-36.0191501841
 20
-154.8123901204
 30
0.0
 11
-39.3211501841
 21
-154.3043901204
 31
0.0
 12
-39.3211501841
 22
-155.3203901204
 32
0.0
 13
-39.3211501841
 23
-155.3203901204
 33
0.0
  0
LINE
  5
20A
330
205
100
AcDbEntity
  8
SLD-0
100
AcDbLine
 10
-25.0191501841
 20
-162.3869006254
 30
0.0
 11
-25.0191501841
 21
-153.8123901204
 31
0.0
  0
LINE
  5
20B
330
205
100
AcDbEntity
  8
SLD-0
100
AcDbLine
 10
-36.0191501841
 20
-162.3869006254
 30
0.0
 11
-36.0191501841
 21
-153.8123901204
 31
0.0
  0
LINE
  5
20C
330
205
100
AcDbEntity
  8
SLD-0
100
AcDbLine
 10
-25.0191501841
 20
-154.8123901204
 30
0.0
 11
-18.6691501841
 21
-154.8123901204
 31
0.0
  0
LINE
  5
20D
330
205
100
AcDbEntity
  8
SLD-0
100
AcDbLine
 10
-25.0191501841
 20
-154.8123901204
 30
0.0
 11
-36.0191501841
 21
-154.8123901204
 31
0.0
  0
LINE
  5
20E
330
205
100
AcDbEntity
  8
SLD-0
100
AcDbLine
 10
-36.0191501841
 20
-154.8123901204
 30
0.0
 11
-42.3691501841
 21
-154.8123901204
 31
0.0
  0
MTEXT
  5
20F
330
205
100
AcDbEntity
  8
SLD-0
100
AcDbMText
 10
-43.6301984038
 20
-144.7444032147
 30
0.1
 40
3.5
 41
0.0
 71
     1
 72
     1
  1
11.0000
  7
SLDTEXTSTYLE0
 73
     1
 44
1.0
  0
MTEXT
  5
210
330
205
100
AcDbEntity
  8
SLD-0
100
AcDbMText
 10
-39.8458236042
 20
-150.3006532058
 30
0.1
 40
3.5
 41
0.0
 71
     1
 72
     1
  1
(D10)
  7
SLDTEXTSTYLE0
 73
     1
 44
1.0
  0
ENDBLK
  5
207
330
205
100
AcDbEntity
  8
0
100
AcDbBlockEnd
  0
BLOCK
  5
213
330
212
100
AcDbEntity
  8
0
100
AcDbBlockBegin
  2
_D_15
 70
     0
 10
0.0
 20
0.0
 30
0.0
  3
_D_15
  1

  0
SOLID
  5
215
330
212
100
AcDbEntity
  8
SLD-0
100
AcDbTrace
 10
-31.0
 20
-195.8085153798
 30
0.0
 11
-27.698
 21
-196.3165153798
 31
0.0
 12
-27.698
 22
-195.3005153798
 32
0.0
 13
-27.698
 23
-195.3005153798
 33
0.0
  0
SOLID
  5
216
330
212
100
AcDbEntity
  8
SLD-0
100
AcDbTrace
 10
31.0
 20
-195.8085153798
 30
0.0
 11
27.698
 21
-195.3005153798
 31
0.0
 12
27.698
 22
-196.3165153798
 32
0.0
 13
27.698
 23
-196.3165153798
 33
0.0
  0
LINE
  5
217
330
212
100
AcDbEntity
  8
SLD-0
100
AcDbLine
 10
-31.0
 20
-179.3718489656
 30
0.0
 11
-31.0
 21
-196.8085153798
 31
0.0
  0
LINE
  5
218
330
212
100
AcDbEntity
  8
SLD-0
100
AcDbLine
 10
31.0
 20
-179.3718489656
 30
0.0
 11
31.0
 21
-196.8085153798
 31
0.0
  0
LINE
  5
219
330
212
100
AcDbEntity
  8
SLD-0
100
AcDbLine
 10
-31.0
 20
-195.8085153798
 30
0.0
 11
31.0
 21
-195.8085153798
 31
0.0
  0
MTEXT
  5
21A
330
212
100
AcDbEntity
  8
SLD-0
100
AcDbMText
 10
-8.9255963107
 20
-185.7405284742
 30
0.1
 40
3.5
 41
0.0
 71
     1
 72
     1
  1
62.0000
  7
SLDTEXTSTYLE0
 73
     1
 44
1.0
  0
MTEXT
  5
21B
330
212
100
AcDbEntity
  8
SLD-0
100
AcDbMText
 10
-3.8481657979
 20
-191.2967784652
 30
0.1
 40
3.5
 41
0.0
 71
     1
 72
     1
  1
(D9)
  7
SLDTEXTSTYLE0
 73
     1
 44
1.0
  0
ENDBLK
  5
214
330
212
100
AcDbEntity
  8
0
100
AcDbBlockEnd
  0
BLOCK
  5
21F
330
21E
100
AcDbEntity
  8
0
100
AcDbBlockBegin
  2
_D_16
 70
     0
 10
0.0
 20
0.0
 30
0.0
  3
_D_16
  1

  0
SOLID
  5
221
330
21E
100
AcDbEntity
  8
SLD-0
100
AcDbTrace
 10
-36.0191501841
 20
-209.1218507821
 30
0.0
 11
-32.7171501841
 21
-209.6298507821
 31
0.0
 12
-32.7171501841
 22
-208.6138507821
 32
0.0
 13
-32.7171501841
 23
-208.6138507821
 33
0.0
  0
SOLID
  5
222
330
21E
100
AcDbEntity
  8
SLD-0
100
AcDbTrace
 10
36.0191501841
 20
-209.1218507821
 30
0.0
 11
32.7171501841
 21
-208.6138507821
 31
0.0
 12
32.7171501841
 22
-209.6298507821
 32
0.0
 13
32.7171501841
 23
-209.6298507821
 33
0.0
  0
LINE
  5
223
330
21E
100
AcDbEntity
  8
SLD-0
100
AcDbLine
 10
-36.0191501841
 20
-184.3869006254
 30
0.0
 11
-36.0191501841
 21
-210.1218507821
 31
0.0
  0
LINE
  5
224
330
21E
100
AcDbEntity
  8
SLD-0
100
AcDbLine
 10
36.0191501841
 20
-184.3869006254
 30
0.0
 11
36.0191501841
 21
-210.1218507821
 31
0.0
  0
LINE
  5
225
330
21E
100
AcDbEntity
  8
SLD-0
100
AcDbLine
 10
-36.0191501841
 20
-209.1218507821
 30
0.0
 11
36.0191501841
 21
-209.1218507821
 31
0.0
  0
MTEXT
  5
226
330
21E
100
AcDbEntity
  8
SLD-0
100
AcDbMText
 10
-8.9255963107
 20
-199.0538638764
 30
0.1
 40
3.5
 41
0.0
 71
     1
 72
     1
  1
72.0383
  7
SLDTEXTSTYLE0
 73
     1
 44
1.0
  0
MTEXT
  5
227
330
21E
100
AcDbEntity
  8
SLD-0
100
AcDbMText
 10
-5.1412215111
 20
-204.6101138675
 30
0.1
 40
3.5
 41
0.0
 71
     1
 72
     1
  1
(D14)
  7
SLDTEXTSTYLE0
 73
     1
 44
1.0
  0
ENDBLK
  5
220
330
21E
100
AcDbEntity
  8
0
100
AcDbBlockEnd
  0
BLOCK
  5
22A
330
229
100
AcDbEntity
  8
0
100
AcDbBlockBegin
  2
_D_17
 70
     0
 10
0.0
 20
0.0
 30
0.0
  3
_D_17
  1

  0
SOLID
  5
22C
330
229
100
AcDbEntity
  8
SLD-0
100
AcDbTrace
 10
-25.0191501841
 20
-154.8123901204
 30
0.0
 11
-21.7171501841
 21
-155.3203901204
 31
0.0
 12
-21.7171501841
 22
-154.3043901204
 32
0.0
 13
-21.7171501841
 23
-154.3043901204
 33
0.0
  0
SOLID
  5
22D
330
229
100
AcDbEntity
  8
SLD-0
100
AcDbTrace
 10
24.9808498159
 20
-154.8123901204
 30
0.0
 11
21.6788498159
 21
-154.3043901204
 31
0.0
 12
21.6788498159
 22
-155.3203901204
 32
0.0
 13
21.6788498159
 23
-155.3203901204
 33
0.0
  0
LINE
  5
22E
330
229
100
AcDbEntity
  8
SLD-0
100
AcDbLine
 10
-25.0191501841
 20
-159.3869006254
 30
0.0
 11
-25.0191501841
 21
-153.8123901204
 31
0.0
  0
LINE
  5
22F
330
229
100
AcDbEntity
  8
SLD-0
100
AcDbLine
 10
24.9808498159
 20
-159.3869006254
 30
0.0
 11
24.9808498159
 21
-153.8123901204
 31
0.0
  0
LINE
  5
230
330
229
100
AcDbEntity
  8
SLD-0
100
AcDbLine
 10
-25.0191501841
 20
-154.8123901204
 30
0.0
 11
24.9808498159
 21
-154.8123901204
 31
0.0
  0
MTEXT
  5
231
330
229
100
AcDbEntity
  8
SLD-0
100
AcDbMText
 10
-8.9255963107
 20
-144.7444032147
 30
0.1
 40
3.5
 41
0.0
 71
     1
 72
     1
  1
50.0000
  7
SLDTEXTSTYLE0
 73
     1
 44
1.0
  0
MTEXT
  5
232
330
229
100
AcDbEntity
  8
SLD-0
100
AcDbMText
 10
-5.1412215111
 20
-150.3006532058
 30
0.1
 40
3.5
 41
0.0
 71
     1
 72
     1
  1
(D11)
  7
SLDTEXTSTYLE0
 73
     1
 44
1.0
  0
ENDBLK
  5
22B
330
229
100
AcDbEntity
  8
0
100
AcDbBlockEnd
  0
BLOCK
  5
235
330
234
100
AcDbEntity
  8
0
100
AcDbBlockBegin
  2
_D_18
 70
     0
 10
0.0
 20
0.0
 30
0.0
  3
_D_18
  1

  0
SOLID
  5
237
330
234
100
AcDbEntity
  8
SLD-0
100
AcDbTrace
 10
72.0
 20
-195.8085153798
 30
0.0
 11
75.302
 21
-196.3165153798
 31
0.0
 12
75.302
 22
-195.3005153798
 32
0.0
 13
75.302
 23
-195.3005153798
 33
0.0
  0
SOLID
  5
238
330
234
100
AcDbEntity
  8
SLD-0
100
AcDbTrace
 10
109.0
 20
-195.8085153798
 30
0.0
 11
105.698
 21
-195.3005153798
 31
0.0
 12
105.698
 22
-196.3165153798
 32
0.0
 13
105.698
 23
-196.3165153798
 33
0.0
  0
LINE
  5
239
330
234
100
AcDbEntity
  8
SLD-0
100
AcDbLine
 10
72.0
 20
-184.3718423907
 30
0.0
 11
72.0
 21
-196.8085153798
 31
0.0
  0
LINE
  5
23A
330
234
100
AcDbEntity
  8
SLD-0
100
AcDbLine
 10
109.0
 20
-184.3718423907
 30
0.0
 11
109.0
 21
-196.8085153798
 31
0.0
  0
LINE
  5
23B
330
234
100
AcDbEntity
  8
SLD-0
100
AcDbLine
 10
72.0
 20
-195.8085153798
 30
0.0
 11
109.0
 21
-195.8085153798
 31
0.0
  0
MTEXT
  5
23C
330
234
100
AcDbEntity
  8
SLD-0
100
AcDbMText
 10
80.1279467995
 20
-185.7405284742
 30
0.1
 40
3.5
 41
0.0
 71
     1
 72
     1
  1
37.0000
  7
SLDTEXTSTYLE0
 73
     1
 44
1.0
  0
MTEXT
  5
23D
330
234
100
AcDbEntity
  8
SLD-0
100
AcDbMText
 10
83.9123215991
 20
-191.2967784652
 30
0.1
 40
3.5
 41
0.0
 71
     1
 72
     1
  1
(D12)
  7
SLDTEXTSTYLE0
 73
     1
 44
1.0
  0
ENDBLK
  5
236
330
234
100
AcDbEntity
  8
0
100
AcDbBlockEnd
  0
BLOCK
  5
240
330
23F
100
AcDbEntity
  8
0
100
AcDbBlockBegin
  2
_D_19
 70
     0
 10
0.0
 20
0.0
 30
0.0
  3
_D_19
  1

  0
SOLID
  5
242
330
23F
100
AcDbEntity
  8
SLD-0
100
AcDbTrace
 10
56.1977959729
 20
-58.0
 30
0.0
 11
55.6897959729
 21
-61.302
 31
0.0
 12
56.7057959729
 22
-61.302
 32
0.0
 13
56.7057959729
 23
-61.302
 33
0.0
  0
SOLID
  5
243
330
23F
100
AcDbEntity
  8
SLD-0
100
AcDbTrace
 10
56.1977959729
 20
-95.0
 30
0.0
 11
56.7057959729
 21
-91.698
 31
0.0
 12
55.6897959729
 22
-91.698
 32
0.0
 13
55.6897959729
 23
-91.698
 33
0.0
  0
LINE
  5
244
330
23F
100
AcDbEntity
  8
SLD-0
100
AcDbLine
 10
26.0
 20
-58.0
 30
0.0
 11
57.1977959729
 21
-58.0
 31
0.0
  0
LINE
  5
245
330
23F
100
AcDbEntity
  8
SLD-0
100
AcDbLine
 10
26.0
 20
-95.0
 30
0.0
 11
57.1977959729
 21
-95.0
 31
0.0
  0
LINE
  5
246
330
23F
100
AcDbEntity
  8
SLD-0
100
AcDbLine
 10
56.1977959729
 20
-58.0
 30
0.0
 11
56.1977959729
 21
-95.0
 31
0.0
  0
MTEXT
  5
247
330
23F
100
AcDbEntity
  8
SLD-0
100
AcDbMText
 10
46.1298090673
 20
-84.8267365247
 30
0.1
 40
3.5
 41
0.0
 71
     1
 72
     1
  1
37.0000
  7
SLDTEXTSTYLE0
 11
-3.368954760864739E-14
 21
1.0
 31
0.0
 73
     1
 44
1.0
  0
MTEXT
  5
248
330
23F
100
AcDbEntity
  8
SLD-0
100
AcDbMText
 10
51.6860590584
 20
-81.0423617251
 30
0.1
 40
3.5
 41
0.0
 71
     1
 72
     1
  1
(D15)
  7
SLDTEXTSTYLE0
 11
-3.368954760864739E-14
 21
1.0
 31
0.0
 73
     1
 44
1.0
  0
ENDBLK
  5
241
330
23F
100
AcDbEntity
  8
0
100
AcDbBlockEnd
  0
BLOCK
  5
24B
330
24A
100
AcDbEntity
  8
0
100
AcDbBlockBegin
  2
_D_20
 70
     0
 10
0.0
 20
0.0
 30
0.0
  3
_D_20
  1

  0
SOLID
  5
24D
330
24A
100
AcDbEntity
  8
SLD-0
100
AcDbTrace
 10
-25.0
 20
-119.8192140902
 30
0.0
 11
-21.698
 21
-120.3272140902
 31
0.0
 12
-21.698
 22
-119.3112140902
 32
0.0
 13
-21.698
 23
-119.3112140902
 33
0.0
  0
SOLID
  5
24E
330
24A
100
AcDbEntity
  8
SLD-0
100
AcDbTrace
 10
25.0
 20
-119.8192140902
 30
0.0
 11
21.698
 21
-119.3112140902
 31
0.0
 12
21.698
 22
-120.3272140902
 32
0.0
 13
21.698
 23
-120.3272140902
 33
0.0
  0
LINE
  5
24F
330
24A
100
AcDbEntity
  8
SLD-0
100
AcDbLine
 10
-25.0
 20
-99.0
 30
0.0
 11
-25.0
 21
-120.8192140902
 31
0.0
  0
LINE
  5
250
330
24A
100
AcDbEntity
  8
SLD-0
100
AcDbLine
 10
25.0
 20
-99.0
 30
0.0
 11
25.0
 21
-120.8192140902
 31
0.0
  0
LINE
  5
251
330
24A
100
AcDbEntity
  8
SLD-0
100
AcDbLine
 10
-25.0
 20
-119.8192140902
 30
0.0
 11
25.0
 21
-119.8192140902
 31
0.0
  0
MTEXT
  5
252
330
24A
100
AcDbEntity
  8
SLD-0
100
AcDbMText
 10
-8.9255963107
 20
-109.7512271845
 30
0.1
 40
3.5
 41
0.0
 71
     1
 72
     1
  1
50.0000
  7
SLDTEXTSTYLE0
 73
     1
 44
1.0
  0
MTEXT
  5
253
330
24A
100
AcDbEntity
  8
SLD-0
100
AcDbMText
 10
-5.1412215111
 20
-115.3074771756
 30
0.1
 40
3.5
 41
0.0
 71
     1
 72
     1
  1
(D16)
  7
SLDTEXTSTYLE0
 73
     1
 44
1.0
  0
ENDBLK
  5
24C
330
24A
100
AcDbEntity
  8
0
100
AcDbBlockEnd
  0
BLOCK
  5
256
330
255
100
AcDbEntity
  8
0
100
AcDbBlockBegin
  2
_D_21
 70
     0
 10
0.0
 20
0.0
 30
0.0
  3
_D_21
  1

  0
SOLID
  5
258
330
255
100
AcDbEntity
  8
SLD-0
100
AcDbTrace
 10
82.4622313429
 20
-57.1000473384
 30
0.0
 11
82.9702313429
 21
-53.7980473384
 31
0.0
 12
81.9542313429
 22
-53.7980473384
 32
0.0
 13
81.9542313429
 23
-53.7980473384
 33
0.0
  0
SOLID
  5
259
330
255
100
AcDbEntity
  8
SLD-0
100
AcDbTrace
 10
82.4622313429
 20
-65.1000473384
 30
0.0
 11
81.9542313429
 21
-68.4020473384
 31
0.0
 12
82.9702313429
 22
-68.4020473384
 32
0.0
 13
82.9702313429
 23
-68.4020473384
 33
0.0
  0
LINE
  5
25A
330
255
100
AcDbEntity
  8
SLD-0
100
AcDbLine
 10
87.5588535439
 20
-57.1000473384
 30
0.0
 11
81.4622313429
 21
-57.1000473384
 31
0.0
  0
LINE
  5
25B
330
255
100
AcDbEntity
  8
SLD-0
100
AcDbLine
 10
87.5588535439
 20
-65.1000473384
 30
0.0
 11
81.4622313429
 21
-65.1000473384
 31
0.0
  0
LINE
  5
25C
330
255
100
AcDbEntity
  8
SLD-0
100
AcDbLine
 10
82.4622313429
 20
-57.1000473384
 30
0.0
 11
82.4622313429
 21
-50.7500473384
 31
0.0
  0
LINE
  5
25D
330
255
100
AcDbEntity
  8
SLD-0
100
AcDbLine
 10
82.4622313429
 20
-57.1000473384
 30
0.0
 11
82.4622313429
 21
-65.1000473384
 31
0.0
  0
LINE
  5
25E
330
255
100
AcDbEntity
  8
SLD-0
100
AcDbLine
 10
82.4622313429
 20
-65.1000473384
 30
0.0
 11
82.4622313429
 21
-71.4500473384
 31
0.0
  0
MTEXT
  5
25F
330
255
100
AcDbEntity
  8
SLD-0
100
AcDbMText
 10
72.3942444373
 20
-68.8481471203
 30
0.1
 40
3.5
 41
0.0
 71
     1
 72
     1
  1
8.0000
  7
SLDTEXTSTYLE0
 11
-7.044195017643634E-15
 21
1.0
 31
0.0
 73
     1
 44
1.0
  0
MTEXT
  5
260
330
255
100
AcDbEntity
  8
SLD-0
100
AcDbMText
 10
77.9504944283
 20
-66.3568280339
 30
0.1
 40
3.5
 41
0.0
 71
     1
 72
     1
  1
(D21)
  7
SLDTEXTSTYLE0
 11
-7.044195017643634E-15
 21
1.0
 31
0.0
 73
     1
 44
1.0
  0
ENDBLK
  5
257
330
255
100
AcDbEntity
  8
0
100
AcDbBlockEnd
  0
BLOCK
  5
263
330
262
100
AcDbEntity
  8
0
100
AcDbBlockBegin
  2
_D_22
 70
     0
 10
0.0
 20
0.0
 30
0.0
  3
_D_22
  1

  0
SOLID
  5
265
330
262
100
AcDbEntity
  8
SLD-0
100
AcDbTrace
 10
90.0621312234
 20
-65.1000473384
 30
0.0
 11
89.5541312234
 21
-68.4020473384
 31
0.0
 12
90.5701312234
 22
-68.4020473384
 32
0.0
 13
90.5701312234
 23
-68.4020473384
 33
0.0
  0
SOLID
  5
266
330
262
100
AcDbEntity
  8
SLD-0
100
AcDbTrace
 10
90.0621312234
 20
-107.9000473384
 30
0.0
 11
90.5701312234
 21
-104.5980473384
 31
0.0
 12
89.5541312234
 22
-104.5980473384
 32
0.0
 13
89.5541312234
 23
-104.5980473384
 33
0.0
  0
LINE
  5
267
330
262
100
AcDbEntity
  8
SLD-0
100
AcDbLine
 10
90.5588535439
 20
-65.1000473384
 30
0.0
 11
89.0621312234
 21
-65.1000473384
 31
0.0
  0
LINE
  5
268
330
262
100
AcDbEntity
  8
SLD-0
100
AcDbLine
 10
90.5588535439
 20
-107.9000473384
 30
0.0
 11
89.0621312234
 21
-107.9000473384
 31
0.0
  0
LINE
  5
269
330
262
100
AcDbEntity
  8
SLD-0
100
AcDbLine
 10
90.0621312234
 20
-65.1000473384
 30
0.0
 11
90.0621312234
 21
-107.9000473384
 31
0.0
  0
MTEXT
  5
26A
330
262
100
AcDbEntity
  8
SLD-0
100
AcDbMText
 10
79.9941443177
 20
-92.163628708
 30
0.1
 40
3.5
 41
0.0
 71
     1
 72
     1
  1
42.8000
  7
SLDTEXTSTYLE0
 11
-7.044195017643634E-15
 21
1.0
 31
0.0
 73
     1
 44
1.0
  0
MTEXT
  5
26B
330
262
100
AcDbEntity
  8
SLD-0
100
AcDbMText
 10
85.5503943088
 20
-88.3792539084
 30
0.1
 40
3.5
 41
0.0
 71
     1
 72
     1
  1
(D22)
  7
SLDTEXTSTYLE0
 11
-7.044195017643634E-15
 21
1.0
 31
0.0
 73
     1
 44
1.0
  0
ENDBLK
  5
264
330
262
100
AcDbEntity
  8
0
100
AcDbBlockEnd
  0
BLOCK
  5
26E
330
26D
100
AcDbEntity
  8
0
100
AcDbBlockBegin
  2
_D_23
 70
     0
 10
0.0
 20
0.0
 30
0.0
  3
_D_23
  1

  0
SOLID
  5
270
330
26D
100
AcDbEntity
  8
SLD-0
100
AcDbTrace
 10
79.9546833242
 20
-107.9000473384
 30
0.0
 11
80.4626833242
 21
-104.5980473384
 31
0.0
 12
79.4466833242
 22
-104.5980473384
 32
0.0
 13
79.4466833242
 23
-104.5980473384
 33
0.0
  0
SOLID
  5
271
330
26D
100
AcDbEntity
  8
SLD-0
100
AcDbTrace
 10
79.9546833242
 20
-115.9000473384
 30
0.0
 11
79.4466833242
 21
-119.2020473384
 31
0.0
 12
80.4626833242
 22
-119.2020473384
 32
0.0
 13
80.4626833242
 23
-119.2020473384
 33
0.0
  0
LINE
  5
272
330
26D
100
AcDbEntity
  8
SLD-0
100
AcDbLine
 10
87.5588535439
 20
-107.9000473384
 30
0.0
 11
78.9546833242
 21
-107.9000473384
 31
0.0
  0
LINE
  5
273
330
26D
100
AcDbEntity
  8
SLD-0
100
AcDbLine
 10
87.5588535439
 20
-115.9000473384
 30
0.0
 11
78.9546833242
 21
-115.9000473384
 31
0.0
  0
LINE
  5
274
330
26D
100
AcDbEntity
  8
SLD-0
100
AcDbLine
 10
79.9546833242
 20
-107.9000473384
 30
0.0
 11
79.9546833242
 21
-101.5500473384
 31
0.0
  0
LINE
  5
275
330
26D
100
AcDbEntity
  8
SLD-0
100
AcDbLine
 10
79.9546833242
 20
-107.9000473384
 30
0.0
 11
79.9546833242
 21
-115.9000473384
 31
0.0
  0
LINE
  5
276
330
26D
100
AcDbEntity
  8
SLD-0
100
AcDbLine
 10
79.9546833242
 20
-115.9000473384
 30
0.0
 11
79.9546833242
 21
-122.2500473384
 31
0.0
  0
MTEXT
  5
277
330
26D
100
AcDbEntity
  8
SLD-0
100
AcDbMText
 10
69.8866964186
 20
-120.3659855572
 30
0.1
 40
3.5
 41
0.0
 71
     1
 72
     1
  1
8.0000
  7
SLDTEXTSTYLE0
 11
-7.044195017643634E-15
 21
1.0
 31
0.0
 73
     1
 44
1.0
  0
MTEXT
  5
278
330
26D
100
AcDbEntity
  8
SLD-0
100
AcDbMText
 10
75.4429464097
 20
-117.8746664708
 30
0.1
 40
3.5
 41
0.0
 71
     1
 72
     1
  1
(D23)
  7
SLDTEXTSTYLE0
 11
-7.044195017643634E-15
 21
1.0
 31
0.0
 73
     1
 44
1.0
  0
ENDBLK
  5
26F
330
26D
100
AcDbEntity
  8
0
100
AcDbBlockEnd
  0
BLOCK
  5
27B
330
27A
100
AcDbEntity
  8
0
100
AcDbBlockBegin
  2
_D_24
 70
     0
 10
0.0
 20
0.0
 30
0.0
  3
_D_24
  1

  0
SOLID
  5
27D
330
27A
100
AcDbEntity
  8
SLD-0
100
AcDbTrace
 10
67.5818858528
 20
-52.6
 30
0.0
 11
67.0738858528
 21
-55.902
 31
0.0
 12
68.0898858528
 22
-55.902
 32
0.0
 13
68.0898858528
 23
-55.902
 33
0.0
  0
SOLID
  5
27E
330
27A
100
AcDbEntity
  8
SLD-0
100
AcDbTrace
 10
67.5818858528
 20
-95.4
 30
0.0
 11
68.0898858528
 21
-92.098
 31
0.0
 12
67.0738858528
 22
-92.098
 32
0.0
 13
67.0738858528
 23
-92.098
 33
0.0
  0
LINE
  5
27F
330
27A
100
AcDbEntity
  8
SLD-0
100
AcDbLine
 10
35.0
 20
-52.6
 30
0.0
 11
68.5818858528
 21
-52.6
 31
0.0
  0
LINE
  5
280
330
27A
100
AcDbEntity
  8
SLD-0
100
AcDbLine
 10
35.0
 20
-95.4
 30
0.0
 11
68.5818858528
 21
-95.4
 31
0.0
  0
LINE
  5
281
330
27A
100
AcDbEntity
  8
SLD-0
100
AcDbLine
 10
67.5818858528
 20
-52.6
 30
0.0
 11
67.5818858528
 21
-95.4
 31
0.0
  0
MTEXT
  5
282
330
27A
100
AcDbEntity
  8
SLD-0
100
AcDbMText
 10
57.5138989472
 20
-82.163628708
 30
0.1
 40
3.5
 41
0.0
 71
     1
 72
     1
  1
42.8000
  7
SLDTEXTSTYLE0
 11
-7.044195017643634E-15
 21
1.0
 31
0.0
 73
     1
 44
1.0
  0
MTEXT
  5
283
330
27A
100
AcDbEntity
  8
SLD-0
100
AcDbMText
 10
63.0701489383
 20
-78.3792539084
 30
0.1
 40
3.5
 41
0.0
 71
     1
 72
     1
  1
(D26)
  7
SLDTEXTSTYLE0
 11
-7.044195017643634E-15
 21
1.0
 31
0.0
 73
     1
 44
1.0
  0
ENDBLK
  5
27C
330
27A
100
AcDbEntity
  8
0
100
AcDbBlockEnd
  0
BLOCK
  5
286
330
285
100
AcDbEntity
  8
0
100
AcDbBlockBegin
  2
_D_25
 70
     0
 10
0.0
 20
0.0
 30
0.0
  3
_D_25
  1

  0
SOLID
  5
288
330
285
100
AcDbEntity
  8
SLD-0
100
AcDbTrace
 10
43.6639199069
 20
16.043231501
 30
0.0
 11
46.9659199069
 21
15.535231501
 31
0.0
 12
46.9659199069
 22
16.551231501
 32
0.0
 13
46.9659199069
 23
16.551231501
 33
0.0
  0
SOLID
  5
289
330
285
100
AcDbEntity
  8
SLD-0
100
AcDbTrace
 10
105.6639199069
 20
16.043231501
 30
0.0
 11
102.3619199069
 21
16.551231501
 31
0.0
 12
102.3619199069
 22
15.535231501
 32
0.0
 13
102.3619199069
 23
15.535231501
 33
0.0
  0
LINE
  5
28A
330
285
100
AcDbEntity
  8
SLD-0
100
AcDbLine
 10
43.6639199069
 20
-1.6286060427
 30
0.0
 11
43.6639199069
 21
17.043231501
 31
0.0
  0
LINE
  5
28B
330
285
100
AcDbEntity
  8
SLD-0
100
AcDbLine
 10
105.6639199069
 20
-1.6286060427
 30
0.0
 11
105.6639199069
 21
17.043231501
 31
0.0
  0
LINE
  5
28C
330
285
100
AcDbEntity
  8
SLD-0
100
AcDbLine
 10
43.6639199069
 20
16.043231501
 30
0.0
 11
105.6639199069
 21
16.043231501
 31
0.0
  0
MTEXT
  5
28D
330
285
100
AcDbEntity
  8
SLD-0
100
AcDbMText
 10
67.7213097553
 20
26.1112184067
 30
0.1
 40
3.5
 41
0.0
 71
     1
 72
     1
  1
62.0000
  7
SLDTEXTSTYLE0
 73
     1
 44
1.0
  0
MTEXT
  5
28E
330
285
100
AcDbEntity
  8
SLD-0
100
AcDbMText
 10
71.5056845549
 20
20.5549684156
 30
0.1
 40
3.5
 41
0.0
 71
     1
 72
     1
  1
(D27)
  7
SLDTEXTSTYLE0
 73
     1
 44
1.0
  0
ENDBLK
  5
287
330
285
100
AcDbEntity
  8
0
100
AcDbBlockEnd
  0
BLOCK
  5
291
330
290
100
AcDbEntity
  8
0
100
AcDbBlockBegin
  2
_D_26
 70
     0
 10
0.0
 20
0.0
 30
0.0
  3
_D_26
  1

  0
SOLID
  5
293
330
290
100
AcDbEntity
  8
SLD-0
100
AcDbTrace
 10
132.3896862243
 20
7.3713939573
 30
0.0
 11
131.8816862243
 21
4.0693939573
 31
0.0
 12
132.8976862243
 22
4.0693939573
 32
0.0
 13
132.8976862243
 23
4.0693939573
 33
0.0
  0
SOLID
  5
294
330
290
100
AcDbEntity
  8
SLD-0
100
AcDbTrace
 10
132.3896862243
 20
-34.6286060427
 30
0.0
 11
132.8976862243
 21
-31.3266060427
 31
0.0
 12
131.8816862243
 22
-31.3266060427
 32
0.0
 13
131.8816862243
 23
-31.3266060427
 33
0.0
  0
LINE
  5
295
330
290
100
AcDbEntity
  8
SLD-0
100
AcDbLine
 10
109.6639199069
 20
7.3713939573
 30
0.0
 11
133.3896862243
 21
7.3713939573
 31
0.0
  0
LINE
  5
296
330
290
100
AcDbEntity
  8
SLD-0
100
AcDbLine
 10
109.6639199069
 20
-34.6286060427
 30
0.0
 11
133.3896862243
 21
-34.6286060427
 31
0.0
  0
LINE
  5
297
330
290
100
AcDbEntity
  8
SLD-0
100
AcDbLine
 10
132.3896862243
 20
7.3713939573
 30
0.0
 11
132.3896862243
 21
-34.6286060427
 31
0.0
  0
MTEXT
  5
298
330
290
100
AcDbEntity
  8
SLD-0
100
AcDbMText
 10
122.3216993186
 20
-24.1879375316
 30
0.1
 40
3.5
 41
0.0
 71
     1
 72
     1
  1
42.0000
  7
SLDTEXTSTYLE0
 11
-1.715124499442883E-15
 21
1.0
 31
0.0
 73
     1
 44
1.0
  0
MTEXT
  5
299
330
290
100
AcDbEntity
  8
SLD-0
100
AcDbMText
 10
127.8779493097
 20
-20.403562732
 30
0.1
 40
3.5
 41
0.0
 71
     1
 72
     1
  1
(D28)
  7
SLDTEXTSTYLE0
 11
-1.715124499442883E-15
 21
1.0
 31
0.0
 73
     1
 44
1.0
  0
ENDBLK
  5
292
330
290
100
AcDbEntity
  8
0
100
AcDbBlockEnd
  0
BLOCK
  5
29C
330
29B
100
AcDbEntity
  8
0
100
AcDbBlockBegin
  2
_D_27
 70
     0
 10
0.0
 20
0.0
 30
0.0
  3
_D_27
  1

  0
SOLID
  5
29E
330
29B
100
AcDbEntity
  8
SLD-0
100
AcDbTrace
 10
104.4880110093
 20
-65.7453439267
 30
0.0
 11
103.9800110093
 21
-69.0473439267
 31
0.0
 12
104.9960110093
 22
-69.0473439267
 32
0.0
 13
104.9960110093
 23
-69.0473439267
 33
0.0
  0
SOLID
  5
29F
330
29B
100
AcDbEntity
  8
SLD-0
100
AcDbTrace
 10
104.4880110093
 20
-107.7453439267
 30
0.0
 11
104.9960110093
 21
-104.4433439267
 31
0.0
 12
103.9800110093
 22
-104.4433439267
 32
0.0
 13
103.9800110093
 23
-104.4433439267
 33
0.0
  0
LINE
  5
2A0
330
29B
100
AcDbEntity
  8
SLD-0
100
AcDbLine
 10
107.0567132642
 20
-65.7453439267
 30
0.0
 11
103.4880110093
 21
-65.7453439267
 31
0.0
  0
LINE
  5
2A1
330
29B
100
AcDbEntity
  8
SLD-0
100
AcDbLine
 10
107.0567132642
 20
-107.7453439267
 30
0.0
 11
103.4880110093
 21
-107.7453439267
 31
0.0
  0
LINE
  5
2A2
330
29B
100
AcDbEntity
  8
SLD-0
100
AcDbLine
 10
104.4880110093
 20
-65.7453439267
 30
0.0
 11
104.4880110093
 21
-107.7453439267
 31
0.0
  0
MTEXT
  5
2A3
330
29B
100
AcDbEntity
  8
SLD-0
100
AcDbMText
 10
94.4200241037
 20
-92.4569927711
 30
0.1
 40
3.5
 41
0.0
 71
     1
 72
     1
  1
42.0000
  7
SLDTEXTSTYLE0
 11
-2.603302919143008E-15
 21
1.0
 31
0.0
 73
     1
 44
1.0
  0
MTEXT
  5
2A4
330
29B
100
AcDbEntity
  8
SLD-0
100
AcDbMText
 10
99.9762740947
 20
-88.6726179715
 30
0.1
 40
3.5
 41
0.0
 71
     1
 72
     1
  1
(D29)
  7
SLDTEXTSTYLE0
 11
-2.603302919143008E-15
 21
1.0
 31
0.0
 73
     1
 44
1.0
  0
ENDBLK
  5
29D
330
29B
100
AcDbEntity
  8
0
100
AcDbBlockEnd
  0
ENDSEC
  0
SECTION
  2
ENTITIES
  0
LINE
  5
46
330
1F
100
AcDbEntity
  8
SLD-0
100
AcDbLine
 10
-27.5
 20
43.0
 30
0.0
 11
-39.0
 21
43.0
 31
0.0
  0
LINE
  5
47
330
1F
100
AcDbEntity
  8
SLD-0
100
AcDbLine
 10
-39.0
 20
43.0
 30
0.0
 11
-39.0
 21
52.0246765285
 31
0.0
  0
LINE
  5
48
330
1F
100
AcDbEntity
  8
SLD-0
100
AcDbLine
 10
-39.0
 20
52.0246765285
 30
0.0
 11
39.0
 21
52.0246765285
 31
0.0
  0
LINE
  5
49
330
1F
100
AcDbEntity
  8
SLD-0
100
AcDbLine
 10
39.0
 20
52.0246765285
 30
0.0
 11
39.0
 21
43.0
 31
0.0
  0
LINE
  5
4A
330
1F
100
AcDbEntity
  8
SLD-0
100
AcDbLine
 10
39.0
 20
43.0
 30
0.0
 11
27.5
 21
43.0
 31
0.0
  0
LINE
  5
4B
330
1F
100
AcDbEntity
  8
SLD-0
100
AcDbLine
 10
-27.5
 20
43.0
 30
0.0
 11
-27.5
 21
-43.0
 31
0.0
  0
LINE
  5
4C
330
1F
100
AcDbEntity
  8
SLD-0
100
AcDbLine
 10
27.5
 20
43.0
 30
0.0
 11
27.5
 21
-43.0
 31
0.0
  0
LINE
  5
4D
330
1F
100
AcDbEntity
  8
0
  6
Continuous
 62
   179
370
     0
100
AcDbLine
 10
24.9808498159
 20
-231.0756791846
 30
0.0
 11
36.0191501841
 21
-231.0756791846
 31
0.0
  0
LINE
  5
4E
330
1F
100
AcDbEntity
  8
SLD-0
  6
CENTERX2
100
AcDbLine
 10
-25.0
 20
22.4
 30
0.0
 11
25.0
 21
22.4
 31
0.0
  0
LINE
  5
4F
330
1F
100
AcDbEntity
  8
SLD-0
  6
CENTERX2
100
AcDbLine
 10
-25.0
 20
22.4
 30
0.0
 11
-25.0
 21
-52.6
 31
0.0
  0
LINE
  5
50
330
1F
100
AcDbEntity
  8
SLD-0
  6
CENTERX2
100
AcDbLine
 10
-25.0
 20
-52.6
 30
0.0
 11
25.0
 21
-52.6
 31
0.0
  0
LINE
  5
51
330
1F
100
AcDbEntity
  8
SLD-0
  6
CENTERX2
100
AcDbLine
 10
25.0
 20
22.4
 30
0.0
 11
25.0
 21
-52.6
 31
0.0
  0
LINE
  5
52
330
1F
100
AcDbEntity
  8
0
  6
Continuous
 62
   179
370
     0
100
AcDbLine
 10
72.0
 20
-251.0606209499
 30
0.0
 11
109.0
 21
-251.0606209499
 31
0.0
  0
LINE
  5
53
330
1F
100
AcDbEntity
  8
0
  6
Continuous
 62
   179
370
     0
100
AcDbLine
 10
-15.0
 20
-248.6146271237
 30
0.0
 11
-15.0
 21
-246.6146271237
 31
0.0
  0
LINE
  5
54
330
1F
100
AcDbEntity
  8
0
  6
Continuous
 62
   179
370
     0
100
AcDbLine
 10
5.0191501841
 20
-231.0756791846
 30
0.0
 11
14.9808498159
 21
-231.0756791846
 31
0.0
  0
LINE
  5
55
330
1F
100
AcDbEntity
  8
0
  6
Continuous
 62
   179
370
     0
100
AcDbLine
 10
112.0
 20
-246.0606209499
 30
0.0
 11
109.0
 21
-246.0606209499
 31
0.0
  0
LINE
  5
56
330
1F
100
AcDbEntity
  8
0
  6
Continuous
 62
   179
370
     0
100
AcDbLine
 10
15.0
 20
-246.6146271237
 30
0.0
 11
15.0
 21
-248.6146271237
 31
0.0
  0
LINE
  5
57
330
1F
100
AcDbEntity
  8
0
  6
Continuous
 62
   179
370
     0
100
AcDbLine
 10
36.0191501841
 20
-251.0756791846
 30
0.0
 11
-36.0191501841
 21
-251.0756791846
 31
0.0
  0
LINE
  5
58
330
1F
100
AcDbEntity
  8
0
  6
Continuous
 62
   179
370
     0
100
AcDbLine
 10
112.0
 20
-236.0606209499
 30
0.0
 11
109.0
 21
-236.0606209499
 31
0.0
  0
LINE
  5
59
330
1F
100
AcDbEntity
  8
SLD-0
100
AcDbLine
 10
-25.0
 20
-95.0
 30
0.0
 11
-15.0
 21
-95.0
 31
0.0
  0
LINE
  5
5A
330
1F
100
AcDbEntity
  8
SLD-0
  6
CENTERX2
100
AcDbLine
 10
-26.3156380252
 20
-31.7067830201
 30
0.0
 11
26.9843619748
 21
-31.7067830201
 31
0.0
  0
LINE
  5
5B
330
1F
100
AcDbEntity
  8
SLD-0
  6
CENTERX2
100
AcDbLine
 10
-0.0305270348
 20
15.3
 30
0.0
 11
-0.0305270348
 21
68.6
 31
0.0
  0
LINE
  5
5C
330
1F
100
AcDbEntity
  8
SLD-0
  6
CENTERX2
100
AcDbLine
 10
-26.3156380252
 20
-31.7067830201
 30
0.0
 11
-26.3156380252
 21
36.8932169799
 31
0.0
  0
LINE
  5
5D
330
1F
100
AcDbEntity
  8
SLD-0
  6
CENTERX2
100
AcDbLine
 10
-26.3156380252
 20
36.8932169799
 30
0.0
 11
26.9843619748
 21
36.8932169799
 31
0.0
  0
LINE
  5
5E
330
1F
100
AcDbEntity
  8
SLD-0
  6
CENTERX2
100
AcDbLine
 10
26.9843619748
 20
-31.7067830201
 30
0.0
 11
26.9843619748
 21
36.8932169799
 31
0.0
  0
LINE
  5
5F
330
1F
100
AcDbEntity
  8
SLD-0
100
AcDbLine
 10
-25.0
 20
-55.0
 30
0.0
 11
-15.0
 21
-55.0
 31
0.0
  0
LINE
  5
60
330
1F
100
AcDbEntity
  8
SLD-0
100
AcDbLine
 10
-25.0
 20
-55.0
 30
0.0
 11
-25.0
 21
-58.0
 31
0.0
  0
LINE
  5
61
330
1F
100
AcDbEntity
  8
SLD-0
100
AcDbLine
 10
-25.0
 20
-58.0
 30
0.0
 11
-15.0
 21
-58.0
 31
0.0
  0
LINE
  5
62
330
1F
100
AcDbEntity
  8
SLD-0
100
AcDbLine
 10
-15.0
 20
-55.0
 30
0.0
 11
-15.0
 21
-58.0
 31
0.0
  0
LINE
  5
63
330
1F
100
AcDbEntity
  8
SLD-0
100
AcDbLine
 10
15.0
 20
-58.0
 30
0.0
 11
25.0
 21
-58.0
 31
0.0
  0
LINE
  5
64
330
1F
100
AcDbEntity
  8
SLD-0
100
AcDbLine
 10
15.0
 20
-58.0
 30
0.0
 11
15.0
 21
-55.0
 31
0.0
  0
LINE
  5
65
330
1F
100
AcDbEntity
  8
SLD-0
100
AcDbLine
 10
15.0
 20
-55.0
 30
0.0
 11
25.0
 21
-55.0
 31
0.0
  0
LINE
  5
66
330
1F
100
AcDbEntity
  8
SLD-0
100
AcDbLine
 10
25.0
 20
-58.0
 30
0.0
 11
25.0
 21
-55.0
 31
0.0
  0
LINE
  5
67
330
1F
100
AcDbEntity
  8
SLD-0
100
AcDbLine
 10
-5.0
 20
-55.0
 30
0.0
 11
5.0
 21
-55.0
 31
0.0
  0
LINE
  5
68
330
1F
100
AcDbEntity
  8
SLD-0
100
AcDbLine
 10
-5.0
 20
-55.0
 30
0.0
 11
-5.0
 21
-58.0
 31
0.0
  0
LINE
  5
69
330
1F
100
AcDbEntity
  8
SLD-0
100
AcDbLine
 10
-5.0
 20
-58.0
 30
0.0
 11
5.0
 21
-58.0
 31
0.0
  0
LINE
  5
6A
330
1F
100
AcDbEntity
  8
SLD-0
100
AcDbLine
 10
5.0
 20
-55.0
 30
0.0
 11
5.0
 21
-58.0
 31
0.0
  0
LINE
  5
6B
330
1F
100
AcDbEntity
  8
SLD-0
100
AcDbLine
 10
-25.0
 20
-95.0
 30
0.0
 11
-25.0
 21
-98.0
 31
0.0
  0
LINE
  5
6C
330
1F
100
AcDbEntity
  8
SLD-0
100
AcDbLine
 10
-25.0
 20
-98.0
 30
0.0
 11
-15.0
 21
-98.0
 31
0.0
  0
LINE
  5
6D
330
1F
100
AcDbEntity
  8
SLD-0
100
AcDbLine
 10
-15.0
 20
-95.0
 30
0.0
 11
-15.0
 21
-98.0
 31
0.0
  0
LINE
  5
6E
330
1F
100
AcDbEntity
  8
SLD-0
100
AcDbLine
 10
15.0
 20
-98.0
 30
0.0
 11
25.0
 21
-98.0
 31
0.0
  0
LINE
  5
6F
330
1F
100
AcDbEntity
  8
SLD-0
100
AcDbLine
 10
15.0
 20
-98.0
 30
0.0
 11
15.0
 21
-95.0
 31
0.0
  0
LINE
  5
70
330
1F
100
AcDbEntity
  8
SLD-0
100
AcDbLine
 10
15.0
 20
-95.0
 30
0.0
 11
25.0
 21
-95.0
 31
0.0
  0
LINE
  5
71
330
1F
100
AcDbEntity
  8
SLD-0
100
AcDbLine
 10
25.0
 20
-98.0
 30
0.0
 11
25.0
 21
-95.0
 31
0.0
  0
LINE
  5
72
330
1F
100
AcDbEntity
  8
SLD-0
100
AcDbLine
 10
-5.0
 20
-95.0
 30
0.0
 11
5.0
 21
-95.0
 31
0.0
  0
LINE
  5
73
330
1F
100
AcDbEntity
  8
SLD-0
100
AcDbLine
 10
-5.0
 20
-95.0
 30
0.0
 11
-5.0
 21
-98.0
 31
0.0
  0
LINE
  5
74
330
1F
100
AcDbEntity
  8
SLD-0
100
AcDbLine
 10
-5.0
 20
-98.0
 30
0.0
 11
5.0
 21
-98.0
 31
0.0
  0
LINE
  5
75
330
1F
100
AcDbEntity
  8
SLD-0
100
AcDbLine
 10
5.0
 20
-95.0
 30
0.0
 11
5.0
 21
-98.0
 31
0.0
  0
LINE
  5
76
330
1F
100
AcDbEntity
  8
SLD-0
100
AcDbLine
 10
-27.5
 20
-43.0
 30
0.0
 11
-39.0
 21
-43.0
 31
0.0
  0
LINE
  5
77
330
1F
100
AcDbEntity
  8
0
  6
Continuous
 62
   179
370
     0
100
AcDbLine
 10
-25.0191501841
 20
-231.0756791846
 30
0.0
 11
-36.0191501841
 21
-231.0756791846
 31
0.0
  0
LINE
  5
78
330
1F
100
AcDbEntity
  8
0
  6
Continuous
 62
   179
370
     0
100
AcDbLine
 10
-34.0
 20
-236.0606275248
 30
0.0
 11
-31.0
 21
-236.0606275248
 31
0.0
  0
LINE
  5
79
330
1F
100
AcDbEntity
  8
0
  6
Continuous
 62
   179
370
     0
100
AcDbLine
 10
72.0
 20
-231.0606209499
 30
0.0
 11
85.5
 21
-231.0606209499
 31
0.0
  0
LINE
  5
7A
330
1F
100
AcDbEntity
  8
0
  6
Continuous
 62
   179
370
     0
100
AcDbLine
 10
-5.0191501841
 20
-228.0756791846
 30
0.0
 11
-5.0191501841
 21
-231.0756791846
 31
0.0
  0
LINE
  5
7B
330
1F
100
AcDbEntity
  8
SLD-0
100
AcDbLine
 10
-39.0
 20
-43.0
 30
0.0
 11
-39.0
 21
-105.0
 31
0.0
  0
LINE
  5
7C
330
1F
100
AcDbEntity
  8
SLD-0
100
AcDbLine
 10
27.5
 20
-43.0
 30
0.0
 11
39.0
 21
-43.0
 31
0.0
  0
LINE
  5
7D
330
1F
100
AcDbEntity
  8
SLD-0
100
AcDbLine
 10
39.0
 20
-43.0
 30
0.0
 11
39.0
 21
-105.0
 31
0.0
  0
LINE
  5
7E
330
1F
100
AcDbEntity
  8
SLD-0
100
AcDbLine
 10
39.0
 20
-105.0
 30
0.0
 11
-39.0
 21
-105.0
 31
0.0
  0
LINE
  5
7F
330
1F
100
AcDbEntity
  8
SLD-0
100
AcDbLine
 10
-15.0191501841
 20
-163.3869006254
 30
0.0
 11
-5.0191501841
 21
-163.3869006254
 31
0.0
  0
LINE
  5
80
330
1F
100
AcDbEntity
  8
SLD-0
100
AcDbLine
 10
-34.0
 20
-44.6
 30
0.0
 11
-31.0
 21
-44.6
 31
0.0
  0
LINE
  5
81
330
1F
100
AcDbEntity
  8
SLD-0
100
AcDbLine
 10
-34.0
 20
-44.6
 30
0.0
 11
-34.0
 21
-52.6
 31
0.0
  0
LINE
  5
82
330
1F
100
AcDbEntity
  8
SLD-0
100
AcDbLine
 10
-34.0
 20
-52.6
 30
0.0
 11
-31.0
 21
-52.6
 31
0.0
  0
LINE
  5
83
330
1F
100
AcDbEntity
  8
SLD-0
100
AcDbLine
 10
-31.0
 20
-44.6
 30
0.0
 11
-31.0
 21
-52.6
 31
0.0
  0
LINE
  5
84
330
1F
100
AcDbEntity
  8
0
  6
Continuous
 62
   179
370
     0
100
AcDbLine
 10
-34.0
 20
-246.0606275248
 30
0.0
 11
-31.0
 21
-246.0606275248
 31
0.0
  0
LINE
  5
85
330
1F
100
AcDbEntity
  8
SLD-0
  6
Continuous
 62
   179
370
     0
100
AcDbLine
 10
-31.0
 20
-103.4
 30
0.0
 11
-31.0
 21
-95.4
 31
0.0
  0
LINE
  5
86
330
1F
100
AcDbEntity
  8
SLD-0
  6
Continuous
 62
   179
370
     0
100
AcDbLine
 10
-34.0
 20
-95.4
 30
0.0
 11
-31.0
 21
-95.4
 31
0.0
  0
LINE
  5
87
330
1F
100
AcDbEntity
  8
SLD-0
  6
Continuous
 62
   179
370
     0
100
AcDbLine
 10
-34.0
 20
-103.4
 30
0.0
 11
-34.0
 21
-95.4
 31
0.0
  0
LINE
  5
88
330
1F
100
AcDbEntity
  8
SLD-0
  6
Continuous
 62
   179
370
     0
100
AcDbLine
 10
-34.0
 20
-103.4
 30
0.0
 11
-31.0
 21
-103.4
 31
0.0
  0
LINE
  5
89
330
1F
100
AcDbEntity
  8
SLD-0
  6
Continuous
 62
   179
370
     0
100
AcDbLine
 10
34.0
 20
-103.4
 30
0.0
 11
31.0
 21
-103.4
 31
0.0
  0
LINE
  5
8A
330
1F
100
AcDbEntity
  8
SLD-0
  6
Continuous
 62
   179
370
     0
100
AcDbLine
 10
34.0
 20
-103.4
 30
0.0
 11
34.0
 21
-95.4
 31
0.0
  0
LINE
  5
8B
330
1F
100
AcDbEntity
  8
SLD-0
  6
Continuous
 62
   179
370
     0
100
AcDbLine
 10
34.0
 20
-95.4
 30
0.0
 11
31.0
 21
-95.4
 31
0.0
  0
LINE
  5
8C
330
1F
100
AcDbEntity
  8
SLD-0
  6
Continuous
 62
   179
370
     0
100
AcDbLine
 10
31.0
 20
-103.4
 30
0.0
 11
31.0
 21
-95.4
 31
0.0
  0
LINE
  5
8D
330
1F
100
AcDbEntity
  8
SLD-0
  6
Continuous
 62
   179
370
     0
100
AcDbLine
 10
31.0
 20
-44.6
 30
0.0
 11
31.0
 21
-52.6
 31
0.0
  0
LINE
  5
8E
330
1F
100
AcDbEntity
  8
SLD-0
  6
Continuous
 62
   179
370
     0
100
AcDbLine
 10
34.0
 20
-52.6
 30
0.0
 11
31.0
 21
-52.6
 31
0.0
  0
LINE
  5
8F
330
1F
100
AcDbEntity
  8
SLD-0
  6
Continuous
 62
   179
370
     0
100
AcDbLine
 10
34.0
 20
-44.6
 30
0.0
 11
34.0
 21
-52.6
 31
0.0
  0
LINE
  5
90
330
1F
100
AcDbEntity
  8
SLD-0
  6
Continuous
 62
   179
370
     0
100
AcDbLine
 10
34.0
 20
-44.6
 30
0.0
 11
31.0
 21
-44.6
 31
0.0
  0
LINE
  5
91
330
1F
100
AcDbEntity
  8
0
  6
Continuous
 62
   179
370
     0
100
AcDbLine
 10
85.5
 20
-228.0606209499
 30
0.0
 11
85.5
 21
-231.0606209499
 31
0.0
  0
LINE
  5
92
330
1F
100
AcDbEntity
  8
0
  6
Continuous
 62
   179
370
     0
100
AcDbLine
 10
-25.0191501841
 20
-228.0756791846
 30
0.0
 11
-25.0191501841
 21
-231.0756791846
 31
0.0
  0
LINE
  5
93
330
1F
100
AcDbEntity
  8
0
  6
Continuous
 62
   179
370
     0
100
AcDbLine
 10
31.0
 20
-236.0606275248
 30
0.0
 11
31.0
 21
-246.0606275248
 31
0.0
  0
LINE
  5
94
330
1F
100
AcDbEntity
  8
0
  6
Continuous
 62
   179
370
     0
100
AcDbLine
 10
95.5
 20
-231.0606209499
 30
0.0
 11
109.0
 21
-231.0606209499
 31
0.0
  0
LINE
  5
95
330
1F
100
AcDbEntity
  8
0
  6
Continuous
 62
   179
370
     0
100
AcDbLine
 10
-36.0191501841
 20
-231.0756791846
 30
0.0
 11
-36.0191501841
 21
-251.0756791846
 31
0.0
  0
LINE
  5
96
330
1F
100
AcDbEntity
  8
0
  6
Continuous
 62
   179
370
     0
100
AcDbLine
 10
34.0
 20
-236.0606275248
 30
0.0
 11
34.0
 21
-246.0606275248
 31
0.0
  0
LINE
  5
97
330
1F
100
AcDbEntity
  8
0
  6
Continuous
 62
   179
370
     0
100
AcDbLine
 10
15.0
 20
-248.6146271237
 30
0.0
 11
0.0
 21
-248.6146271237
 31
0.0
  0
LINE
  5
98
330
1F
100
AcDbEntity
  8
0
  6
Continuous
 62
   179
370
     0
100
AcDbLine
 10
-15.0191501841
 20
-228.0756791846
 30
0.0
 11
-15.0191501841
 21
-231.0756791846
 31
0.0
  0
LINE
  5
99
330
1F
100
AcDbEntity
  8
0
  6
Continuous
 62
   179
370
     0
100
AcDbLine
 10
69.0
 20
-236.0606209499
 30
0.0
 11
69.0
 21
-246.0606209499
 31
0.0
  0
LINE
  5
9A
330
1F
100
AcDbEntity
  8
0
  6
Continuous
 62
   179
370
     0
100
AcDbLine
 10
14.9808498159
 20
-228.0756791846
 30
0.0
 11
14.9808498159
 21
-231.0756791846
 31
0.0
  0
LINE
  5
9B
330
1F
100
AcDbEntity
  8
0
  6
Continuous
 62
   179
370
     0
100
AcDbLine
 10
72.0
 20
-246.0606209499
 30
0.0
 11
72.0
 21
-251.0606209499
 31
0.0
  0
LINE
  5
9C
330
1F
100
AcDbEntity
  8
0
  6
Continuous
 62
   179
370
     0
100
AcDbLine
 10
0.0
 20
-248.6146271237
 30
0.0
 11
-15.0
 21
-248.6146271237
 31
0.0
  0
LINE
  5
9D
330
1F
100
AcDbEntity
  8
0
  6
Continuous
 62
   179
370
     0
100
AcDbLine
 10
24.9808498159
 20
-228.0756791846
 30
0.0
 11
24.9808498159
 21
-231.0756791846
 31
0.0
  0
LINE
  5
9E
330
1F
100
AcDbEntity
  8
0
  6
Continuous
 62
   179
370
     0
100
AcDbLine
 10
109.0
 20
-246.0606209499
 30
0.0
 11
109.0
 21
-251.0606209499
 31
0.0
  0
LINE
  5
9F
330
1F
100
AcDbEntity
  8
0
  6
Continuous
 62
   179
370
     0
100
AcDbLine
 10
-15.0
 20
-246.6146271237
 30
0.0
 11
15.0
 21
-246.6146271237
 31
0.0
  0
LINE
  5
A0
330
1F
100
AcDbEntity
  8
0
  6
Continuous
 62
   179
370
     0
100
AcDbLine
 10
36.0191501841
 20
-231.0756791846
 30
0.0
 11
36.0191501841
 21
-251.0756791846
 31
0.0
  0
LINE
  5
A1
330
1F
100
AcDbEntity
  8
0
  6
Continuous
 62
   179
370
     0
100
AcDbLine
 10
112.0
 20
-236.0606209499
 30
0.0
 11
112.0
 21
-246.0606209499
 31
0.0
  0
LINE
  5
A2
330
1F
100
AcDbEntity
  8
0
  6
Continuous
 62
   179
370
     0
100
AcDbLine
 10
-5.0191501841
 20
-228.0756791846
 30
0.0
 11
5.0191501841
 21
-228.0756791846
 31
0.0
  0
LINE
  5
A3
330
1F
100
AcDbEntity
  8
0
  6
Continuous
 62
   179
370
     0
100
AcDbLine
 10
72.0
 20
-236.0606209499
 30
0.0
 11
72.0
 21
-231.0606209499
 31
0.0
  0
LINE
  5
A4
330
1F
100
AcDbEntity
  8
0
  6
Continuous
 62
   179
370
     0
100
AcDbLine
 10
109.0
 20
-236.0606209499
 30
0.0
 11
109.0
 21
-231.0606209499
 31
0.0
  0
LINE
  5
A5
330
1F
100
AcDbEntity
  8
0
  6
Continuous
 62
   179
370
     0
100
AcDbLine
 10
5.0191501841
 20
-228.0756791846
 30
0.0
 11
5.0191501841
 21
-231.0756791846
 31
0.0
  0
LINE
  5
A6
330
1F
100
AcDbEntity
  8
0
  6
Continuous
 62
   179
370
     0
100
AcDbLine
 10
-34.0
 20
-236.0606275248
 30
0.0
 11
-34.0
 21
-246.0606275248
 31
0.0
  0
LINE
  5
A7
330
1F
100
AcDbEntity
  8
SLD-0
100
AcDbLine
 10
-22.9693105942
 20
-40.9217420068
 30
0.0
 11
0.0306894058
 21
-40.9217420068
 31
0.0
  0
LINE
  5
A8
330
1F
100
AcDbEntity
  8
SLD-0
100
AcDbLine
 10
-22.9693105942
 20
-40.9217420068
 30
0.0
 11
-22.9693105942
 21
-52.5
 31
0.0
  0
LINE
  5
A9
330
1F
100
AcDbEntity
  8
SLD-0
100
AcDbLine
 10
-25.0191501841
 20
-160.3869006254
 30
0.0
 11
-15.0191501841
 21
-160.3869006254
 31
0.0
  0
LINE
  5
AA
330
1F
100
AcDbEntity
  8
SLD-0
100
AcDbLine
 10
-25.0191501841
 20
-160.3869006254
 30
0.0
 11
-25.0191501841
 21
-163.3869006254
 31
0.0
  0
LINE
  5
AB
330
1F
100
AcDbEntity
  8
SLD-0
100
AcDbLine
 10
-25.0191501841
 20
-163.3869006254
 30
0.0
 11
-36.0191501841
 21
-163.3869006254
 31
0.0
  0
LINE
  5
AC
330
1F
100
AcDbEntity
  8
SLD-0
100
AcDbLine
 10
-15.0191501841
 20
-160.3869006254
 30
0.0
 11
-15.0191501841
 21
-163.3869006254
 31
0.0
  0
LINE
  5
AD
330
1F
100
AcDbEntity
  8
SLD-0
100
AcDbLine
 10
-5.0191501841
 20
-160.3869006254
 30
0.0
 11
5.0191501841
 21
-160.3869006254
 31
0.0
  0
LINE
  5
AE
330
1F
100
AcDbEntity
  8
SLD-0
100
AcDbLine
 10
-5.0191501841
 20
-160.3869006254
 30
0.0
 11
-5.0191501841
 21
-163.3869006254
 31
0.0
  0
LINE
  5
AF
330
1F
100
AcDbEntity
  8
SLD-0
100
AcDbLine
 10
-36.0191501841
 20
-163.3869006254
 30
0.0
 11
-36.0191501841
 21
-183.3869006254
 31
0.0
  0
LINE
  5
B0
330
1F
100
AcDbEntity
  8
SLD-0
100
AcDbLine
 10
5.0191501841
 20
-160.3869006254
 30
0.0
 11
5.0191501841
 21
-163.3869006254
 31
0.0
  0
LINE
  5
B1
330
1F
100
AcDbEntity
  8
SLD-0
100
AcDbLine
 10
14.9808498159
 20
-160.3869006254
 30
0.0
 11
24.9808498159
 21
-160.3869006254
 31
0.0
  0
LINE
  5
B2
330
1F
100
AcDbEntity
  8
SLD-0
100
AcDbLine
 10
14.9808498159
 20
-160.3869006254
 30
0.0
 11
14.9808498159
 21
-163.3869006254
 31
0.0
  0
LINE
  5
B3
330
1F
100
AcDbEntity
  8
SLD-0
100
AcDbLine
 10
24.9808498159
 20
-163.3869006254
 30
0.0
 11
36.0191501841
 21
-163.3869006254
 31
0.0
  0
LINE
  5
B4
330
1F
100
AcDbEntity
  8
SLD-0
100
AcDbLine
 10
24.9808498159
 20
-160.3869006254
 30
0.0
 11
24.9808498159
 21
-163.3869006254
 31
0.0
  0
LINE
  5
B5
330
1F
100
AcDbEntity
  8
SLD-0
100
AcDbLine
 10
5.0191501841
 20
-163.3869006254
 30
0.0
 11
14.9808498159
 21
-163.3869006254
 31
0.0
  0
LINE
  5
B6
330
1F
100
AcDbEntity
  8
SLD-0
100
AcDbLine
 10
36.0191501841
 20
-163.3869006254
 30
0.0
 11
36.0191501841
 21
-183.3869006254
 31
0.0
  0
LINE
  5
B7
330
1F
100
AcDbEntity
  8
SLD-0
100
AcDbLine
 10
36.0191501841
 20
-183.3869006254
 30
0.0
 11
-36.0191501841
 21
-183.3869006254
 31
0.0
  0
LINE
  5
B8
330
1F
100
AcDbEntity
  8
SLD-0
100
AcDbLine
 10
72.0
 20
-168.3718423907
 30
0.0
 11
72.0
 21
-163.3718423907
 31
0.0
  0
LINE
  5
B9
330
1F
100
AcDbEntity
  8
SLD-0
100
AcDbLine
 10
-34.0
 20
-168.3718489656
 30
0.0
 11
-31.0
 21
-168.3718489656
 31
0.0
  0
LINE
  5
BA
330
1F
100
AcDbEntity
  8
SLD-0
100
AcDbLine
 10
-34.0
 20
-168.3718489656
 30
0.0
 11
-34.0
 21
-178.3718489656
 31
0.0
  0
LINE
  5
BB
330
1F
100
AcDbEntity
  8
SLD-0
100
AcDbLine
 10
-34.0
 20
-178.3718489656
 30
0.0
 11
-31.0
 21
-178.3718489656
 31
0.0
  0
LINE
  5
BC
330
1F
100
AcDbEntity
  8
SLD-0
100
AcDbLine
 10
-31.0
 20
-168.3718489656
 30
0.0
 11
-31.0
 21
-178.3718489656
 31
0.0
  0
LINE
  5
BD
330
1F
100
AcDbEntity
  8
0
  6
Continuous
 62
   179
370
     0
100
AcDbLine
 10
95.5
 20
-228.0606209499
 30
0.0
 11
85.5
 21
-228.0606209499
 31
0.0
  0
LINE
  5
BE
330
1F
100
AcDbEntity
  8
SLD-0
  6
Continuous
 62
   179
370
     0
100
AcDbLine
 10
31.0
 20
-168.3718489656
 30
0.0
 11
31.0
 21
-178.3718489656
 31
0.0
  0
LINE
  5
BF
330
1F
100
AcDbEntity
  8
SLD-0
  6
Continuous
 62
   179
370
     0
100
AcDbLine
 10
34.0
 20
-178.3718489656
 30
0.0
 11
31.0
 21
-178.3718489656
 31
0.0
  0
LINE
  5
C0
330
1F
100
AcDbEntity
  8
SLD-0
  6
Continuous
 62
   179
370
     0
100
AcDbLine
 10
34.0
 20
-168.3718489656
 30
0.0
 11
34.0
 21
-178.3718489656
 31
0.0
  0
LINE
  5
C1
330
1F
100
AcDbEntity
  8
SLD-0
100
AcDbLine
 10
69.0
 20
-168.3718423907
 30
0.0
 11
72.0
 21
-168.3718423907
 31
0.0
  0
LINE
  5
C2
330
1F
100
AcDbEntity
  8
SLD-0
100
AcDbLine
 10
69.0
 20
-168.3718423907
 30
0.0
 11
69.0
 21
-178.3718423907
 31
0.0
  0
LINE
  5
C3
330
1F
100
AcDbEntity
  8
SLD-0
100
AcDbLine
 10
69.0
 20
-178.3718423907
 30
0.0
 11
72.0
 21
-178.3718423907
 31
0.0
  0
LINE
  5
C4
330
1F
100
AcDbEntity
  8
SLD-0
100
AcDbLine
 10
-22.9693105942
 20
-52.5
 30
0.0
 11
0.0306894058
 21
-52.5
 31
0.0
  0
LINE
  5
C5
330
1F
100
AcDbEntity
  8
SLD-0
100
AcDbLine
 10
72.0
 20
-178.3718423907
 30
0.0
 11
72.0
 21
-183.3718423907
 31
0.0
  0
LINE
  5
C6
330
1F
100
AcDbEntity
  8
SLD-0
100
AcDbLine
 10
72.0
 20
-183.3718423907
 30
0.0
 11
109.0
 21
-183.3718423907
 31
0.0
  0
LINE
  5
C7
330
1F
100
AcDbEntity
  8
SLD-0
  6
Continuous
 62
   179
370
     0
100
AcDbLine
 10
109.0
 20
-178.3718423907
 30
0.0
 11
109.0
 21
-183.3718423907
 31
0.0
  0
LINE
  5
C8
330
1F
100
AcDbEntity
  8
SLD-0
  6
Continuous
 62
   179
370
     0
100
AcDbLine
 10
112.0
 20
-178.3718423907
 30
0.0
 11
109.0
 21
-178.3718423907
 31
0.0
  0
LINE
  5
C9
330
1F
100
AcDbEntity
  8
SLD-0
  6
Continuous
 62
   179
370
     0
100
AcDbLine
 10
112.0
 20
-168.3718423907
 30
0.0
 11
112.0
 21
-178.3718423907
 31
0.0
  0
LINE
  5
CA
330
1F
100
AcDbEntity
  8
SLD-0
  6
Continuous
 62
   179
370
     0
100
AcDbLine
 10
112.0
 20
-168.3718423907
 30
0.0
 11
109.0
 21
-168.3718423907
 31
0.0
  0
LINE
  5
CB
330
1F
100
AcDbEntity
  8
SLD-0
  6
Continuous
 62
   179
370
     0
100
AcDbLine
 10
109.0
 20
-168.3718423907
 30
0.0
 11
109.0
 21
-163.3718423907
 31
0.0
  0
LINE
  5
CC
330
1F
100
AcDbEntity
  8
SLD-0
100
AcDbLine
 10
72.0
 20
-163.3718423907
 30
0.0
 11
85.5
 21
-163.3718423907
 31
0.0
  0
LINE
  5
CD
330
1F
100
AcDbEntity
  8
SLD-0
  6
Continuous
 62
   179
370
     0
100
AcDbLine
 10
95.5
 20
-160.3718423907
 30
0.0
 11
85.5
 21
-160.3718423907
 31
0.0
  0
LINE
  5
CE
330
1F
100
AcDbEntity
  8
SLD-0
100
AcDbLine
 10
85.5
 20
-160.3718423907
 30
0.0
 11
85.5
 21
-163.3718423907
 31
0.0
  0
LINE
  5
CF
330
1F
100
AcDbEntity
  8
SLD-0
  6
Continuous
 62
   179
370
     0
100
AcDbLine
 10
95.5
 20
-160.3718423907
 30
0.0
 11
95.5
 21
-163.3718423907
 31
0.0
  0
LINE
  5
D0
330
1F
100
AcDbEntity
  8
SLD-0
100
AcDbLine
 10
95.5
 20
-163.3718423907
 30
0.0
 11
109.0
 21
-163.3718423907
 31
0.0
  0
LINE
  5
D1
330
1F
100
AcDbEntity
  8
SLD-0
100
AcDbLine
 10
33.9389459305
 20
-81.5
 30
0.0
 11
30.9389459305
 21
-81.5
 31
0.0
  0
LINE
  5
D2
330
1F
100
AcDbEntity
  8
SLD-0
100
AcDbLine
 10
30.9389459305
 20
-81.5
 30
0.0
 11
30.9389459305
 21
-76.5000473384
 31
0.0
  0
LINE
  5
D3
330
1F
100
AcDbEntity
  8
SLD-0
100
AcDbLine
 10
30.9389459305
 20
-76.5000473384
 30
0.0
 11
30.9389459305
 21
-71.5
 31
0.0
  0
LINE
  5
D4
330
1F
100
AcDbEntity
  8
SLD-0
100
AcDbLine
 10
30.9389459305
 20
-71.5
 30
0.0
 11
33.9389459305
 21
-71.5
 31
0.0
  0
LINE
  5
D5
330
1F
100
AcDbEntity
  8
SLD-0
100
AcDbLine
 10
33.9389459305
 20
-71.5
 30
0.0
 11
33.9389459305
 21
-81.5
 31
0.0
  0
LINE
  5
D6
330
1F
100
AcDbEntity
  8
SLD-0
100
AcDbLine
 10
0.0306894058
 20
-40.9217420068
 30
0.0
 11
0.0306894058
 21
-52.5
 31
0.0
  0
LINE
  5
D7
330
1F
100
AcDbEntity
  8
SLD-0
  6
Continuous
 62
   179
370
     0
100
AcDbLine
 10
-34.0
 20
-71.5
 30
0.0
 11
-34.0
 21
-81.5
 31
0.0
  0
LINE
  5
D8
330
1F
100
AcDbEntity
  8
SLD-0
  6
Continuous
 62
   179
370
     0
100
AcDbLine
 10
-31.0
 20
-71.5
 30
0.0
 11
-34.0
 21
-71.5
 31
0.0
  0
LINE
  5
D9
330
1F
100
AcDbEntity
  8
SLD-0
  6
Continuous
 62
   179
370
     0
100
AcDbLine
 10
-31.0
 20
-76.5000473384
 30
0.0
 11
-31.0
 21
-71.5
 31
0.0
  0
LINE
  5
DA
330
1F
100
AcDbEntity
  8
SLD-0
  6
Continuous
 62
   179
370
     0
100
AcDbLine
 10
-31.0
 20
-81.5
 30
0.0
 11
-31.0
 21
-76.5000473384
 31
0.0
  0
LINE
  5
DB
330
1F
100
AcDbEntity
  8
SLD-0
  6
Continuous
 62
   179
370
     0
100
AcDbLine
 10
-34.0
 20
-81.5
 30
0.0
 11
-31.0
 21
-81.5
 31
0.0
  0
LINE
  5
DC
330
1F
100
AcDbEntity
  8
SLD-0
  6
Continuous
 62
   179
370
     0
100
AcDbLine
 10
34.0
 20
-168.3718489656
 30
0.0
 11
31.0
 21
-168.3718489656
 31
0.0
  0
LINE
  5
DD
330
1F
100
AcDbEntity
  8
SLD-0
100
AcDbLine
 10
0.0
 20
-180.9258485645
 30
0.0
 11
-15.0
 21
-180.9258485645
 31
0.0
  0
LINE
  5
DE
330
1F
100
AcDbEntity
  8
SLD-0
100
AcDbLine
 10
-15.0
 20
-180.9258485645
 30
0.0
 11
-15.0
 21
-178.9258485645
 31
0.0
  0
LINE
  5
DF
330
1F
100
AcDbEntity
  8
SLD-0
100
AcDbLine
 10
-15.0
 20
-178.9258485645
 30
0.0
 11
15.0
 21
-178.9258485645
 31
0.0
  0
LINE
  5
E0
330
1F
100
AcDbEntity
  8
SLD-0
100
AcDbLine
 10
15.0
 20
-178.9258485645
 30
0.0
 11
15.0
 21
-180.9258485645
 31
0.0
  0
LINE
  5
E1
330
1F
100
AcDbEntity
  8
SLD-0
100
AcDbLine
 10
15.0
 20
-180.9258485645
 30
0.0
 11
0.0
 21
-180.9258485645
 31
0.0
  0
LINE
  5
E2
330
1F
100
AcDbEntity
  8
0
  6
Continuous
 62
   179
370
     0
100
AcDbLine
 10
-15.0191501841
 20
-231.0756791846
 30
0.0
 11
-5.0191501841
 21
-231.0756791846
 31
0.0
  0
LINE
  5
E3
330
1F
100
AcDbEntity
  8
0
  6
Continuous
 62
   179
370
     0
100
AcDbLine
 10
-31.0
 20
-236.0606275248
 30
0.0
 11
-31.0
 21
-246.0606275248
 31
0.0
  0
LINE
  5
E4
330
1F
100
AcDbEntity
  8
0
  6
Continuous
 62
   179
370
     0
100
AcDbLine
 10
95.5
 20
-228.0606209499
 30
0.0
 11
95.5
 21
-231.0606209499
 31
0.0
  0
LINE
  5
E5
330
1F
100
AcDbEntity
  8
0
  6
Continuous
 62
   179
370
     0
100
AcDbLine
 10
34.0
 20
-246.0606275248
 30
0.0
 11
31.0
 21
-246.0606275248
 31
0.0
  0
LINE
  5
E6
330
1F
100
AcDbEntity
  8
0
  6
Continuous
 62
   179
370
     0
100
AcDbLine
 10
-25.0191501841
 20
-228.0756791846
 30
0.0
 11
-15.0191501841
 21
-228.0756791846
 31
0.0
  0
LINE
  5
E7
330
1F
100
AcDbEntity
  8
0
  6
Continuous
 62
   179
370
     0
100
AcDbLine
 10
69.0
 20
-236.0606209499
 30
0.0
 11
72.0
 21
-236.0606209499
 31
0.0
  0
LINE
  5
E8
330
1F
100
AcDbEntity
  8
0
  6
Continuous
 62
   179
370
     0
100
AcDbLine
 10
14.9808498159
 20
-228.0756791846
 30
0.0
 11
24.9808498159
 21
-228.0756791846
 31
0.0
  0
LINE
  5
E9
330
1F
100
AcDbEntity
  8
0
  6
Continuous
 62
   179
370
     0
100
AcDbLine
 10
69.0
 20
-246.0606209499
 30
0.0
 11
72.0
 21
-246.0606209499
 31
0.0
  0
LINE
  5
EA
330
1F
100
AcDbEntity
  8
0
  6
Continuous
 62
   179
370
     0
100
AcDbLine
 10
34.0
 20
-236.0606275248
 30
0.0
 11
31.0
 21
-236.0606275248
 31
0.0
  0
LINE
  5
EB
330
1F
100
AcDbEntity
  8
SLD-0
100
AcDbLine
 10
137.3138535439
 20
-65.7500473384
 30
0.0
 11
137.3138535439
 21
-107.2500473384
 31
0.0
  0
LINE
  5
EC
330
1F
100
AcDbEntity
  8
SLD-0
100
AcDbLine
 10
216.6040163284
 20
-65.7500473384
 30
0.0
 11
216.6040163284
 21
-107.2500473384
 31
0.0
  0
LINE
  5
ED
330
1F
100
AcDbEntity
  8
SLD-0
  6
Continuous
 62
   179
370
     0
100
AcDbLine
 10
187.3468760488
 20
-97.7453439267
 30
0.0
 11
187.3468760488
 21
-107.7453439267
 31
0.0
  0
LINE
  5
EE
330
1F
100
AcDbEntity
  8
SLD-0
100
AcDbLine
 10
214.8590163284
 20
-62.7500473384
 30
0.0
 11
205.9728113449
 21
-62.7500473384
 31
0.0
  0
LINE
  5
EF
330
1F
100
AcDbEntity
  8
SLD-0
100
AcDbLine
 10
167.8490163284
 20
-115.9000473384
 30
0.0
 11
170.8490163284
 21
-115.9000473384
 31
0.0
  0
LINE
  5
F0
330
1F
100
AcDbEntity
  8
SLD-0
100
AcDbLine
 10
167.8490163284
 20
-57.1000473384
 30
0.0
 11
167.8490163284
 21
-65.1000473384
 31
0.0
  0
LINE
  5
F1
330
1F
100
AcDbEntity
  8
SLD-0
  6
Continuous
 62
   179
370
     0
100
AcDbLine
 10
187.3468760488
 20
-97.7453439267
 30
0.0
 11
190.3468760487
 21
-97.7453439267
 31
0.0
  0
LINE
  5
F2
330
1F
100
AcDbEntity
  8
SLD-0
100
AcDbLine
 10
167.8490163284
 20
-57.1000473384
 30
0.0
 11
170.8490163284
 21
-57.1000473384
 31
0.0
  0
LINE
  5
F3
330
1F
100
AcDbEntity
  8
SLD-0
  6
Continuous
 62
   179
370
     0
100
AcDbLine
 10
190.3468760487
 20
-97.7453439267
 30
0.0
 11
190.3468760487
 21
-107.7453439267
 31
0.0
  0
LINE
  5
F4
330
1F
100
AcDbEntity
  8
SLD-0
100
AcDbLine
 10
170.8490163284
 20
-65.1000473384
 30
0.0
 11
170.8490163284
 21
-107.9000473384
 31
0.0
  0
LINE
  5
F5
330
1F
100
AcDbEntity
  8
SLD-0
100
AcDbLine
 10
222.3490163284
 20
-66.5450989071
 30
0.0
 11
222.3490163284
 21
-86.5000473384
 31
0.0
  0
LINE
  5
F6
330
1F
100
AcDbEntity
  8
SLD-0
100
AcDbLine
 10
187.3468760488
 20
-75.7453439267
 30
0.0
 11
187.3468760488
 21
-65.7453439267
 31
0.0
  0
LINE
  5
F7
330
1F
100
AcDbEntity
  8
SLD-0
  6
Continuous
 62
   179
370
     0
100
AcDbLine
 10
222.3490163284
 20
-106.4549957696
 30
0.0
 11
222.3490163284
 21
-86.5000473384
 31
0.0
  0
LINE
  5
F8
330
1F
100
AcDbEntity
  8
SLD-0
  6
Continuous
 62
   179
370
     0
100
AcDbLine
 10
170.8490163284
 20
-115.9000473384
 30
0.0
 11
201.4017172073
 21
-115.9000473384
 31
0.0
  0
LINE
  5
F9
330
1F
100
AcDbEntity
  8
SLD-0
  6
Continuous
 62
   179
370
     0
100
AcDbLine
 10
201.4017172073
 20
-115.9000473384
 30
0.0
 11
208.3886178327
 21
-122.8869479638
 31
0.0
  0
LINE
  5
FA
330
1F
100
AcDbEntity
  8
SLD-0
  6
Continuous
 62
   179
370
     0
100
AcDbLine
 10
214.8590163284
 20
-107.2500473384
 30
0.0
 11
214.8590163284
 21
-110.2500473384
 31
0.0
  0
LINE
  5
FB
330
1F
100
AcDbEntity
  8
SLD-0
100
AcDbLine
 10
205.9728113449
 20
-110.2500473384
 30
0.0
 11
202.8957758965
 21
-106.9461553044
 31
0.0
  0
LINE
  5
FC
330
1F
100
AcDbEntity
  8
SLD-0
100
AcDbLine
 10
205.9728113449
 20
-62.7500473384
 30
0.0
 11
202.8957758965
 21
-66.0539393723
 31
0.0
  0
LINE
  5
FD
330
1F
100
AcDbEntity
  8
SLD-0
100
AcDbLine
 10
190.3468760487
 20
-75.7453439267
 30
0.0
 11
190.3468760487
 21
-65.7453439267
 31
0.0
  0
LINE
  5
FE
330
1F
100
AcDbEntity
  8
SLD-0
100
AcDbLine
 10
214.8590163284
 20
-65.7500473384
 30
0.0
 11
214.8590163284
 21
-62.7500473384
 31
0.0
  0
LINE
  5
FF
330
1F
100
AcDbEntity
  8
SLD-0
  6
Continuous
 62
   179
370
     0
100
AcDbLine
 10
187.3468760488
 20
-107.7453439267
 30
0.0
 11
190.3468760487
 21
-107.7453439267
 31
0.0
  0
LINE
  5
100
330
1F
100
AcDbEntity
  8
SLD-0
100
AcDbLine
 10
135.5688535439
 20
-65.7500473384
 30
0.0
 11
137.3138535439
 21
-65.7500473384
 31
0.0
  0
LINE
  5
101
330
1F
100
AcDbEntity
  8
SLD-0
100
AcDbLine
 10
201.4017172073
 20
-57.1000473384
 30
0.0
 11
208.3886178327
 21
-50.1131467129
 31
0.0
  0
LINE
  5
102
330
1F
100
AcDbEntity
  8
SLD-0
100
AcDbLine
 10
135.5688535439
 20
-107.2500473384
 30
0.0
 11
137.3138535439
 21
-107.2500473384
 31
0.0
  0
LINE
  5
103
330
1F
100
AcDbEntity
  8
SLD-0
100
AcDbLine
 10
214.8590163284
 20
-65.7500473384
 30
0.0
 11
216.6040163284
 21
-65.7500473384
 31
0.0
  0
LINE
  5
104
330
1F
100
AcDbEntity
  8
SLD-0
100
AcDbLine
 10
187.3468760488
 20
-75.7453439267
 30
0.0
 11
190.3468760487
 21
-75.7453439267
 31
0.0
  0
LINE
  5
105
330
1F
100
AcDbEntity
  8
SLD-0
100
AcDbLine
 10
167.8490163284
 20
-107.9000473384
 30
0.0
 11
167.8490163284
 21
-115.9000473384
 31
0.0
  0
LINE
  5
106
330
1F
100
AcDbEntity
  8
SLD-0
100
AcDbLine
 10
214.8590163284
 20
-110.2500473384
 30
0.0
 11
205.9728113449
 21
-110.2500473384
 31
0.0
  0
LINE
  5
107
330
1F
100
AcDbEntity
  8
SLD-0
100
AcDbLine
 10
167.8490163284
 20
-65.1000473384
 30
0.0
 11
170.8490163284
 21
-65.1000473384
 31
0.0
  0
LINE
  5
108
330
1F
100
AcDbEntity
  8
SLD-0
100
AcDbLine
 10
167.8490163284
 20
-107.9000473384
 30
0.0
 11
170.8490163284
 21
-107.9000473384
 31
0.0
  0
LINE
  5
109
330
1F
100
AcDbEntity
  8
SLD-0
100
AcDbLine
 10
170.8490163284
 20
-57.1000473384
 30
0.0
 11
201.4017172073
 21
-57.1000473384
 31
0.0
  0
LINE
  5
10A
330
1F
100
AcDbEntity
  8
SLD-0
100
AcDbLine
 10
187.3468760488
 20
-65.7453439267
 30
0.0
 11
190.3468760487
 21
-65.7453439267
 31
0.0
  0
LINE
  5
10B
330
1F
100
AcDbEntity
  8
SLD-0
100
AcDbLine
 10
214.8590163284
 20
-107.2500473384
 30
0.0
 11
216.6040163284
 21
-107.2500473384
 31
0.0
  0
LINE
  5
10C
330
1F
100
AcDbEntity
  8
SLD-0
100
AcDbLine
 10
40.6639199069
 20
7.3713939573
 30
0.0
 11
108.6639199069
 21
7.3713939573
 31
0.0
  0
LINE
  5
10D
330
1F
100
AcDbEntity
  8
SLD-0
100
AcDbLine
 10
40.6639199069
 20
-34.6286060427
 30
0.0
 11
108.6639199069
 21
-34.6286060427
 31
0.0
  0
LINE
  5
10E
330
1F
100
AcDbEntity
  8
SLD-0
100
AcDbLine
 10
40.6639199069
 20
7.3713939573
 30
0.0
 11
40.6639199069
 21
-2.6286060427
 31
0.0
  0
LINE
  5
10F
330
1F
100
AcDbEntity
  8
SLD-0
100
AcDbLine
 10
40.6639199069
 20
-2.6286060427
 30
0.0
 11
43.6639199069
 21
-2.6286060427
 31
0.0
  0
LINE
  5
110
330
1F
100
AcDbEntity
  8
SLD-0
100
AcDbLine
 10
0.3343619748
 20
-31.7067830201
 30
0.0
 11
0.3343619748
 21
-38.4217420068
 31
0.0
  0
LINE
  5
111
330
1F
100
AcDbEntity
  8
SLD-0
  6
Continuous
 62
   179
370
     0
100
AcDbLine
 10
40.6639199069
 20
-24.6286060427
 30
0.0
 11
43.6639199069
 21
-24.6286060427
 31
0.0
  0
LINE
  5
112
330
1F
100
AcDbEntity
  8
SLD-0
  6
Continuous
 62
   179
370
     0
100
AcDbLine
 10
40.6639199069
 20
-34.6286060427
 30
0.0
 11
40.6639199069
 21
-24.6286060427
 31
0.0
  0
LINE
  5
113
330
1F
100
AcDbEntity
  8
SLD-0
  6
Continuous
 62
   179
370
     0
100
AcDbLine
 10
105.6639199069
 20
-2.6286060427
 30
0.0
 11
105.6639199069
 21
-24.6286060427
 31
0.0
  0
LINE
  5
114
330
1F
100
AcDbEntity
  8
SLD-0
100
AcDbLine
 10
43.6639199069
 20
-2.6286060427
 30
0.0
 11
43.6639199069
 21
-24.6286060427
 31
0.0
  0
LINE
  5
115
330
1F
100
AcDbEntity
  8
SLD-0
  6
Continuous
 62
   179
370
     0
100
AcDbLine
 10
108.6639199069
 20
-34.6286060427
 30
0.0
 11
108.6639199069
 21
-24.6286060427
 31
0.0
  0
LINE
  5
116
330
1F
100
AcDbEntity
  8
SLD-0
  6
Continuous
 62
   179
370
     0
100
AcDbLine
 10
108.6639199069
 20
-24.6286060427
 30
0.0
 11
105.6639199069
 21
-24.6286060427
 31
0.0
  0
LINE
  5
117
330
1F
100
AcDbEntity
  8
SLD-0
  6
Continuous
 62
   179
370
     0
100
AcDbLine
 10
108.6639199069
 20
-2.6286060427
 30
0.0
 11
105.6639199069
 21
-2.6286060427
 31
0.0
  0
LINE
  5
118
330
1F
100
AcDbEntity
  8
SLD-0
  6
Continuous
 62
   179
370
     0
100
AcDbLine
 10
108.6639199069
 20
7.3713939573
 30
0.0
 11
108.6639199069
 21
-2.6286060427
 31
0.0
  0
LINE
  5
119
330
1F
100
AcDbEntity
  8
SLD-0
100
AcDbLine
 10
58.6639199069
 20
-2.6286060427
 30
0.0
 11
90.6639199069
 21
-2.6286060427
 31
0.0
  0
LINE
  5
11A
330
1F
100
AcDbEntity
  8
SLD-0
100
AcDbLine
 10
58.6639199069
 20
-2.6286060427
 30
0.0
 11
58.6639199069
 21
-24.6286060427
 31
0.0
  0
LINE
  5
11B
330
1F
100
AcDbEntity
  8
SLD-0
100
AcDbLine
 10
58.6639199069
 20
-24.6286060427
 30
0.0
 11
90.6639199069
 21
-24.6286060427
 31
0.0
  0
LINE
  5
11C
330
1F
100
AcDbEntity
  8
SLD-0
100
AcDbLine
 10
90.6639199069
 20
-2.6286060427
 30
0.0
 11
90.6639199069
 21
-24.6286060427
 31
0.0
  0
LINE
  5
11D
330
1F
100
AcDbEntity
  8
SLD-0
100
AcDbLine
 10
-11.6656380252
 20
-35.4217420068
 30
0.0
 11
0.3343619748
 21
-35.4217420068
 31
0.0
  0
LINE
  5
11E
330
1F
100
AcDbEntity
  8
0
  6
Continuous
 62
   179
370
     0
100
AcDbLine
 10
108.0567132642
 20
-97.7453439267
 30
0.0
 11
108.0567132642
 21
-107.7453439267
 31
0.0
  0
LINE
  5
11F
330
1F
100
AcDbEntity
  8
0
  6
Continuous
 62
   179
370
     0
100
AcDbLine
 10
135.5688535439
 20
-62.7500473384
 30
0.0
 11
126.6826485604
 21
-62.7500473384
 31
0.0
  0
LINE
  5
120
330
1F
100
AcDbEntity
  8
0
  6
Continuous
 62
   179
370
     0
100
AcDbLine
 10
88.5588535439
 20
-115.9000473384
 30
0.0
 11
91.5588535439
 21
-115.9000473384
 31
0.0
  0
LINE
  5
121
330
1F
100
AcDbEntity
  8
0
  6
Continuous
 62
   179
370
     0
100
AcDbLine
 10
88.5588535439
 20
-57.1000473384
 30
0.0
 11
88.5588535439
 21
-65.1000473384
 31
0.0
  0
LINE
  5
122
330
1F
100
AcDbEntity
  8
0
  6
Continuous
 62
   179
370
     0
100
AcDbLine
 10
108.0567132642
 20
-97.7453439267
 30
0.0
 11
111.0567132642
 21
-97.7453439267
 31
0.0
  0
LINE
  5
123
330
1F
100
AcDbEntity
  8
0
  6
Continuous
 62
   179
370
     0
100
AcDbLine
 10
88.5588535439
 20
-57.1000473384
 30
0.0
 11
91.5588535439
 21
-57.1000473384
 31
0.0
  0
LINE
  5
124
330
1F
100
AcDbEntity
  8
0
  6
Continuous
 62
   179
370
     0
100
AcDbLine
 10
111.0567132642
 20
-97.7453439267
 30
0.0
 11
111.0567132642
 21
-107.7453439267
 31
0.0
  0
LINE
  5
125
330
1F
100
AcDbEntity
  8
0
  6
Continuous
 62
   179
370
     0
100
AcDbLine
 10
91.5588535439
 20
-65.1000473384
 30
0.0
 11
91.5588535439
 21
-107.9000473384
 31
0.0
  0
LINE
  5
126
330
1F
100
AcDbEntity
  8
0
  6
Continuous
 62
   179
370
     0
100
AcDbLine
 10
143.0588535439
 20
-66.5450989071
 30
0.0
 11
143.0588535439
 21
-86.5000473384
 31
0.0
  0
LINE
  5
127
330
1F
100
AcDbEntity
  8
0
  6
Continuous
 62
   179
370
     0
100
AcDbLine
 10
108.0567132642
 20
-75.7453439267
 30
0.0
 11
108.0567132642
 21
-65.7453439267
 31
0.0
  0
LINE
  5
128
330
1F
100
AcDbEntity
  8
0
  6
Continuous
 62
   179
370
     0
100
AcDbLine
 10
143.0588535439
 20
-106.4549957696
 30
0.0
 11
143.0588535439
 21
-86.5000473384
 31
0.0
  0
LINE
  5
129
330
1F
100
AcDbEntity
  8
0
  6
Continuous
 62
   179
370
     0
100
AcDbLine
 10
91.5588535439
 20
-115.9000473384
 30
0.0
 11
122.1115544227
 21
-115.9000473384
 31
0.0
  0
LINE
  5
12A
330
1F
100
AcDbEntity
  8
0
  6
Continuous
 62
   179
370
     0
100
AcDbLine
 10
122.1115544227
 20
-115.9000473384
 30
0.0
 11
129.0984550482
 21
-122.8869479638
 31
0.0
  0
LINE
  5
12B
330
1F
100
AcDbEntity
  8
0
  6
Continuous
 62
   179
370
     0
100
AcDbLine
 10
135.5688535439
 20
-107.2500473384
 30
0.0
 11
135.5688535439
 21
-110.2500473384
 31
0.0
  0
LINE
  5
12C
330
1F
100
AcDbEntity
  8
0
  6
Continuous
 62
   179
370
     0
100
AcDbLine
 10
126.6826485604
 20
-110.2500473384
 30
0.0
 11
123.6056131119
 21
-106.9461553044
 31
0.0
  0
LINE
  5
12D
330
1F
100
AcDbEntity
  8
0
  6
Continuous
 62
   179
370
     0
100
AcDbLine
 10
126.6826485604
 20
-62.7500473384
 30
0.0
 11
123.6056131119
 21
-66.0539393723
 31
0.0
  0
LINE
  5
12E
330
1F
100
AcDbEntity
  8
0
  6
Continuous
 62
   179
370
     0
100
AcDbLine
 10
111.0567132642
 20
-75.7453439267
 30
0.0
 11
111.0567132642
 21
-65.7453439267
 31
0.0
  0
LINE
  5
12F
330
1F
100
AcDbEntity
  8
0
  6
Continuous
 62
   179
370
     0
100
AcDbLine
 10
135.5688535439
 20
-65.7500473384
 30
0.0
 11
135.5688535439
 21
-62.7500473384
 31
0.0
  0
LINE
  5
130
330
1F
100
AcDbEntity
  8
0
  6
Continuous
 62
   179
370
     0
100
AcDbLine
 10
108.0567132642
 20
-107.7453439267
 30
0.0
 11
111.0567132642
 21
-107.7453439267
 31
0.0
  0
LINE
  5
131
330
1F
100
AcDbEntity
  8
0
  6
Continuous
 62
   179
370
     0
100
AcDbLine
 10
122.1115544227
 20
-57.1000473384
 30
0.0
 11
129.0984550482
 21
-50.1131467129
 31
0.0
  0
LINE
  5
132
330
1F
100
AcDbEntity
  8
0
  6
Continuous
 62
   179
370
     0
100
AcDbLine
 10
108.0567132642
 20
-75.7453439267
 30
0.0
 11
111.0567132642
 21
-75.7453439267
 31
0.0
  0
LINE
  5
133
330
1F
100
AcDbEntity
  8
0
  6
Continuous
 62
   179
370
     0
100
AcDbLine
 10
88.5588535439
 20
-107.9000473384
 30
0.0
 11
88.5588535439
 21
-115.9000473384
 31
0.0
  0
LINE
  5
134
330
1F
100
AcDbEntity
  8
0
  6
Continuous
 62
   179
370
     0
100
AcDbLine
 10
135.5688535439
 20
-110.2500473384
 30
0.0
 11
126.6826485604
 21
-110.2500473384
 31
0.0
  0
LINE
  5
135
330
1F
100
AcDbEntity
  8
0
  6
Continuous
 62
   179
370
     0
100
AcDbLine
 10
88.5588535439
 20
-65.1000473384
 30
0.0
 11
91.5588535439
 21
-65.1000473384
 31
0.0
  0
LINE
  5
136
330
1F
100
AcDbEntity
  8
0
  6
Continuous
 62
   179
370
     0
100
AcDbLine
 10
88.5588535439
 20
-107.9000473384
 30
0.0
 11
91.5588535439
 21
-107.9000473384
 31
0.0
  0
LINE
  5
137
330
1F
100
AcDbEntity
  8
0
  6
Continuous
 62
   179
370
     0
100
AcDbLine
 10
91.5588535439
 20
-57.1000473384
 30
0.0
 11
122.1115544227
 21
-57.1000473384
 31
0.0
  0
LINE
  5
138
330
1F
100
AcDbEntity
  8
0
  6
Continuous
 62
   179
370
     0
100
AcDbLine
 10
108.0567132642
 20
-65.7453439267
 30
0.0
 11
111.0567132642
 21
-65.7453439267
 31
0.0
  0
LINE
  5
139
330
1F
100
AcDbEntity
  8
SLD-0
100
AcDbLine
 10
-21.6656380252
 20
-35.4217420068
 30
0.0
 11
-11.6656380252
 21
-35.4217420068
 31
0.0
  0
LINE
  5
13A
330
1F
100
AcDbEntity
  8
SLD-0
100
AcDbLine
 10
-21.6656380252
 20
-35.4217420068
 30
0.0
 11
-21.6656380252
 21
-38.4217420068
 31
0.0
  0
LINE
  5
13B
330
1F
100
AcDbEntity
  8
SLD-0
100
AcDbLine
 10
-21.6656380252
 20
-38.4217420068
 30
0.0
 11
-11.6656380252
 21
-38.4217420068
 31
0.0
  0
LINE
  5
13C
330
1F
100
AcDbEntity
  8
SLD-0
100
AcDbLine
 10
-11.6656380252
 20
-35.4217420068
 30
0.0
 11
-11.6656380252
 21
-38.4217420068
 31
0.0
  0
LINE
  5
13D
330
1F
100
AcDbEntity
  8
SLD-0
  6
Continuous
 62
   179
370
     0
100
AcDbLine
 10
12.3343619748
 20
-35.4217420068
 30
0.0
 11
12.3343619748
 21
-38.4217420068
 31
0.0
  0
LINE
  5
13E
330
1F
100
AcDbEntity
  8
SLD-0
  6
Continuous
 62
   179
370
     0
100
AcDbLine
 10
22.3343619748
 20
-38.4217420068
 30
0.0
 11
12.3343619748
 21
-38.4217420068
 31
0.0
  0
LINE
  5
13F
330
1F
100
AcDbEntity
  8
SLD-0
  6
Continuous
 62
   179
370
     0
100
AcDbLine
 10
22.3343619748
 20
-35.4217420068
 30
0.0
 11
22.3343619748
 21
-38.4217420068
 31
0.0
  0
LINE
  5
140
330
1F
100
AcDbEntity
  8
SLD-0
  6
Continuous
 62
   179
370
     0
100
AcDbLine
 10
22.3343619748
 20
-35.4217420068
 30
0.0
 11
12.3343619748
 21
-35.4217420068
 31
0.0
  0
LINE
  5
141
330
1F
100
AcDbEntity
  8
SLD-0
  6
Continuous
 62
   179
370
     0
100
AcDbLine
 10
20.6874674641
 20
48.4227983858
 30
0.0
 11
20.6874674641
 21
41.4227983858
 31
0.0
  0
LINE
  5
142
330
1F
100
AcDbEntity
  8
SLD-0
  6
Continuous
 62
   179
370
     0
100
AcDbLine
 10
23.6874674641
 20
41.4227983858
 30
0.0
 11
20.6874674641
 21
41.4227983858
 31
0.0
  0
LINE
  5
143
330
1F
100
AcDbEntity
  8
SLD-0
100
AcDbLine
 10
-23.7485215337
 20
48.4227983858
 30
0.0
 11
-20.7485215337
 21
48.4227983858
 31
0.0
  0
LINE
  5
144
330
1F
100
AcDbEntity
  8
SLD-0
100
AcDbLine
 10
-23.7485215337
 20
48.4227983858
 30
0.0
 11
-23.7485215337
 21
41.4227983858
 31
0.0
  0
LINE
  5
145
330
1F
100
AcDbEntity
  8
SLD-0
100
AcDbLine
 10
-23.7485215337
 20
41.4227983858
 30
0.0
 11
-20.7485215337
 21
41.4227983858
 31
0.0
  0
LINE
  5
146
330
1F
100
AcDbEntity
  8
SLD-0
100
AcDbLine
 10
-20.7485215337
 20
48.4227983858
 30
0.0
 11
-20.7485215337
 21
41.4227983858
 31
0.0
  0
LINE
  5
147
330
1F
100
AcDbEntity
  8
SLD-0
  6
Continuous
 62
   179
370
     0
100
AcDbLine
 10
23.6874674641
 20
48.4227983858
 30
0.0
 11
23.6874674641
 21
41.4227983858
 31
0.0
  0
LINE
  5
148
330
1F
100
AcDbEntity
  8
SLD-0
  6
Continuous
 62
   179
370
     0
100
AcDbLine
 10
23.6874674641
 20
48.4227983858
 30
0.0
 11
20.6874674641
 21
48.4227983858
 31
0.0
  0
LINE
  5
149
330
1F
100
AcDbEntity
  8
SLD-0
100
AcDbLine
 10
-1.5
 20
41.4227983858
 30
0.0
 11
1.5
 21
41.4227983858
 31
0.0
  0
LINE
  5
14A
330
1F
100
AcDbEntity
  8
SLD-0
100
AcDbLine
 10
-1.5
 20
41.4227983858
 30
0.0
 11
-1.5
 21
48.4227983858
 31
0.0
  0
LINE
  5
14B
330
1F
100
AcDbEntity
  8
SLD-0
100
AcDbLine
 10
-1.5
 20
48.4227983858
 30
0.0
 11
1.5
 21
48.4227983858
 31
0.0
  0
LINE
  5
14C
330
1F
100
AcDbEntity
  8
SLD-0
100
AcDbLine
 10
1.5
 20
41.4227983858
 30
0.0
 11
1.5
 21
48.4227983858
 31
0.0
  0
CIRCLE
  5
14D
330
1F
100
AcDbEntity
  8
SLD-0
100
AcDbCircle
 10
-34.92
 20
47.5123382643
 30
0.0
 40
1.500000000000008
  0
CIRCLE
  5
14E
330
1F
100
AcDbEntity
  8
SLD-0
100
AcDbCircle
 10
34.92
 20
47.5123382643
 30
0.0
 40
1.500000000000001
  0
CIRCLE
  5
14F
330
1F
100
AcDbEntity
  8
SLD-0
100
AcDbCircle
 10
-15.0
 20
44.9227983858
 30
0.0
 40
2.999999999999999
  0
ARC
  5
150
330
1F
100
AcDbEntity
  8
SLD-0
100
AcDbCircle
 10
206.9477343537
 20
-65.4835783028
 30
0.0
 40
15.43782084554545
100
AcDbArc
 50
356.0571714847
 51
84.6445240877
  0
CIRCLE
  5
151
330
1F
100
AcDbEntity
  8
SLD-0
100
AcDbCircle
 10
24.1843619748
 20
22.2432169799
 30
0.0
 40
1.5
  0
CIRCLE
  5
152
330
1F
100
AcDbEntity
  8
SLD-0
100
AcDbCircle
 10
-19.3156380252
 20
-28.6067830201
 30
0.0
 40
1.500000000000002
  0
ARC
  5
153
330
1F
100
AcDbEntity
  8
SLD-0
  6
Continuous
 62
   179
370
     0
100
AcDbCircle
 10
206.9477343537
 20
-107.5165163739
 30
0.0
 40
15.43782084554545
100
AcDbArc
 50
275.3554759123
 51
3.9428285153
  0
ARC
  5
154
330
1F
100
AcDbEntity
  8
SLD-0
100
AcDbCircle
 10
224.8492874388
 20
-86.5000473384
 30
0.0
 40
30.00000000000012
100
AcDbArc
 50
137.0361385989
 51
222.9638614011
  0
CIRCLE
  5
155
330
1F
100
AcDbEntity
  8
SLD-0
100
AcDbCircle
 10
8.6843619748
 20
-28.6067830201
 30
0.0
 40
1.5
  0
CIRCLE
  5
156
330
1F
100
AcDbEntity
  8
SLD-0
100
AcDbCircle
 10
-23.8156380252
 20
22.24321698
 30
0.0
 40
1.500000000000003
  0
CIRCLE
  5
157
330
1F
100
AcDbEntity
  8
SLD-0
100
AcDbCircle
 10
-25.0
 20
-6.0
 30
0.0
 40
1.499999999999999
  0
CIRCLE
  5
158
330
1F
100
AcDbEntity
  8
SLD-0
100
AcDbCircle
 10
25.0
 20
-6.0
 30
0.0
 40
1.499999999999999
  0
ARC
  5
159
330
1F
100
AcDbEntity
  8
0
  6
Continuous
 62
   179
370
     0
100
AcDbCircle
 10
127.6575715691
 20
-65.4835783028
 30
0.0
 40
15.43782084554546
100
AcDbArc
 50
356.0571714847
 51
84.6445240877
  0
ARC
  5
15A
330
1F
100
AcDbEntity
  8
0
  6
Continuous
 62
   179
370
     0
100
AcDbCircle
 10
127.6575715691
 20
-107.5165163739
 30
0.0
 40
15.43782084554545
100
AcDbArc
 50
275.3554759123
 51
3.9428285153
  0
ARC
  5
15B
330
1F
100
AcDbEntity
  8
0
  6
Continuous
 62
   179
370
     0
100
AcDbCircle
 10
145.5591246543
 20
-86.5000473384
 30
0.0
 40
30.00000000000011
100
AcDbArc
 50
137.0361385989
 51
222.9638614011
  0
DIMENSION
  5
15C
330
1F
100
AcDbEntity
  8
SLD-0
100
AcDbDimension
  2
_D
 10
39.0
 20
57.9576490841
 30
0.0
 11
12.537077353
 21
57.9576490841
 31
0.0
 70
   160
  1
<>
 71
     2
 42
-1.0
  3
SLDDIMSTYLE0
100
AcDbAlignedDimension
 13
-39.0
 23
52.0246765285
 33
0.0
 14
39.0
 24
52.0246765285
 34
0.0
 50
0.0
100
AcDbRotatedDimension
  0
DIMENSION
  5
169
330
1F
100
AcDbEntity
  8
SLD-0
100
AcDbDimension
  2
_D_1
 10
-26.3156380252
 20
26.2810096727
 30
0.0
 11
-8.4935695098
 21
26.2810096727
 31
0.0
 70
   160
  1
<>
 71
     2
 42
-1.0
  3
SLDDIMSTYLE0
100
AcDbAlignedDimension
 13
24.1843619748
 23
22.2432169799
 33
0.0
 14
-26.3156380252
 24
36.8932169799
 34
0.0
 50
0.0
100
AcDbRotatedDimension
  0
DIMENSION
  5
173
330
1F
100
AcDbEntity
  8
SLD-0
100
AcDbDimension
  2
_D_2
 10
-26.3156380252
 20
-23.1733474538
 30
0.0
 11
-15.7712953795
 21
-23.1733474538
 31
0.0
 70
   160
  1
<>
 71
     2
 42
-1.0
  3
SLDDIMSTYLE1
100
AcDbAlignedDimension
 13
-19.3156380252
 23
-28.6067830201
 33
0.0
 14
-26.3156380252
 24
-31.7067830201
 34
0.0
100
AcDbRotatedDimension
  0
DIMENSION
  5
180
330
1F
100
AcDbEntity
  8
0
  6
Continuous
 62
     7
370
     0
100
AcDbDimension
  2
_D_3
 10
-25.0
 20
-95.0
 30
0.0
 11
-25.0
 21
-75.0
 31
0.0
 70
   160
  1
<>
 71
     1
 42
-1.0
  3
SLDDIMSTYLE2
100
AcDbAlignedDimension
 13
-25.0
 23
-55.0
 33
0.0
 14
-25.0
 24
-95.0
 34
0.0
 50
90.0
100
AcDbRotatedDimension
  0
DIMENSION
  5
18A
330
1F
100
AcDbEntity
  8
SLD-0
100
AcDbDimension
  2
_D_4
 10
-73.4315209418
 20
-95.0
 30
0.0
 11
-73.4315209418
 21
-75.0
 31
0.0
 70
   160
  1
<>
 71
     2
 42
-1.0
  3
SLDDIMSTYLE0
100
AcDbAlignedDimension
 13
-25.0
 23
-58.0
 33
0.0
 14
-25.0
 24
-95.0
 34
0.0
 50
90.0
100
AcDbRotatedDimension
  0
DIMENSION
  5
195
330
1F
100
AcDbEntity
  8
SLD-0
100
AcDbDimension
  2
_D_5
 10
85.5
 20
-154.8123901204
 30
0.0
 11
89.9546833242
 21
-154.8123901204
 31
0.0
 70
   160
  1
<>
 71
     2
 42
-1.0
  3
SLDDIMSTYLE1
100
AcDbAlignedDimension
 13
95.5
 23
-160.3718423907
 33
0.0
 14
85.5
 24
-160.3718423907
 34
0.0
 50
0.0
100
AcDbRotatedDimension
  0
DIMENSION
  5
1A2
330
1F
100
AcDbEntity
  8
SLD-0
100
AcDbDimension
  2
_D_6
 10
-52.6094710519
 20
-81.5
 30
0.0
 11
-52.6094710519
 21
-72.3368921833
 31
0.0
 70
   160
  1
<>
 71
     2
 42
-1.0
  3
SLDDIMSTYLE1
100
AcDbAlignedDimension
 13
-34.0
 23
-71.5
 33
0.0
 14
-34.0
 24
-81.5
 34
0.0
 50
90.0
100
AcDbRotatedDimension
  0
DIMENSION
  5
1AF
330
1F
100
AcDbEntity
  8
SLD-0
100
AcDbDimension
  2
_D_7
 10
-52.6094710519
 20
-52.6
 30
0.0
 11
-52.6094710519
 21
-42.2142835647
 31
0.0
 70
   160
  1
<>
 71
     2
 42
-1.0
  3
SLDDIMSTYLE0
100
AcDbAlignedDimension
 13
-34.0
 23
-44.6
 33
0.0
 14
-34.0
 24
-52.6
 34
0.0
 50
90.0
100
AcDbRotatedDimension
  0
DIMENSION
  5
1BB
330
1F
100
AcDbEntity
  8
SLD-0
100
AcDbDimension
  2
_D_8
 10
-56.4780872438
 20
-95.4
 30
0.0
 11
-56.4780872438
 21
-109.7033161865
 31
0.0
 70
   160
  1
<>
 71
     2
 42
-1.0
  3
SLDDIMSTYLE0
100
AcDbAlignedDimension
 13
-34.0
 23
-103.4
 33
0.0
 14
-34.0
 24
-95.4
 34
0.0
 50
90.0
100
AcDbRotatedDimension
  0
DIMENSION
  5
1C7
330
1F
100
AcDbEntity
  8
SLD-0
100
AcDbDimension
  2
_D_9
 10
-26.3156380252
 20
-25.073942827
 30
0.0
 11
4.5222383572
 21
-25.073942827
 31
0.0
 70
   160
  1
<>
 71
     2
 42
-1.0
  3
SLDDIMSTYLE0
100
AcDbAlignedDimension
 13
8.6843619748
 23
-28.6067830201
 33
0.0
 14
-26.3156380252
 24
-31.7067830201
 34
0.0
 50
0.0
100
AcDbRotatedDimension
  0
DIMENSION
  5
1D1
330
1F
100
AcDbEntity
  8
SLD-0
100
AcDbDimension
  2
_D_10
 10
-26.3156380252
 20
7.7537915104
 30
0.0
 11
-12.8887850092
 21
7.7537915104
 31
0.0
 70
   160
  1
<>
 71
     2
 42
-1.0
  3
SLDDIMSTYLE1
100
AcDbAlignedDimension
 13
-23.8156380252
 23
22.24321698
 33
0.0
 14
-26.3156380252
 24
36.8932169799
 34
0.0
100
AcDbRotatedDimension
  0
DIMENSION
  5
1DD
330
1F
100
AcDbEntity
  8
SLD-0
100
AcDbDimension
  2
_D_11
 10
15.0
 20
-176.717694803
 30
0.0
 11
0.901140214
 21
-176.717694803
 31
0.0
 70
   160
  1
<>
 71
     2
 42
-1.0
  3
SLDDIMSTYLE1
100
AcDbAlignedDimension
 13
-15.0
 23
-178.9258485645
 33
0.0
 14
15.0
 24
-178.9258485645
 34
0.0
100
AcDbRotatedDimension
  0
DIMENSION
  5
1EA
330
1F
100
AcDbEntity
  8
SLD-0
100
AcDbDimension
  2
_D_12
 10
-48.3456773255
 20
-178.3718489656
 30
0.0
 11
-48.3456773255
 21
-172.9497696892
 31
0.0
 70
   160
  1
<>
 71
     2
 42
-1.0
  3
SLDDIMSTYLE1
100
AcDbAlignedDimension
 13
-34.0
 23
-168.3718489656
 33
0.0
 14
-34.0
 24
-178.3718489656
 34
0.0
 50
90.0
100
AcDbRotatedDimension
  0
DIMENSION
  5
1F7
330
1F
100
AcDbEntity
  8
SLD-0
100
AcDbDimension
  2
_D_13
 10
49.3420856331
 20
-183.3869006254
 30
0.0
 11
49.3420856331
 21
-172.9497696892
 31
0.0
 70
   160
  1
<>
 71
     2
 42
-1.0
  3
SLDDIMSTYLE1
100
AcDbAlignedDimension
 13
36.0191501841
 23
-163.3869006254
 33
0.0
 14
36.0191501841
 24
-183.3869006254
 34
0.0
 50
90.0
100
AcDbRotatedDimension
  0
DIMENSION
  5
204
330
1F
100
AcDbEntity
  8
SLD-0
100
AcDbDimension
  2
_D_14
 10
-36.0191501841
 20
-154.8123901204
 30
0.0
 11
-33.8034618791
 21
-154.8123901204
 31
0.0
 70
   160
  1
<>
 71
     2
 42
-1.0
  3
SLDDIMSTYLE1
100
AcDbAlignedDimension
 13
-25.0191501841
 23
-163.3869006254
 33
0.0
 14
-36.0191501841
 24
-163.3869006254
 34
0.0
 50
0.0
100
AcDbRotatedDimension
  0
DIMENSION
  5
211
330
1F
100
AcDbEntity
  8
SLD-0
100
AcDbDimension
  2
_D_15
 10
31.0
 20
-195.8085153798
 30
0.0
 11
0.901140214
 21
-195.8085153798
 31
0.0
 70
   160
  1
<>
 71
     2
 42
-1.0
  3
SLDDIMSTYLE0
100
AcDbAlignedDimension
 13
-31.0
 23
-178.3718489656
 33
0.0
 14
31.0
 24
-178.3718489656
 34
0.0
100
AcDbRotatedDimension
  0
DIMENSION
  5
21C
330
1F
100
AcDbEntity
  8
SLD-0
100
AcDbDimension
  2
_D_16
 10
36.0191501841
 20
-209.1218507821
 30
0.0
 11
0.901140214
 21
-209.1218507821
 31
0.0
 70
   160
  1
<>
 71
     2
 42
-1.0
  3
SLDDIMSTYLE3
100
AcDbAlignedDimension
 13
-36.0191501841
 23
-183.3869006254
 33
0.0
 14
36.0191501841
 24
-183.3869006254
 34
0.0
 50
0.0
100
AcDbRotatedDimension
  0
DIMENSION
  5
228
330
1F
100
AcDbEntity
  8
SLD-0
100
AcDbDimension
  2
_D_17
 10
24.9808498159
 20
-154.8123901204
 30
0.0
 11
0.901140214
 21
-154.8123901204
 31
0.0
 70
   160
  1
<>
 71
     2
 42
-1.0
  3
SLDDIMSTYLE0
100
AcDbAlignedDimension
 13
-25.0191501841
 23
-160.3869006254
 33
0.0
 14
24.9808498159
 24
-160.3869006254
 34
0.0
100
AcDbRotatedDimension
  0
DIMENSION
  5
233
330
1F
100
AcDbEntity
  8
SLD-0
100
AcDbDimension
  2
_D_18
 10
109.0
 20
-195.8085153798
 30
0.0
 11
89.9546833242
 21
-195.8085153798
 31
0.0
 70
   160
  1
<>
 71
     2
 42
-1.0
  3
SLDDIMSTYLE0
100
AcDbAlignedDimension
 13
72.0
 23
-183.3718423907
 33
0.0
 14
109.0
 24
-183.3718423907
 34
0.0
100
AcDbRotatedDimension
  0
DIMENSION
  5
23E
330
1F
100
AcDbEntity
  8
SLD-0
100
AcDbDimension
  2
_D_19
 10
56.1977959729
 20
-95.0
 30
0.0
 11
56.1977959729
 21
-75.0
 31
0.0
 70
   160
  1
<>
 71
     2
 42
-1.0
  3
SLDDIMSTYLE0
100
AcDbAlignedDimension
 13
25.0
 23
-58.0
 33
0.0
 14
25.0
 24
-95.0
 34
0.0
 50
90.0
100
AcDbRotatedDimension
  0
DIMENSION
  5
249
330
1F
100
AcDbEntity
  8
SLD-0
100
AcDbDimension
  2
_D_20
 10
25.0
 20
-119.8192140902
 30
0.0
 11
0.901140214
 21
-119.8192140902
 31
0.0
 70
   160
  1
<>
 71
     2
 42
-1.0
  3
SLDDIMSTYLE0
100
AcDbAlignedDimension
 13
-25.0
 23
-98.0
 33
0.0
 14
25.0
 24
-98.0
 34
0.0
100
AcDbRotatedDimension
  0
DIMENSION
  5
254
330
1F
100
AcDbEntity
  8
SLD-0
100
AcDbDimension
  2
_D_21
 10
82.4622313429
 20
-65.1000473384
 30
0.0
 11
82.4622313429
 21
-60.3144663088
 31
0.0
 70
   160
  1
<>
 71
     2
 42
-1.0
  3
SLDDIMSTYLE1
100
AcDbAlignedDimension
 13
88.5588535439
 23
-57.1000473384
 33
0.0
 14
88.5588535439
 24
-65.1000473384
 34
0.0
 50
90.0
100
AcDbRotatedDimension
  0
DIMENSION
  5
261
330
1F
100
AcDbEntity
  8
SLD-0
100
AcDbDimension
  2
_D_22
 10
90.0621312234
 20
-107.9000473384
 30
0.0
 11
90.0621312234
 21
-82.3368921833
 31
0.0
 70
   160
  1
<>
 71
     2
 42
-1.0
  3
SLDDIMSTYLE0
100
AcDbAlignedDimension
 13
91.5588535439
 23
-65.1000473384
 33
0.0
 14
91.5588535439
 24
-107.9000473384
 34
0.0
 50
90.0
100
AcDbRotatedDimension
  0
DIMENSION
  5
26C
330
1F
100
AcDbEntity
  8
SLD-0
100
AcDbDimension
  2
_D_23
 10
79.9546833242
 20
-115.9000473384
 30
0.0
 11
79.9546833242
 21
-111.8323047457
 31
0.0
 70
   160
  1
<>
 71
     2
 42
-1.0
  3
SLDDIMSTYLE1
100
AcDbAlignedDimension
 13
88.5588535439
 23
-107.9000473384
 33
0.0
 14
88.5588535439
 24
-115.9000473384
 34
0.0
 50
90.0
100
AcDbRotatedDimension
  0
DIMENSION
  5
279
330
1F
100
AcDbEntity
  8
SLD-0
100
AcDbDimension
  2
_D_24
 10
67.5818858528
 20
-95.4
 30
0.0
 11
67.5818858528
 21
-72.3368921833
 31
0.0
 70
   160
  1
<>
 71
     2
 42
-1.0
  3
SLDDIMSTYLE0
100
AcDbAlignedDimension
 13
34.0
 23
-52.6
 33
0.0
 14
34.0
 24
-95.4
 34
0.0
 50
90.0
100
AcDbRotatedDimension
  0
DIMENSION
  5
284
330
1F
100
AcDbEntity
  8
SLD-0
100
AcDbDimension
  2
_D_25
 10
105.6639199069
 20
16.043231501
 30
0.0
 11
77.54804628
 21
16.043231501
 31
0.0
 70
   160
  1
<>
 71
     2
 42
-1.0
  3
SLDDIMSTYLE0
100
AcDbAlignedDimension
 13
43.6639199069
 23
-2.6286060427
 33
0.0
 14
105.6639199069
 24
-2.6286060427
 34
0.0
 50
0.0
100
AcDbRotatedDimension
  0
DIMENSION
  5
28F
330
1F
100
AcDbEntity
  8
SLD-0
100
AcDbDimension
  2
_D_26
 10
132.3896862243
 20
-34.6286060427
 30
0.0
 11
132.3896862243
 21
-14.3612010069
 31
0.0
 70
   160
  1
<>
 71
     2
 42
-1.0
  3
SLDDIMSTYLE0
100
AcDbAlignedDimension
 13
108.6639199069
 23
7.3713939573
 33
0.0
 14
108.6639199069
 24
-34.6286060427
 34
0.0
 50
90.0
100
AcDbRotatedDimension
  0
DIMENSION
  5
29A
330
1F
100
AcDbEntity
  8
SLD-0
100
AcDbDimension
  2
_D_27
 10
104.4880110093
 20
-107.7453439267
 30
0.0
 11
104.4880110093
 21
-82.6302562464
 31
0.0
 70
   160
  1
<>
 71
     2
 42
-1.0
  3
SLDDIMSTYLE0
100
AcDbAlignedDimension
 13
108.0567132642
 23
-65.7453439267
 33
0.0
 14
108.0567132642
 24
-107.7453439267
 34
0.0
 50
90.0
100
AcDbRotatedDimension
  0
MTEXT
  5
2A6
330
1F
100
AcDbEntity
  8
0
  6
Continuous
 62
     7
100
AcDbMText
 10
0.0
 20
41.6694529712
 30
0.0
 40
14.94028
 41
0.0
 71
     1
 72
     1
  1
SolidWorks Educational Edition.
  7
SLDTEXTSTYLE1
 73
     1
 44
1.0
  0
MTEXT
  5
2A7
330
1F
100
AcDbEntity
  8
0
  6
Continuous
 62
     7
100
AcDbMText
 10
0.0
 20
19.2590329712
 30
0.0
 40
14.94028
 41
0.0
 71
     1
 72
     1
  1
For Instructional Use Only.
  7
SLDTEXTSTYLE1
 73
     1
 44
1.0
  0
ENDSEC
  0
SECTION
  2
OBJECTS
  0
DICTIONARY
  5
C
330
0
100
AcDbDictionary
281
     1
  3
ACAD_GROUP
350
D
  3
ACAD_LAYOUT
350
1A
  3
ACAD_MLINESTYLE
350
17
  3
ACAD_PLOTSETTINGS
350
19
  3
ACAD_PLOTSTYLENAME
350
E
  0
DICTIONARY
  5
D
102
{ACAD_REACTORS
330
C
102
}
330
C
100
AcDbDictionary
281
     1
  0
DICTIONARY
  5
1A
102
{ACAD_REACTORS
330
C
102
}
330
C
100
AcDbDictionary
281
     1
  3
Layout1
350
1E
  3
Layout2
350
26
  3
Model
350
22
  0
DICTIONARY
  5
17
102
{ACAD_REACTORS
330
C
102
}
330
C
100
AcDbDictionary
281
     1
  3
Standard
350
18
  0
DICTIONARY
  5
19
102
{ACAD_REACTORS
330
C
102
}
330
C
100
AcDbDictionary
281
     1
  0
ACDBDICTIONARYWDFLT
  5
E
102
{ACAD_REACTORS
330
C
102
}
330
C
100
AcDbDictionary
281
     1
  3
Normal
350
F
100
AcDbDictionaryWithDefault
340
F
  0
LAYOUT
  5
1E
102
{ACAD_REACTORS
330
1A
102
}
330
1A
100
AcDbPlotSettings
  1

  2
none_device
  4

  6

 40
0.0
 41
0.0
 42
0.0
 43
0.0
 44
0.0
 45
0.0
 46
0.0
 47
0.0
 48
0.0
 49
0.0
140
0.0
141
0.0
142
1.0
143
1.0
 70
   688
 72
     0
 73
     0
 74
     5
  7

 75
    16
147
1.0
148
0.0
149
0.0
100
AcDbLayout
  1
Layout1
 70
     1
 71
     1
 10
0.0
 20
0.0
 11
420.0
 21
297.0
 12
0.0
 22
0.0
 32
0.0
 14
1.0000000000E+20
 24
1.0000000000E+20
 34
1.0000000000E+20
 15
-1.0000000000E+20
 25
-1.0000000000E+20
 35
-1.0000000000E+20
146
0.0
 13
0.0
 23
0.0
 33
0.0
 16
1.0
 26
0.0
 36
0.0
 17
0.0
 27
1.0
 37
0.0
 76
     0
330
1B
  0
LAYOUT
  5
26
102
{ACAD_REACTORS
330
1A
102
}
330
1A
100
AcDbPlotSettings
  1

  2
none_device
  4

  6

 40
0.0
 41
0.0
 42
0.0
 43
0.0
 44
0.0
 45
0.0
 46
0.0
 47
0.0
 48
0.0
 49
0.0
140
0.0
141
0.0
142
1.0
143
1.0
 70
   688
 72
     0
 73
     0
 74
     5
  7

 75
    16
147
1.0
148
0.0
149
0.0
100
AcDbLayout
  1
Layout2
 70
     1
 71
     2
 10
0.0
 20
0.0
 11
0.0
 21
0.0
 12
0.0
 22
0.0
 32
0.0
 14
0.0
 24
0.0
 34
0.0
 15
0.0
 25
0.0
 35
0.0
146
0.0
 13
0.0
 23
0.0
 33
0.0
 16
1.0
 26
0.0
 36
0.0
 17
0.0
 27
1.0
 37
0.0
 76
     0
330
23
  0
LAYOUT
  5
22
102
{ACAD_REACTORS
330
1A
102
}
330
1A
100
AcDbPlotSettings
  1

  2
none_device
  4

  6

 40
0.0
 41
0.0
 42
0.0
 43
0.0
 44
0.0
 45
0.0
 46
0.0
 47
0.0
 48
0.0
 49
0.0
140
0.0
141
0.0
142
1.0
143
1.0
 70
  1712
 72
     0
 73
     0
 74
     0
  7

 75
     0
147
1.0
148
0.0
149
0.0
100
AcDbLayout
  1
Model
 70
     1
 71
     0
 10
0.0
 20
0.0
 11
1117.6
 21
863.6
 12
0.0
 22
0.0
 32
0.0
 14
0.0
 24
0.0
 34
0.0
 15
1117.6
 25
863.6
 35
0.0
146
0.0
 13
0.0
 23
0.0
 33
0.0
 16
1.0
 26
0.0
 36
0.0
 17
0.0
 27
1.0
 37
0.0
 76
     0
330
1F
331
29
  0
MLINESTYLE
  5
18
102
{ACAD_REACTORS
330
17
102
}
330
17
100
AcDbMlineStyle
  2
Standard
 70
     0
  3

 62
   256
 51
90.0
 52
90.0
 71
     2
 49
0.5
 62
   256
  6
BYLAYER
 49
-0.5
 62
   256
  6
BYLAYER
  0
ACDBPLACEHOLDER
  5
F
102
{ACAD_REACTORS
330
E
102
}
330
E
  0
ENDSEC
  0
EOF
