  0
SECTION
  2
HEADER
  9
$ACADVER
  1
AC1015
  9
$ACADMAINTVER
 70
     6
  9
$DWGCODEPAGE
  3
ANSI_1252
  9
$INSBASE
 10
0.0
 20
0.0
 30
0.0
  9
$EXTMIN
 10
0.0
 20
0.0
 30
0.0
  9
$EXTMAX
 10
1117.6
 20
863.6
 30
0.0
  9
$LIMMIN
 10
0.0
 20
0.0
  9
$LIMMAX
 10
1117.6
 20
863.6
  9
$ORTHOMODE
 70
     0
  9
$REGENMODE
 70
     1
  9
$FILLMODE
 70
     1
  9
$QTEXTMODE
 70
     0
  9
$MIRRTEXT
 70
     1
  9
$LTSCALE
 40
1.0
  9
$ATTMODE
 70
     1
  9
$TEXTSIZE
 40
3.5
  9
$TRACEWID
 40
1.0
  9
$TEXTSTYLE
  7
Standard
  9
$CLAYER
  8
0
  9
$CELTYPE
  6
ByLayer
  9
$CECOLOR
 62
   256
  9
$CELTSCALE
 40
1.0
  9
$DISPSILH
 70
     0
  9
$DIMSCALE
 40
1.0
  9
$DIMASZ
 40
3.302
  9
$DIMEXO
 40
1.0
  9
$DIMDLI
 40
3.75
  9
$DIMRND
 40
0.0
  9
$DIMDLE
 40
0.0
  9
$DIMEXE
 40
1.0
  9
$DIMTP
 40
0.0
  9
$DIMTM
 40
0.0
  9
$DIMTXT
 40
3.5
  9
$DIMCEN
 40
2.5
  9
$DIMTSZ
 40
0.0
  9
$DIMTOL
 70
     0
  9
$DIMLIM
 70
     0
  9
$DIMTIH
 70
     1
  9
$DIMTOH
 70
     1
  9
$DIMSE1
 70
     0
  9
$DIMSE2
 70
     0
  9
$DIMTAD
 70
     1
  9
$DIMZIN
 70
     1
  9
$DIMBLK
  1

  9
$DIMASO
 70
     1
  9
$DIMSHO
 70
     1
  9
$DIMPOST
  1

  9
$DIMAPOST
  1

  9
$DIMALT
 70
     0
  9
$DIMALTD
 70
     3
  9
$DIMALTF
 40
0.0393700787
  9
$DIMLFAC
 40
1.0
  9
$DIMTOFL
 70
     1
  9
$DIMTVP
 40
0.0
  9
$DIMTIX
 70
     0
  9
$DIMSOXD
 70
     0
  9
$DIMSAH
 70
     0
  9
$DIMBLK1
  1

  9
$DIMBLK2
  1

  9
$DIMSTYLE
  2
ISO-25
  9
$DIMCLRD
 70
     0
  9
$DIMCLRE
 70
     0
  9
$DIMCLRT
 70
     0
  9
$DIMTFAC
 40
1.0
  9
$DIMGAP
 40
1.524
  9
$DIMJUST
 70
     0
  9
$DIMSD1
 70
     0
  9
$DIMSD2
 70
     0
  9
$DIMTOLJ
 70
     0
  9
$DIMTZIN
 70
     1
  9
$DIMALTZ
 70
     0
  9
$DIMALTTZ
 70
     0
  9
$DIMUPT
 70
     0
  9
$DIMDEC
 70
     0
  9
$DIMTDEC
 70
     4
  9
$DIMALTU
 70
     2
  9
$DIMALTTD
 70
     3
  9
$DIMTXSTY
  7
Standard
  9
$DIMAUNIT
 70
     0
  9
$DIMADEC
 70
     0
  9
$DIMALTRND
 40
0.0
  9
$DIMAZIN
 70
     0
  9
$DIMDSEP
 70
    44
  9
$DIMATFIT
 70
     3
  9
$DIMFRAC
 70
     0
  9
$DIMLDRBLK
  1

  9
$DIMLUNIT
 70
     2
  9
$DIMLWD
 70
    -2
  9
$DIMLWE
 70
    -2
  9
$DIMTMOVE
 70
     0
  9
$LUNITS
 70
     2
  9
$LUPREC
 70
     4
  9
$SKETCHINC
 40
1.0
  9
$FILLETRAD
 40
10.0
  9
$AUNITS
 70
     0
  9
$AUPREC
 70
     0
  9
$MENU
  1
.
  9
$ELEVATION
 40
0.0
  9
$PELEVATION
 40
0.0
  9
$THICKNESS
 40
0.0
  9
$LIMCHECK
 70
     0
  9
$CHAMFERA
 40
10.0
  9
$CHAMFERB
 40
10.0
  9
$CHAMFERC
 40
20.0
  9
$CHAMFERD
 40
0.0
  9
$SKPOLY
 70
     0
  9
$TDCREATE
 40
2456423.965713136
  9
$TDUCREATE
 40
2456423.465713136
  9
$TDUPDATE
 40
2456423.965713276
  9
$TDUUPDATE
 40
2456423.465713276
  9
$TDINDWG
 40
0.0000000116
  9
$TDUSRTIMER
 40
0.0000000116
  9
$USRTIMER
 70
     1
  9
$ANGBASE
 50
0.0
  9
$ANGDIR
 70
     0
  9
$PDMODE
 70
     0
  9
$PDSIZE
 40
-1.0
  9
$PLINEWID
 40
0.0
  9
$SPLFRAME
 70
     0
  9
$SPLINETYPE
 70
     6
  9
$SPLINESEGS
 70
     8
  9
$HANDSEED
  5
155
  9
$SURFTAB1
 70
     6
  9
$SURFTAB2
 70
     6
  9
$SURFTYPE
 70
     6
  9
$SURFU
 70
     6
  9
$SURFV
 70
     6
  9
$UCSBASE
  2

  9
$UCSNAME
  2

  9
$UCSORG
 10
0.0
 20
0.0
 30
0.0
  9
$UCSXDIR
 10
1.0
 20
0.0
 30
0.0
  9
$UCSYDIR
 10
0.0
 20
1.0
 30
0.0
  9
$UCSORTHOREF
  2

  9
$UCSORTHOVIEW
 70
     0
  9
$UCSORGTOP
 10
0.0
 20
0.0
 30
0.0
  9
$UCSORGBOTTOM
 10
0.0
 20
0.0
 30
0.0
  9
$UCSORGLEFT
 10
0.0
 20
0.0
 30
0.0
  9
$UCSORGRIGHT
 10
0.0
 20
0.0
 30
0.0
  9
$UCSORGFRONT
 10
0.0
 20
0.0
 30
0.0
  9
$UCSORGBACK
 10
0.0
 20
0.0
 30
0.0
  9
$PUCSBASE
  2

  9
$PUCSNAME
  2

  9
$PUCSORG
 10
0.0
 20
0.0
 30
0.0
  9
$PUCSXDIR
 10
1.0
 20
0.0
 30
0.0
  9
$PUCSYDIR
 10
0.0
 20
1.0
 30
0.0
  9
$PUCSORTHOREF
  2

  9
$PUCSORTHOVIEW
 70
     0
  9
$PUCSORGTOP
 10
0.0
 20
0.0
 30
0.0
  9
$PUCSORGBOTTOM
 10
0.0
 20
0.0
 30
0.0
  9
$PUCSORGLEFT
 10
0.0
 20
0.0
 30
0.0
  9
$PUCSORGRIGHT
 10
0.0
 20
0.0
 30
0.0
  9
$PUCSORGFRONT
 10
0.0
 20
0.0
 30
0.0
  9
$PUCSORGBACK
 10
0.0
 20
0.0
 30
0.0
  9
$USERI1
 70
     0
  9
$USERI2
 70
     0
  9
$USERI3
 70
     0
  9
$USERI4
 70
     0
  9
$USERI5
 70
     0
  9
$USERR1
 40
0.0
  9
$USERR2
 40
0.0
  9
$USERR3
 40
0.0
  9
$USERR4
 40
0.0
  9
$USERR5
 40
0.0
  9
$WORLDVIEW
 70
     1
  9
$SHADEDGE
 70
     3
  9
$SHADEDIF
 70
    70
  9
$TILEMODE
 70
     1
  9
$MAXACTVP
 70
    64
  9
$PINSBASE
 10
0.0
 20
0.0
 30
0.0
  9
$PLIMCHECK
 70
     0
  9
$PEXTMIN
 10
1.0000000000E+20
 20
1.0000000000E+20
 30
1.0000000000E+20
  9
$PEXTMAX
 10
-1.0000000000E+20
 20
-1.0000000000E+20
 30
-1.0000000000E+20
  9
$PLIMMIN
 10
0.0
 20
0.0
  9
$PLIMMAX
 10
420.0
 20
297.0
  9
$UNITMODE
 70
     0
  9
$VISRETAIN
 70
     1
  9
$PLINEGEN
 70
     0
  9
$PSLTSCALE
 70
     1
  9
$TREEDEPTH
 70
  3020
  9
$CMLSTYLE
  2
Standard
  9
$CMLJUST
 70
     0
  9
$CMLSCALE
 40
20.0
  9
$PROXYGRAPHICS
 70
     1
  9
$MEASUREMENT
 70
     1
  9
$CELWEIGHT
370
    -1
  9
$ENDCAPS
280
     0
  9
$JOINSTYLE
280
     0
  9
$LWDISPLAY
290
     1
  9
$INSUNITS
 70
     4
  9
$HYPERLINKBASE
  1

  9
$STYLESHEET
  1

  9
$XEDIT
290
     1
  9
$CEPSNTYPE
380
     0
  9
$PSTYLEMODE
290
     1
  9
$FINGERPRINTGUID
  2
{CCA10771-FD83-4271-9B0B-B3C2A3C50352}
  9
$VERSIONGUID
  2
{FAEB1C32-E019-11D5-929B-00C0DF256EC4}
  9
$EXTNAMES
290
     1
  9
$PSVPSCALE
 40
0.0
  9
$OLESTARTUP
290
     0
  0
ENDSEC
  0
SECTION
  2
CLASSES
  0
CLASS
  1
ACDBDICTIONARYWDFLT
  2
AcDbDictionaryWithDefault
  3
ObjectDBX Classes
 90
        0
280
     0
281
     0
  0
CLASS
  1
VISUALSTYLE
  2
AcDbVisualStyle
  3
ObjectDBX Classes
 90
     4095
280
     0
281
     0
  0
CLASS
  1
MATERIAL
  2
AcDbMaterial
  3
ObjectDBX Classes
 90
     1153
280
     0
281
     0
  0
CLASS
  1
ACDBPLACEHOLDER
  2
AcDbPlaceHolder
  3
ObjectDBX Classes
 90
        0
280
     0
281
     0
  0
CLASS
  1
LAYOUT
  2
AcDbLayout
  3
ObjectDBX Classes
 90
        0
280
     0
281
     0
  0
ENDSEC
  0
SECTION
  2
TABLES
  0
TABLE
  2
VPORT
  5
8
330
0
100
AcDbSymbolTable
 70
     1
  0
VPORT
  5
29
330
8
100
AcDbSymbolTableRecord
100
AcDbViewportTableRecord
  2
*Active
 70
     0
 10
0.0
 20
0.0
 11
1.0
 21
1.0
 12
558.8
 22
431.8
 13
0.0
 23
0.0
 14
10.0
 24
10.0
 15
10.0
 25
10.0
 16
0.0
 26
0.0
 36
1.0
 17
0.0
 27
0.0
 37
0.0
 40
863.6
 41
1.2941176471
 42
50.0
 43
0.0
 44
0.0
 50
0.0
 51
0.0
 71
     0
 72
  2000
 73
     1
 74
     3
 75
     0
 76
     0
 77
     0
 78
     0
281
     0
 65
     1
110
0.0
120
0.0
130
0.0
111
1.0
121
0.0
131
0.0
112
0.0
122
1.0
132
0.0
 79
     0
146
0.0
  0
ENDTAB
  0
TABLE
  2
LTYPE
  5
5
330
0
100
AcDbSymbolTable
 70
     6
  0
LTYPE
  5
14
330
5
100
AcDbSymbolTableRecord
100
AcDbLinetypeTableRecord
  2
ByBlock
 70
     0
  3

 72
    65
 73
     0
 40
0.0
  0
LTYPE
  5
15
330
5
100
AcDbSymbolTableRecord
100
AcDbLinetypeTableRecord
  2
ByLayer
 70
     0
  3

 72
    65
 73
     0
 40
0.0
  0
LTYPE
  5
16
330
5
100
AcDbSymbolTableRecord
100
AcDbLinetypeTableRecord
  2
Continuous
 70
     0
  3
Solid line
 72
    65
 73
     0
 40
0.0
  0
LTYPE
  5
3F
330
5
100
AcDbSymbolTableRecord
100
AcDbLinetypeTableRecord
  2
HIDDEN
 70
     0
  3
Hidden __ __ __ __ __ __ __ __ __ __ __ __ __ __
 72
    65
 73
     2
 40
1.905
 49
1.27
 74
     0
 49
-0.635
 74
     0
  0
LTYPE
  5
40
330
5
100
AcDbSymbolTableRecord
100
AcDbLinetypeTableRecord
  2
PHANTOM
 70
     0
  3
Phantom ______  __  __  ______  __  __  ______
 72
    65
 73
     6
 40
12.7
 49
6.35
 74
     0
 49
-1.27
 74
     0
 49
1.27
 74
     0
 49
-1.27
 74
     0
 49
1.27
 74
     0
 49
-1.27
 74
     0
  0
LTYPE
  5
41
330
5
100
AcDbSymbolTableRecord
100
AcDbLinetypeTableRecord
  2
CENTER
 70
     0
  3
Center ____ _ ____ _ ____ _ ____ _ ____ _ ____
 72
    65
 73
     4
 40
10.16
 49
6.35
 74
     0
 49
-1.27
 74
     0
 49
1.27
 74
     0
 49
-1.27
 74
     0
  0
LTYPE
  5
42
330
5
100
AcDbSymbolTableRecord
100
AcDbLinetypeTableRecord
  2
CENTERX2
 70
     0
  3
Center (2x) ________  __  ________  __  _____
 72
    65
 73
     4
 40
20.32
 49
12.7
 74
     0
 49
-2.54
 74
     0
 49
2.54
 74
     0
 49
-2.54
 74
     0
  0
LTYPE
  5
43
330
5
100
AcDbSymbolTableRecord
100
AcDbLinetypeTableRecord
  2
DOT2
 70
     0
  3
Dot (.5x) ........................................
 72
    65
 73
     2
 40
0.635
 49
0.0
 74
     0
 49
-0.635
 74
     0
  0
ENDTAB
  0
TABLE
  2
LAYER
  5
2
330
0
100
AcDbSymbolTable
 70
     3
  0
LAYER
  5
10
330
2
100
AcDbSymbolTableRecord
100
AcDbLayerTableRecord
  2
0
 70
     0
 62
     7
  6
Continuous
370
    -3
390
F
  0
LAYER
  5
44
330
2
100
AcDbSymbolTableRecord
100
AcDbLayerTableRecord
  2
SLD-0
 70
     0
 62
   179
  6
Continuous
370
    -3
390
F
  0
LAYER
  5
45
330
2
100
AcDbSymbolTableRecord
100
AcDbLayerTableRecord
  2
PYDXF
 70
     0
 62
   179
  6
Continuous
370
    -3
390
F
  0
ENDTAB
  0
TABLE
  2
STYLE
  5
3
330
0
100
AcDbSymbolTable
 70
     2
  0
STYLE
  5
11
330
3
100
AcDbSymbolTableRecord
100
AcDbTextStyleTableRecord
  2
Standard
 70
     0
 40
0.0
 41
1.0
 50
0.0
 71
     0
 42
3.5
  3
txt
  4

  0
STYLE
  5
152
330
3
100
AcDbSymbolTableRecord
100
AcDbTextStyleTableRecord
  2
SLDTEXTSTYLE0
 70
     0
 40
0.0
 41
0.7
 50
0.0
 71
     0
 42
0.2
  3
TXT
  4

  0
ENDTAB
  0
TABLE
  2
VIEW
  5
6
330
0
100
AcDbSymbolTable
 70
     0
  0
ENDTAB
  0
TABLE
  2
UCS
  5
7
330
0
100
AcDbSymbolTable
 70
     0
  0
ENDTAB
  0
TABLE
  2
APPID
  5
9
330
0
100
AcDbSymbolTable
 70
     1
  0
APPID
  5
12
330
9
100
AcDbSymbolTableRecord
100
AcDbRegAppTableRecord
  2
ACAD
 70
     0
  0
ENDTAB
  0
TABLE
  2
DIMSTYLE
  5
A
330
0
100
AcDbSymbolTable
 70
     1
100
AcDbDimStyleTable
  0
DIMSTYLE
105
27
330
A
100
AcDbSymbolTableRecord
100
AcDbDimStyleTableRecord
  2
ISO-25
 70
     0
 41
2.5
 42
0.625
 43
3.75
 44
1.25
 73
     0
 74
     0
 77
     1
 78
     8
140
2.5
141
2.5
143
0.0393700787
147
0.625
171
     3
172
     1
178
     0
271
     2
272
     2
274
     3
278
    44
283
     0
284
     8
340
11
  0
ENDTAB
  0
TABLE
  2
BLOCK_RECORD
  5
1
330
0
100
AcDbSymbolTable
 70
     1
  0
BLOCK_RECORD
  5
1F
330
1
100
AcDbSymbolTableRecord
100
AcDbBlockTableRecord
  2
*Model_Space
340
22
  0
BLOCK_RECORD
  5
1B
330
1
100
AcDbSymbolTableRecord
100
AcDbBlockTableRecord
  2
*Paper_Space
340
1E
  0
BLOCK_RECORD
  5
23
330
1
100
AcDbSymbolTableRecord
100
AcDbBlockTableRecord
  2
*Paper_Space0
340
26
  0
ENDTAB
  0
ENDSEC
  0
SECTION
  2
BLOCKS
  0
BLOCK
  5
20
330
1F
100
AcDbEntity
  8
0
100
AcDbBlockBegin
  2
*Model_Space
 70
     0
 10
0.0
 20
0.0
 30
0.0
  3
*Model_Space
  1

  0
ENDBLK
  5
21
330
1F
100
AcDbEntity
  8
0
100
AcDbBlockEnd
  0
BLOCK
  5
1C
330
1B
100
AcDbEntity
 67
     1
  8
0
100
AcDbBlockBegin
  2
*Paper_Space
 70
     0
 10
0.0
 20
0.0
 30
0.0
  3
*Paper_Space
  1

  0
ENDBLK
  5
1D
330
1B
100
AcDbEntity
 67
     1
  8
0
100
AcDbBlockEnd
  0
BLOCK
  5
24
330
23
100
AcDbEntity
  8
0
100
AcDbBlockBegin
  2
*Paper_Space0
 70
     0
 10
0.0
 20
0.0
 30
0.0
  3
*Paper_Space0
  1

  0
ENDBLK
  5
25
330
23
100
AcDbEntity
  8
0
100
AcDbBlockEnd
  0
ENDSEC
  0
SECTION
  2
ENTITIES
  0
LINE
  5
46
330
1F
100
AcDbEntity
  8
SLD-0
100
AcDbLine
 10
-27.5
 20
43.0
 30
0.0
 11
-39.0
 21
43.0
 31
0.0
  0
LINE
  5
47
330
1F
100
AcDbEntity
  8
SLD-0
100
AcDbLine
 10
-39.0
 20
43.0
 30
0.0
 11
-39.0
 21
52.0246765285
 31
0.0
  0
LINE
  5
48
330
1F
100
AcDbEntity
  8
SLD-0
100
AcDbLine
 10
-39.0
 20
52.0246765285
 30
0.0
 11
39.0
 21
52.0246765285
 31
0.0
  0
LINE
  5
49
330
1F
100
AcDbEntity
  8
SLD-0
100
AcDbLine
 10
39.0
 20
52.0246765285
 30
0.0
 11
39.0
 21
43.0
 31
0.0
  0
LINE
  5
4A
330
1F
100
AcDbEntity
  8
SLD-0
100
AcDbLine
 10
39.0
 20
43.0
 30
0.0
 11
27.5
 21
43.0
 31
0.0
  0
LINE
  5
4B
330
1F
100
AcDbEntity
  8
SLD-0
100
AcDbLine
 10
-27.5
 20
43.0
 30
0.0
 11
-27.5
 21
-43.0
 31
0.0
  0
LINE
  5
4C
330
1F
100
AcDbEntity
  8
SLD-0
100
AcDbLine
 10
27.5
 20
43.0
 30
0.0
 11
27.5
 21
-43.0
 31
0.0
  0
LINE
  5
4D
330
1F
100
AcDbEntity
  8
0
  6
Continuous
 62
   179
370
     0
100
AcDbLine
 10
24.9808498159
 20
-231.0756791846
 30
0.0
 11
36.0191501841
 21
-231.0756791846
 31
0.0
  0
LINE
  5
4E
330
1F
100
AcDbEntity
  8
SLD-0
100
AcDbLine
 10
95.3010057494
 20
-58.6369006255
 30
0.0
 11
95.3010057494
 21
-100.1369006254
 31
0.0
  0
LINE
  5
4F
330
1F
100
AcDbEntity
  8
SLD-0
  6
Continuous
 62
   179
370
     0
100
AcDbLine
 10
66.0438654697
 20
-90.6321972138
 30
0.0
 11
66.0438654697
 21
-100.6321972138
 31
0.0
  0
LINE
  5
50
330
1F
100
AcDbEntity
  8
SLD-0
100
AcDbLine
 10
93.5560057494
 20
-55.6369006254
 30
0.0
 11
84.6698007659
 21
-55.6369006254
 31
0.0
  0
LINE
  5
51
330
1F
100
AcDbEntity
  8
SLD-0
100
AcDbLine
 10
46.5460057494
 20
-108.7869006254
 30
0.0
 11
49.5460057494
 21
-108.7869006254
 31
0.0
  0
LINE
  5
52
330
1F
100
AcDbEntity
  8
0
  6
Continuous
 62
   179
370
     0
100
AcDbLine
 10
72.0
 20
-251.0606209499
 30
0.0
 11
109.0
 21
-251.0606209499
 31
0.0
  0
LINE
  5
53
330
1F
100
AcDbEntity
  8
0
  6
Continuous
 62
   179
370
     0
100
AcDbLine
 10
-15.0
 20
-248.6146271237
 30
0.0
 11
-15.0
 21
-246.6146271237
 31
0.0
  0
LINE
  5
54
330
1F
100
AcDbEntity
  8
0
  6
Continuous
 62
   179
370
     0
100
AcDbLine
 10
5.0191501841
 20
-231.0756791846
 30
0.0
 11
14.9808498159
 21
-231.0756791846
 31
0.0
  0
LINE
  5
55
330
1F
100
AcDbEntity
  8
0
  6
Continuous
 62
   179
370
     0
100
AcDbLine
 10
112.0
 20
-246.0606209499
 30
0.0
 11
109.0
 21
-246.0606209499
 31
0.0
  0
LINE
  5
56
330
1F
100
AcDbEntity
  8
0
  6
Continuous
 62
   179
370
     0
100
AcDbLine
 10
15.0
 20
-246.6146271237
 30
0.0
 11
15.0
 21
-248.6146271237
 31
0.0
  0
LINE
  5
57
330
1F
100
AcDbEntity
  8
0
  6
Continuous
 62
   179
370
     0
100
AcDbLine
 10
36.0191501841
 20
-251.0756791846
 30
0.0
 11
-36.0191501841
 21
-251.0756791846
 31
0.0
  0
LINE
  5
58
330
1F
100
AcDbEntity
  8
0
  6
Continuous
 62
   179
370
     0
100
AcDbLine
 10
112.0
 20
-236.0606209499
 30
0.0
 11
109.0
 21
-236.0606209499
 31
0.0
  0
LINE
  5
59
330
1F
100
AcDbEntity
  8
SLD-0
100
AcDbLine
 10
-25.0
 20
-95.0
 30
0.0
 11
-15.0
 21
-95.0
 31
0.0
  0
LINE
  5
5A
330
1F
100
AcDbEntity
  8
SLD-0
100
AcDbLine
 10
46.5460057494
 20
-49.9869006254
 30
0.0
 11
46.5460057494
 21
-57.9869006254
 31
0.0
  0
LINE
  5
5B
330
1F
100
AcDbEntity
  8
SLD-0
  6
CENTERX2
100
AcDbLine
 10
-0.0305270348
 20
15.3
 30
0.0
 11
-0.0305270348
 21
68.6
 31
0.0
  0
LINE
  5
5C
330
1F
100
AcDbEntity
  8
SLD-0
  6
Continuous
 62
   179
370
     0
100
AcDbLine
 10
66.0438654697
 20
-90.6321972138
 30
0.0
 11
69.0438654697
 21
-90.6321972138
 31
0.0
  0
LINE
  5
5D
330
1F
100
AcDbEntity
  8
SLD-0
100
AcDbLine
 10
46.5460057494
 20
-49.9869006254
 30
0.0
 11
49.5460057494
 21
-49.9869006254
 31
0.0
  0
LINE
  5
5E
330
1F
100
AcDbEntity
  8
SLD-0
  6
Continuous
 62
   179
370
     0
100
AcDbLine
 10
69.0438654697
 20
-90.6321972138
 30
0.0
 11
69.0438654697
 21
-100.6321972138
 31
0.0
  0
LINE
  5
5F
330
1F
100
AcDbEntity
  8
SLD-0
100
AcDbLine
 10
-25.0
 20
-55.0
 30
0.0
 11
-15.0
 21
-55.0
 31
0.0
  0
LINE
  5
60
330
1F
100
AcDbEntity
  8
SLD-0
100
AcDbLine
 10
-25.0
 20
-55.0
 30
0.0
 11
-25.0
 21
-58.0
 31
0.0
  0
LINE
  5
61
330
1F
100
AcDbEntity
  8
SLD-0
100
AcDbLine
 10
-25.0
 20
-58.0
 30
0.0
 11
-15.0
 21
-58.0
 31
0.0
  0
LINE
  5
62
330
1F
100
AcDbEntity
  8
SLD-0
100
AcDbLine
 10
-15.0
 20
-55.0
 30
0.0
 11
-15.0
 21
-58.0
 31
0.0
  0
LINE
  5
63
330
1F
100
AcDbEntity
  8
SLD-0
100
AcDbLine
 10
15.0
 20
-58.0
 30
0.0
 11
25.0
 21
-58.0
 31
0.0
  0
LINE
  5
64
330
1F
100
AcDbEntity
  8
SLD-0
100
AcDbLine
 10
15.0
 20
-58.0
 30
0.0
 11
15.0
 21
-55.0
 31
0.0
  0
LINE
  5
65
330
1F
100
AcDbEntity
  8
SLD-0
100
AcDbLine
 10
15.0
 20
-55.0
 30
0.0
 11
25.0
 21
-55.0
 31
0.0
  0
LINE
  5
66
330
1F
100
AcDbEntity
  8
SLD-0
100
AcDbLine
 10
25.0
 20
-58.0
 30
0.0
 11
25.0
 21
-55.0
 31
0.0
  0
LINE
  5
67
330
1F
100
AcDbEntity
  8
SLD-0
100
AcDbLine
 10
-5.0
 20
-55.0
 30
0.0
 11
5.0
 21
-55.0
 31
0.0
  0
LINE
  5
68
330
1F
100
AcDbEntity
  8
SLD-0
100
AcDbLine
 10
-5.0
 20
-55.0
 30
0.0
 11
-5.0
 21
-58.0
 31
0.0
  0
LINE
  5
69
330
1F
100
AcDbEntity
  8
SLD-0
100
AcDbLine
 10
-5.0
 20
-58.0
 30
0.0
 11
5.0
 21
-58.0
 31
0.0
  0
LINE
  5
6A
330
1F
100
AcDbEntity
  8
SLD-0
100
AcDbLine
 10
5.0
 20
-55.0
 30
0.0
 11
5.0
 21
-58.0
 31
0.0
  0
LINE
  5
6B
330
1F
100
AcDbEntity
  8
SLD-0
100
AcDbLine
 10
-25.0
 20
-95.0
 30
0.0
 11
-25.0
 21
-98.0
 31
0.0
  0
LINE
  5
6C
330
1F
100
AcDbEntity
  8
SLD-0
100
AcDbLine
 10
-25.0
 20
-98.0
 30
0.0
 11
-15.0
 21
-98.0
 31
0.0
  0
LINE
  5
6D
330
1F
100
AcDbEntity
  8
SLD-0
100
AcDbLine
 10
-15.0
 20
-95.0
 30
0.0
 11
-15.0
 21
-98.0
 31
0.0
  0
LINE
  5
6E
330
1F
100
AcDbEntity
  8
SLD-0
100
AcDbLine
 10
15.0
 20
-98.0
 30
0.0
 11
25.0
 21
-98.0
 31
0.0
  0
LINE
  5
6F
330
1F
100
AcDbEntity
  8
SLD-0
100
AcDbLine
 10
15.0
 20
-98.0
 30
0.0
 11
15.0
 21
-95.0
 31
0.0
  0
LINE
  5
70
330
1F
100
AcDbEntity
  8
SLD-0
100
AcDbLine
 10
15.0
 20
-95.0
 30
0.0
 11
25.0
 21
-95.0
 31
0.0
  0
LINE
  5
71
330
1F
100
AcDbEntity
  8
SLD-0
100
AcDbLine
 10
25.0
 20
-98.0
 30
0.0
 11
25.0
 21
-95.0
 31
0.0
  0
LINE
  5
72
330
1F
100
AcDbEntity
  8
SLD-0
100
AcDbLine
 10
-5.0
 20
-95.0
 30
0.0
 11
5.0
 21
-95.0
 31
0.0
  0
LINE
  5
73
330
1F
100
AcDbEntity
  8
SLD-0
100
AcDbLine
 10
-5.0
 20
-95.0
 30
0.0
 11
-5.0
 21
-98.0
 31
0.0
  0
LINE
  5
74
330
1F
100
AcDbEntity
  8
SLD-0
100
AcDbLine
 10
-5.0
 20
-98.0
 30
0.0
 11
5.0
 21
-98.0
 31
0.0
  0
LINE
  5
75
330
1F
100
AcDbEntity
  8
SLD-0
100
AcDbLine
 10
5.0
 20
-95.0
 30
0.0
 11
5.0
 21
-98.0
 31
0.0
  0
LINE
  5
76
330
1F
100
AcDbEntity
  8
SLD-0
100
AcDbLine
 10
-27.5
 20
-43.0
 30
0.0
 11
-39.0
 21
-43.0
 31
0.0
  0
LINE
  5
77
330
1F
100
AcDbEntity
  8
0
  6
Continuous
 62
   179
370
     0
100
AcDbLine
 10
-25.0191501841
 20
-231.0756791846
 30
0.0
 11
-36.0191501841
 21
-231.0756791846
 31
0.0
  0
LINE
  5
78
330
1F
100
AcDbEntity
  8
0
  6
Continuous
 62
   179
370
     0
100
AcDbLine
 10
-34.0
 20
-236.0606275248
 30
0.0
 11
-31.0
 21
-236.0606275248
 31
0.0
  0
LINE
  5
79
330
1F
100
AcDbEntity
  8
0
  6
Continuous
 62
   179
370
     0
100
AcDbLine
 10
72.0
 20
-231.0606209499
 30
0.0
 11
85.5
 21
-231.0606209499
 31
0.0
  0
LINE
  5
7A
330
1F
100
AcDbEntity
  8
0
  6
Continuous
 62
   179
370
     0
100
AcDbLine
 10
-5.0191501841
 20
-228.0756791846
 30
0.0
 11
-5.0191501841
 21
-231.0756791846
 31
0.0
  0
LINE
  5
7B
330
1F
100
AcDbEntity
  8
SLD-0
100
AcDbLine
 10
-39.0
 20
-43.0
 30
0.0
 11
-39.0
 21
-105.0
 31
0.0
  0
LINE
  5
7C
330
1F
100
AcDbEntity
  8
SLD-0
100
AcDbLine
 10
27.5
 20
-43.0
 30
0.0
 11
39.0
 21
-43.0
 31
0.0
  0
LINE
  5
7D
330
1F
100
AcDbEntity
  8
SLD-0
100
AcDbLine
 10
39.0
 20
-43.0
 30
0.0
 11
39.0
 21
-105.0
 31
0.0
  0
LINE
  5
7E
330
1F
100
AcDbEntity
  8
SLD-0
100
AcDbLine
 10
39.0
 20
-105.0
 30
0.0
 11
-39.0
 21
-105.0
 31
0.0
  0
LINE
  5
7F
330
1F
100
AcDbEntity
  8
SLD-0
100
AcDbLine
 10
-15.0191501841
 20
-163.3869006254
 30
0.0
 11
-5.0191501841
 21
-163.3869006254
 31
0.0
  0
LINE
  5
80
330
1F
100
AcDbEntity
  8
SLD-0
100
AcDbLine
 10
-34.0
 20
-44.6
 30
0.0
 11
-31.0
 21
-44.6
 31
0.0
  0
LINE
  5
81
330
1F
100
AcDbEntity
  8
SLD-0
100
AcDbLine
 10
-34.0
 20
-44.6
 30
0.0
 11
-34.0
 21
-52.6
 31
0.0
  0
LINE
  5
82
330
1F
100
AcDbEntity
  8
SLD-0
100
AcDbLine
 10
-34.0
 20
-52.6
 30
0.0
 11
-31.0
 21
-52.6
 31
0.0
  0
LINE
  5
83
330
1F
100
AcDbEntity
  8
SLD-0
100
AcDbLine
 10
-31.0
 20
-44.6
 30
0.0
 11
-31.0
 21
-52.6
 31
0.0
  0
LINE
  5
84
330
1F
100
AcDbEntity
  8
0
  6
Continuous
 62
   179
370
     0
100
AcDbLine
 10
-34.0
 20
-246.0606275248
 30
0.0
 11
-31.0
 21
-246.0606275248
 31
0.0
  0
LINE
  5
85
330
1F
100
AcDbEntity
  8
SLD-0
  6
Continuous
 62
   179
370
     0
100
AcDbLine
 10
-31.0
 20
-103.4
 30
0.0
 11
-31.0
 21
-95.4
 31
0.0
  0
LINE
  5
86
330
1F
100
AcDbEntity
  8
SLD-0
  6
Continuous
 62
   179
370
     0
100
AcDbLine
 10
-34.0
 20
-95.4
 30
0.0
 11
-31.0
 21
-95.4
 31
0.0
  0
LINE
  5
87
330
1F
100
AcDbEntity
  8
SLD-0
  6
Continuous
 62
   179
370
     0
100
AcDbLine
 10
-34.0
 20
-103.4
 30
0.0
 11
-34.0
 21
-95.4
 31
0.0
  0
LINE
  5
88
330
1F
100
AcDbEntity
  8
SLD-0
  6
Continuous
 62
   179
370
     0
100
AcDbLine
 10
-34.0
 20
-103.4
 30
0.0
 11
-31.0
 21
-103.4
 31
0.0
  0
LINE
  5
89
330
1F
100
AcDbEntity
  8
SLD-0
  6
Continuous
 62
   179
370
     0
100
AcDbLine
 10
34.0
 20
-103.4
 30
0.0
 11
31.0
 21
-103.4
 31
0.0
  0
LINE
  5
8A
330
1F
100
AcDbEntity
  8
SLD-0
  6
Continuous
 62
   179
370
     0
100
AcDbLine
 10
34.0
 20
-103.4
 30
0.0
 11
34.0
 21
-95.4
 31
0.0
  0
LINE
  5
8B
330
1F
100
AcDbEntity
  8
SLD-0
  6
Continuous
 62
   179
370
     0
100
AcDbLine
 10
34.0
 20
-95.4
 30
0.0
 11
31.0
 21
-95.4
 31
0.0
  0
LINE
  5
8C
330
1F
100
AcDbEntity
  8
SLD-0
  6
Continuous
 62
   179
370
     0
100
AcDbLine
 10
31.0
 20
-103.4
 30
0.0
 11
31.0
 21
-95.4
 31
0.0
  0
LINE
  5
8D
330
1F
100
AcDbEntity
  8
SLD-0
  6
Continuous
 62
   179
370
     0
100
AcDbLine
 10
31.0
 20
-44.6
 30
0.0
 11
31.0
 21
-52.6
 31
0.0
  0
LINE
  5
8E
330
1F
100
AcDbEntity
  8
SLD-0
  6
Continuous
 62
   179
370
     0
100
AcDbLine
 10
34.0
 20
-52.6
 30
0.0
 11
31.0
 21
-52.6
 31
0.0
  0
LINE
  5
8F
330
1F
100
AcDbEntity
  8
SLD-0
  6
Continuous
 62
   179
370
     0
100
AcDbLine
 10
34.0
 20
-44.6
 30
0.0
 11
34.0
 21
-52.6
 31
0.0
  0
LINE
  5
90
330
1F
100
AcDbEntity
  8
SLD-0
  6
Continuous
 62
   179
370
     0
100
AcDbLine
 10
34.0
 20
-44.6
 30
0.0
 11
31.0
 21
-44.6
 31
0.0
  0
LINE
  5
91
330
1F
100
AcDbEntity
  8
0
  6
Continuous
 62
   179
370
     0
100
AcDbLine
 10
85.5
 20
-228.0606209499
 30
0.0
 11
85.5
 21
-231.0606209499
 31
0.0
  0
LINE
  5
92
330
1F
100
AcDbEntity
  8
0
  6
Continuous
 62
   179
370
     0
100
AcDbLine
 10
-25.0191501841
 20
-228.0756791846
 30
0.0
 11
-25.0191501841
 21
-231.0756791846
 31
0.0
  0
LINE
  5
93
330
1F
100
AcDbEntity
  8
0
  6
Continuous
 62
   179
370
     0
100
AcDbLine
 10
31.0
 20
-236.0606275248
 30
0.0
 11
31.0
 21
-246.0606275248
 31
0.0
  0
LINE
  5
94
330
1F
100
AcDbEntity
  8
0
  6
Continuous
 62
   179
370
     0
100
AcDbLine
 10
95.5
 20
-231.0606209499
 30
0.0
 11
109.0
 21
-231.0606209499
 31
0.0
  0
LINE
  5
95
330
1F
100
AcDbEntity
  8
0
  6
Continuous
 62
   179
370
     0
100
AcDbLine
 10
-36.0191501841
 20
-231.0756791846
 30
0.0
 11
-36.0191501841
 21
-251.0756791846
 31
0.0
  0
LINE
  5
96
330
1F
100
AcDbEntity
  8
0
  6
Continuous
 62
   179
370
     0
100
AcDbLine
 10
34.0
 20
-236.0606275248
 30
0.0
 11
34.0
 21
-246.0606275248
 31
0.0
  0
LINE
  5
97
330
1F
100
AcDbEntity
  8
0
  6
Continuous
 62
   179
370
     0
100
AcDbLine
 10
15.0
 20
-248.6146271237
 30
0.0
 11
0.0
 21
-248.6146271237
 31
0.0
  0
LINE
  5
98
330
1F
100
AcDbEntity
  8
0
  6
Continuous
 62
   179
370
     0
100
AcDbLine
 10
-15.0191501841
 20
-228.0756791846
 30
0.0
 11
-15.0191501841
 21
-231.0756791846
 31
0.0
  0
LINE
  5
99
330
1F
100
AcDbEntity
  8
0
  6
Continuous
 62
   179
370
     0
100
AcDbLine
 10
69.0
 20
-236.0606209499
 30
0.0
 11
69.0
 21
-246.0606209499
 31
0.0
  0
LINE
  5
9A
330
1F
100
AcDbEntity
  8
0
  6
Continuous
 62
   179
370
     0
100
AcDbLine
 10
14.9808498159
 20
-228.0756791846
 30
0.0
 11
14.9808498159
 21
-231.0756791846
 31
0.0
  0
LINE
  5
9B
330
1F
100
AcDbEntity
  8
0
  6
Continuous
 62
   179
370
     0
100
AcDbLine
 10
72.0
 20
-246.0606209499
 30
0.0
 11
72.0
 21
-251.0606209499
 31
0.0
  0
LINE
  5
9C
330
1F
100
AcDbEntity
  8
0
  6
Continuous
 62
   179
370
     0
100
AcDbLine
 10
0.0
 20
-248.6146271237
 30
0.0
 11
-15.0
 21
-248.6146271237
 31
0.0
  0
LINE
  5
9D
330
1F
100
AcDbEntity
  8
0
  6
Continuous
 62
   179
370
     0
100
AcDbLine
 10
24.9808498159
 20
-228.0756791846
 30
0.0
 11
24.9808498159
 21
-231.0756791846
 31
0.0
  0
LINE
  5
9E
330
1F
100
AcDbEntity
  8
0
  6
Continuous
 62
   179
370
     0
100
AcDbLine
 10
109.0
 20
-246.0606209499
 30
0.0
 11
109.0
 21
-251.0606209499
 31
0.0
  0
LINE
  5
9F
330
1F
100
AcDbEntity
  8
0
  6
Continuous
 62
   179
370
     0
100
AcDbLine
 10
-15.0
 20
-246.6146271237
 30
0.0
 11
15.0
 21
-246.6146271237
 31
0.0
  0
LINE
  5
A0
330
1F
100
AcDbEntity
  8
0
  6
Continuous
 62
   179
370
     0
100
AcDbLine
 10
36.0191501841
 20
-231.0756791846
 30
0.0
 11
36.0191501841
 21
-251.0756791846
 31
0.0
  0
LINE
  5
A1
330
1F
100
AcDbEntity
  8
0
  6
Continuous
 62
   179
370
     0
100
AcDbLine
 10
112.0
 20
-236.0606209499
 30
0.0
 11
112.0
 21
-246.0606209499
 31
0.0
  0
LINE
  5
A2
330
1F
100
AcDbEntity
  8
0
  6
Continuous
 62
   179
370
     0
100
AcDbLine
 10
-5.0191501841
 20
-228.0756791846
 30
0.0
 11
5.0191501841
 21
-228.0756791846
 31
0.0
  0
LINE
  5
A3
330
1F
100
AcDbEntity
  8
0
  6
Continuous
 62
   179
370
     0
100
AcDbLine
 10
72.0
 20
-236.0606209499
 30
0.0
 11
72.0
 21
-231.0606209499
 31
0.0
  0
LINE
  5
A4
330
1F
100
AcDbEntity
  8
0
  6
Continuous
 62
   179
370
     0
100
AcDbLine
 10
109.0
 20
-236.0606209499
 30
0.0
 11
109.0
 21
-231.0606209499
 31
0.0
  0
LINE
  5
A5
330
1F
100
AcDbEntity
  8
0
  6
Continuous
 62
   179
370
     0
100
AcDbLine
 10
5.0191501841
 20
-228.0756791846
 30
0.0
 11
5.0191501841
 21
-231.0756791846
 31
0.0
  0
LINE
  5
A6
330
1F
100
AcDbEntity
  8
0
  6
Continuous
 62
   179
370
     0
100
AcDbLine
 10
-34.0
 20
-236.0606275248
 30
0.0
 11
-34.0
 21
-246.0606275248
 31
0.0
  0
LINE
  5
A7
330
1F
100
AcDbEntity
  8
SLD-0
100
AcDbLine
 10
-22.9693105942
 20
-40.9217420068
 30
0.0
 11
0.0306894058
 21
-40.9217420068
 31
0.0
  0
LINE
  5
A8
330
1F
100
AcDbEntity
  8
SLD-0
100
AcDbLine
 10
-22.9693105942
 20
-40.9217420068
 30
0.0
 11
-22.9693105942
 21
-52.5
 31
0.0
  0
LINE
  5
A9
330
1F
100
AcDbEntity
  8
SLD-0
100
AcDbLine
 10
-25.0191501841
 20
-160.3869006254
 30
0.0
 11
-15.0191501841
 21
-160.3869006254
 31
0.0
  0
LINE
  5
AA
330
1F
100
AcDbEntity
  8
SLD-0
100
AcDbLine
 10
-25.0191501841
 20
-160.3869006254
 30
0.0
 11
-25.0191501841
 21
-163.3869006254
 31
0.0
  0
LINE
  5
AB
330
1F
100
AcDbEntity
  8
SLD-0
100
AcDbLine
 10
-25.0191501841
 20
-163.3869006254
 30
0.0
 11
-36.0191501841
 21
-163.3869006254
 31
0.0
  0
LINE
  5
AC
330
1F
100
AcDbEntity
  8
SLD-0
100
AcDbLine
 10
-15.0191501841
 20
-160.3869006254
 30
0.0
 11
-15.0191501841
 21
-163.3869006254
 31
0.0
  0
LINE
  5
AD
330
1F
100
AcDbEntity
  8
SLD-0
100
AcDbLine
 10
-5.0191501841
 20
-160.3869006254
 30
0.0
 11
5.0191501841
 21
-160.3869006254
 31
0.0
  0
LINE
  5
AE
330
1F
100
AcDbEntity
  8
SLD-0
100
AcDbLine
 10
-5.0191501841
 20
-160.3869006254
 30
0.0
 11
-5.0191501841
 21
-163.3869006254
 31
0.0
  0
LINE
  5
AF
330
1F
100
AcDbEntity
  8
SLD-0
100
AcDbLine
 10
-36.0191501841
 20
-163.3869006254
 30
0.0
 11
-36.0191501841
 21
-183.3869006254
 31
0.0
  0
LINE
  5
B0
330
1F
100
AcDbEntity
  8
SLD-0
100
AcDbLine
 10
5.0191501841
 20
-160.3869006254
 30
0.0
 11
5.0191501841
 21
-163.3869006254
 31
0.0
  0
LINE
  5
B1
330
1F
100
AcDbEntity
  8
SLD-0
100
AcDbLine
 10
14.9808498159
 20
-160.3869006254
 30
0.0
 11
24.9808498159
 21
-160.3869006254
 31
0.0
  0
LINE
  5
B2
330
1F
100
AcDbEntity
  8
SLD-0
100
AcDbLine
 10
14.9808498159
 20
-160.3869006254
 30
0.0
 11
14.9808498159
 21
-163.3869006254
 31
0.0
  0
LINE
  5
B3
330
1F
100
AcDbEntity
  8
SLD-0
100
AcDbLine
 10
24.9808498159
 20
-163.3869006254
 30
0.0
 11
36.0191501841
 21
-163.3869006254
 31
0.0
  0
LINE
  5
B4
330
1F
100
AcDbEntity
  8
SLD-0
100
AcDbLine
 10
24.9808498159
 20
-160.3869006254
 30
0.0
 11
24.9808498159
 21
-163.3869006254
 31
0.0
  0
LINE
  5
B5
330
1F
100
AcDbEntity
  8
SLD-0
100
AcDbLine
 10
5.0191501841
 20
-163.3869006254
 30
0.0
 11
14.9808498159
 21
-163.3869006254
 31
0.0
  0
LINE
  5
B6
330
1F
100
AcDbEntity
  8
SLD-0
100
AcDbLine
 10
36.0191501841
 20
-163.3869006254
 30
0.0
 11
36.0191501841
 21
-183.3869006254
 31
0.0
  0
LINE
  5
B7
330
1F
100
AcDbEntity
  8
SLD-0
100
AcDbLine
 10
36.0191501841
 20
-183.3869006254
 30
0.0
 11
-36.0191501841
 21
-183.3869006254
 31
0.0
  0
LINE
  5
B8
330
1F
100
AcDbEntity
  8
SLD-0
100
AcDbLine
 10
72.0
 20
-168.3718423907
 30
0.0
 11
72.0
 21
-163.3718423907
 31
0.0
  0
LINE
  5
B9
330
1F
100
AcDbEntity
  8
SLD-0
100
AcDbLine
 10
-34.0
 20
-168.3718489656
 30
0.0
 11
-31.0
 21
-168.3718489656
 31
0.0
  0
LINE
  5
BA
330
1F
100
AcDbEntity
  8
SLD-0
100
AcDbLine
 10
-34.0
 20
-168.3718489656
 30
0.0
 11
-34.0
 21
-178.3718489656
 31
0.0
  0
LINE
  5
BB
330
1F
100
AcDbEntity
  8
SLD-0
100
AcDbLine
 10
-34.0
 20
-178.3718489656
 30
0.0
 11
-31.0
 21
-178.3718489656
 31
0.0
  0
LINE
  5
BC
330
1F
100
AcDbEntity
  8
SLD-0
100
AcDbLine
 10
-31.0
 20
-168.3718489656
 30
0.0
 11
-31.0
 21
-178.3718489656
 31
0.0
  0
LINE
  5
BD
330
1F
100
AcDbEntity
  8
0
  6
Continuous
 62
   179
370
     0
100
AcDbLine
 10
95.5
 20
-228.0606209499
 30
0.0
 11
85.5
 21
-228.0606209499
 31
0.0
  0
LINE
  5
BE
330
1F
100
AcDbEntity
  8
SLD-0
  6
Continuous
 62
   179
370
     0
100
AcDbLine
 10
31.0
 20
-168.3718489656
 30
0.0
 11
31.0
 21
-178.3718489656
 31
0.0
  0
LINE
  5
BF
330
1F
100
AcDbEntity
  8
SLD-0
  6
Continuous
 62
   179
370
     0
100
AcDbLine
 10
34.0
 20
-178.3718489656
 30
0.0
 11
31.0
 21
-178.3718489656
 31
0.0
  0
LINE
  5
C0
330
1F
100
AcDbEntity
  8
SLD-0
  6
Continuous
 62
   179
370
     0
100
AcDbLine
 10
34.0
 20
-168.3718489656
 30
0.0
 11
34.0
 21
-178.3718489656
 31
0.0
  0
LINE
  5
C1
330
1F
100
AcDbEntity
  8
SLD-0
100
AcDbLine
 10
69.0
 20
-168.3718423907
 30
0.0
 11
72.0
 21
-168.3718423907
 31
0.0
  0
LINE
  5
C2
330
1F
100
AcDbEntity
  8
SLD-0
100
AcDbLine
 10
69.0
 20
-168.3718423907
 30
0.0
 11
69.0
 21
-178.3718423907
 31
0.0
  0
LINE
  5
C3
330
1F
100
AcDbEntity
  8
SLD-0
100
AcDbLine
 10
69.0
 20
-178.3718423907
 30
0.0
 11
72.0
 21
-178.3718423907
 31
0.0
  0
LINE
  5
C4
330
1F
100
AcDbEntity
  8
SLD-0
100
AcDbLine
 10
-22.9693105942
 20
-52.5
 30
0.0
 11
0.0306894058
 21
-52.5
 31
0.0
  0
LINE
  5
C5
330
1F
100
AcDbEntity
  8
SLD-0
100
AcDbLine
 10
72.0
 20
-178.3718423907
 30
0.0
 11
72.0
 21
-183.3718423907
 31
0.0
  0
LINE
  5
C6
330
1F
100
AcDbEntity
  8
SLD-0
100
AcDbLine
 10
72.0
 20
-183.3718423907
 30
0.0
 11
109.0
 21
-183.3718423907
 31
0.0
  0
LINE
  5
C7
330
1F
100
AcDbEntity
  8
SLD-0
  6
Continuous
 62
   179
370
     0
100
AcDbLine
 10
109.0
 20
-178.3718423907
 30
0.0
 11
109.0
 21
-183.3718423907
 31
0.0
  0
LINE
  5
C8
330
1F
100
AcDbEntity
  8
SLD-0
  6
Continuous
 62
   179
370
     0
100
AcDbLine
 10
112.0
 20
-178.3718423907
 30
0.0
 11
109.0
 21
-178.3718423907
 31
0.0
  0
LINE
  5
C9
330
1F
100
AcDbEntity
  8
SLD-0
  6
Continuous
 62
   179
370
     0
100
AcDbLine
 10
112.0
 20
-168.3718423907
 30
0.0
 11
112.0
 21
-178.3718423907
 31
0.0
  0
LINE
  5
CA
330
1F
100
AcDbEntity
  8
SLD-0
  6
Continuous
 62
   179
370
     0
100
AcDbLine
 10
112.0
 20
-168.3718423907
 30
0.0
 11
109.0
 21
-168.3718423907
 31
0.0
  0
LINE
  5
CB
330
1F
100
AcDbEntity
  8
SLD-0
  6
Continuous
 62
   179
370
     0
100
AcDbLine
 10
109.0
 20
-168.3718423907
 30
0.0
 11
109.0
 21
-163.3718423907
 31
0.0
  0
LINE
  5
CC
330
1F
100
AcDbEntity
  8
SLD-0
100
AcDbLine
 10
72.0
 20
-163.3718423907
 30
0.0
 11
85.5
 21
-163.3718423907
 31
0.0
  0
LINE
  5
CD
330
1F
100
AcDbEntity
  8
SLD-0
  6
Continuous
 62
   179
370
     0
100
AcDbLine
 10
95.5
 20
-160.3718423907
 30
0.0
 11
85.5
 21
-160.3718423907
 31
0.0
  0
LINE
  5
CE
330
1F
100
AcDbEntity
  8
SLD-0
100
AcDbLine
 10
85.5
 20
-160.3718423907
 30
0.0
 11
85.5
 21
-163.3718423907
 31
0.0
  0
LINE
  5
CF
330
1F
100
AcDbEntity
  8
SLD-0
  6
Continuous
 62
   179
370
     0
100
AcDbLine
 10
95.5
 20
-160.3718423907
 30
0.0
 11
95.5
 21
-163.3718423907
 31
0.0
  0
LINE
  5
D0
330
1F
100
AcDbEntity
  8
SLD-0
100
AcDbLine
 10
95.5
 20
-163.3718423907
 30
0.0
 11
109.0
 21
-163.3718423907
 31
0.0
  0
LINE
  5
D1
330
1F
100
AcDbEntity
  8
SLD-0
100
AcDbLine
 10
33.9389459305
 20
-81.5
 30
0.0
 11
30.9389459305
 21
-81.5
 31
0.0
  0
LINE
  5
D2
330
1F
100
AcDbEntity
  8
SLD-0
100
AcDbLine
 10
30.9389459305
 20
-81.5
 30
0.0
 11
30.9389459305
 21
-76.5000473384
 31
0.0
  0
LINE
  5
D3
330
1F
100
AcDbEntity
  8
SLD-0
100
AcDbLine
 10
30.9389459305
 20
-76.5000473384
 30
0.0
 11
30.9389459305
 21
-71.5
 31
0.0
  0
LINE
  5
D4
330
1F
100
AcDbEntity
  8
SLD-0
100
AcDbLine
 10
30.9389459305
 20
-71.5
 30
0.0
 11
33.9389459305
 21
-71.5
 31
0.0
  0
LINE
  5
D5
330
1F
100
AcDbEntity
  8
SLD-0
100
AcDbLine
 10
33.9389459305
 20
-71.5
 30
0.0
 11
33.9389459305
 21
-81.5
 31
0.0
  0
LINE
  5
D6
330
1F
100
AcDbEntity
  8
SLD-0
100
AcDbLine
 10
0.0306894058
 20
-40.9217420068
 30
0.0
 11
0.0306894058
 21
-52.5
 31
0.0
  0
LINE
  5
D7
330
1F
100
AcDbEntity
  8
SLD-0
  6
Continuous
 62
   179
370
     0
100
AcDbLine
 10
-34.0
 20
-71.5
 30
0.0
 11
-34.0
 21
-81.5
 31
0.0
  0
LINE
  5
D8
330
1F
100
AcDbEntity
  8
SLD-0
  6
Continuous
 62
   179
370
     0
100
AcDbLine
 10
-31.0
 20
-71.5
 30
0.0
 11
-34.0
 21
-71.5
 31
0.0
  0
LINE
  5
D9
330
1F
100
AcDbEntity
  8
SLD-0
  6
Continuous
 62
   179
370
     0
100
AcDbLine
 10
-31.0
 20
-76.5000473384
 30
0.0
 11
-31.0
 21
-71.5
 31
0.0
  0
LINE
  5
DA
330
1F
100
AcDbEntity
  8
SLD-0
  6
Continuous
 62
   179
370
     0
100
AcDbLine
 10
-31.0
 20
-81.5
 30
0.0
 11
-31.0
 21
-76.5000473384
 31
0.0
  0
LINE
  5
DB
330
1F
100
AcDbEntity
  8
SLD-0
  6
Continuous
 62
   179
370
     0
100
AcDbLine
 10
-34.0
 20
-81.5
 30
0.0
 11
-31.0
 21
-81.5
 31
0.0
  0
LINE
  5
DC
330
1F
100
AcDbEntity
  8
SLD-0
  6
Continuous
 62
   179
370
     0
100
AcDbLine
 10
34.0
 20
-168.3718489656
 30
0.0
 11
31.0
 21
-168.3718489656
 31
0.0
  0
LINE
  5
DD
330
1F
100
AcDbEntity
  8
SLD-0
100
AcDbLine
 10
0.0
 20
-180.9258485645
 30
0.0
 11
-15.0
 21
-180.9258485645
 31
0.0
  0
LINE
  5
DE
330
1F
100
AcDbEntity
  8
SLD-0
100
AcDbLine
 10
-15.0
 20
-180.9258485645
 30
0.0
 11
-15.0
 21
-178.9258485645
 31
0.0
  0
LINE
  5
DF
330
1F
100
AcDbEntity
  8
SLD-0
100
AcDbLine
 10
-15.0
 20
-178.9258485645
 30
0.0
 11
15.0
 21
-178.9258485645
 31
0.0
  0
LINE
  5
E0
330
1F
100
AcDbEntity
  8
SLD-0
100
AcDbLine
 10
15.0
 20
-178.9258485645
 30
0.0
 11
15.0
 21
-180.9258485645
 31
0.0
  0
LINE
  5
E1
330
1F
100
AcDbEntity
  8
SLD-0
100
AcDbLine
 10
15.0
 20
-180.9258485645
 30
0.0
 11
0.0
 21
-180.9258485645
 31
0.0
  0
LINE
  5
E2
330
1F
100
AcDbEntity
  8
0
  6
Continuous
 62
   179
370
     0
100
AcDbLine
 10
-15.0191501841
 20
-231.0756791846
 30
0.0
 11
-5.0191501841
 21
-231.0756791846
 31
0.0
  0
LINE
  5
E3
330
1F
100
AcDbEntity
  8
0
  6
Continuous
 62
   179
370
     0
100
AcDbLine
 10
-31.0
 20
-236.0606275248
 30
0.0
 11
-31.0
 21
-246.0606275248
 31
0.0
  0
LINE
  5
E4
330
1F
100
AcDbEntity
  8
0
  6
Continuous
 62
   179
370
     0
100
AcDbLine
 10
95.5
 20
-228.0606209499
 30
0.0
 11
95.5
 21
-231.0606209499
 31
0.0
  0
LINE
  5
E5
330
1F
100
AcDbEntity
  8
0
  6
Continuous
 62
   179
370
     0
100
AcDbLine
 10
34.0
 20
-246.0606275248
 30
0.0
 11
31.0
 21
-246.0606275248
 31
0.0
  0
LINE
  5
E6
330
1F
100
AcDbEntity
  8
0
  6
Continuous
 62
   179
370
     0
100
AcDbLine
 10
-25.0191501841
 20
-228.0756791846
 30
0.0
 11
-15.0191501841
 21
-228.0756791846
 31
0.0
  0
LINE
  5
E7
330
1F
100
AcDbEntity
  8
0
  6
Continuous
 62
   179
370
     0
100
AcDbLine
 10
69.0
 20
-236.0606209499
 30
0.0
 11
72.0
 21
-236.0606209499
 31
0.0
  0
LINE
  5
E8
330
1F
100
AcDbEntity
  8
0
  6
Continuous
 62
   179
370
     0
100
AcDbLine
 10
14.9808498159
 20
-228.0756791846
 30
0.0
 11
24.9808498159
 21
-228.0756791846
 31
0.0
  0
LINE
  5
E9
330
1F
100
AcDbEntity
  8
0
  6
Continuous
 62
   179
370
     0
100
AcDbLine
 10
69.0
 20
-246.0606209499
 30
0.0
 11
72.0
 21
-246.0606209499
 31
0.0
  0
LINE
  5
EA
330
1F
100
AcDbEntity
  8
0
  6
Continuous
 62
   179
370
     0
100
AcDbLine
 10
34.0
 20
-236.0606275248
 30
0.0
 11
31.0
 21
-236.0606275248
 31
0.0
  0
LINE
  5
EB
330
1F
100
AcDbEntity
  8
0
  6
Continuous
 62
   179
370
     0
100
AcDbLine
 10
104.7028920658
 20
-49.9869006254
 30
0.0
 11
107.7028920658
 21
-49.9869006254
 31
0.0
  0
LINE
  5
EC
330
1F
100
AcDbEntity
  8
0
  6
Continuous
 62
   179
370
     0
100
AcDbLine
 10
107.7028920658
 20
-49.9869006254
 30
0.0
 11
138.2555929447
 21
-49.9869006254
 31
0.0
  0
LINE
  5
ED
330
1F
100
AcDbEntity
  8
0
  6
Continuous
 62
   179
370
     0
100
AcDbLine
 10
151.7128920658
 20
-100.1369006254
 30
0.0
 11
153.4578920658
 21
-100.1369006254
 31
0.0
  0
LINE
  5
EE
330
1F
100
AcDbEntity
  8
0
  6
Continuous
 62
   179
370
     0
100
AcDbLine
 10
127.2007517861
 20
-90.6321972138
 30
0.0
 11
127.2007517861
 21
-100.6321972138
 31
0.0
  0
LINE
  5
EF
330
1F
100
AcDbEntity
  8
0
  6
Continuous
 62
   179
370
     0
100
AcDbLine
 10
104.7028920658
 20
-57.9869006254
 30
0.0
 11
107.7028920658
 21
-57.9869006254
 31
0.0
  0
LINE
  5
F0
330
1F
100
AcDbEntity
  8
0
  6
Continuous
 62
   179
370
     0
100
AcDbLine
 10
159.2028920658
 20
-59.4319521942
 30
0.0
 11
159.2028920658
 21
-79.3869006254
 31
0.0
  0
LINE
  5
F1
330
1F
100
AcDbEntity
  8
0
  6
Continuous
 62
   179
370
     0
100
AcDbLine
 10
104.7028920658
 20
-100.7869006254
 30
0.0
 11
104.7028920658
 21
-108.7869006254
 31
0.0
  0
LINE
  5
F2
330
1F
100
AcDbEntity
  8
0
  6
Continuous
 62
   179
370
     0
100
AcDbLine
 10
159.2028920658
 20
-99.3418490566
 30
0.0
 11
159.2028920658
 21
-79.3869006254
 31
0.0
  0
LINE
  5
F3
330
1F
100
AcDbEntity
  8
0
  6
Continuous
 62
   179
370
     0
100
AcDbLine
 10
151.7128920658
 20
-58.6369006255
 30
0.0
 11
153.4578920658
 21
-58.6369006255
 31
0.0
  0
LINE
  5
F4
330
1F
100
AcDbEntity
  8
0
  6
Continuous
 62
   179
370
     0
100
AcDbLine
 10
138.2555929447
 20
-108.7869006254
 30
0.0
 11
145.2424935701
 21
-115.7738012509
 31
0.0
  0
LINE
  5
F5
330
1F
100
AcDbEntity
  8
0
  6
Continuous
 62
   179
370
     0
100
AcDbLine
 10
124.2007517861
 20
-90.6321972138
 30
0.0
 11
124.2007517861
 21
-100.6321972138
 31
0.0
  0
LINE
  5
F6
330
1F
100
AcDbEntity
  8
0
  6
Continuous
 62
   179
370
     0
100
AcDbLine
 10
142.8266870823
 20
-103.1369006254
 30
0.0
 11
139.7496516338
 21
-99.8330085915
 31
0.0
  0
LINE
  5
F7
330
1F
100
AcDbEntity
  8
0
  6
Continuous
 62
   179
370
     0
100
AcDbLine
 10
104.7028920658
 20
-108.7869006254
 30
0.0
 11
107.7028920658
 21
-108.7869006254
 31
0.0
  0
LINE
  5
F8
330
1F
100
AcDbEntity
  8
0
  6
Continuous
 62
   179
370
     0
100
AcDbLine
 10
127.2007517861
 20
-68.6321972138
 30
0.0
 11
127.2007517861
 21
-58.6321972138
 31
0.0
  0
LINE
  5
F9
330
1F
100
AcDbEntity
  8
0
  6
Continuous
 62
   179
370
     0
100
AcDbLine
 10
124.2007517861
 20
-90.6321972138
 30
0.0
 11
127.2007517861
 21
-90.6321972138
 31
0.0
  0
LINE
  5
FA
330
1F
100
AcDbEntity
  8
0
  6
Continuous
 62
   179
370
     0
100
AcDbLine
 10
124.2007517861
 20
-100.6321972138
 30
0.0
 11
127.2007517861
 21
-100.6321972138
 31
0.0
  0
LINE
  5
FB
330
1F
100
AcDbEntity
  8
0
  6
Continuous
 62
   179
370
     0
100
AcDbLine
 10
124.2007517861
 20
-58.6321972138
 30
0.0
 11
127.2007517861
 21
-58.6321972138
 31
0.0
  0
LINE
  5
FC
330
1F
100
AcDbEntity
  8
0
  6
Continuous
 62
   179
370
     0
100
AcDbLine
 10
104.7028920658
 20
-100.7869006254
 30
0.0
 11
107.7028920658
 21
-100.7869006254
 31
0.0
  0
LINE
  5
FD
330
1F
100
AcDbEntity
  8
0
  6
Continuous
 62
   179
370
     0
100
AcDbLine
 10
107.7028920658
 20
-57.9869006254
 30
0.0
 11
107.7028920658
 21
-100.7869006254
 31
0.0
  0
LINE
  5
FE
330
1F
100
AcDbEntity
  8
0
  6
Continuous
 62
   179
370
     0
100
AcDbLine
 10
151.7128920658
 20
-103.1369006254
 30
0.0
 11
142.8266870823
 21
-103.1369006254
 31
0.0
  0
LINE
  5
FF
330
1F
100
AcDbEntity
  8
0
  6
Continuous
 62
   179
370
     0
100
AcDbLine
 10
124.2007517861
 20
-68.6321972138
 30
0.0
 11
124.2007517861
 21
-58.6321972138
 31
0.0
  0
LINE
  5
100
330
1F
100
AcDbEntity
  8
0
  6
Continuous
 62
   179
370
     0
100
AcDbLine
 10
124.2007517861
 20
-68.6321972138
 30
0.0
 11
127.2007517861
 21
-68.6321972138
 31
0.0
  0
LINE
  5
101
330
1F
100
AcDbEntity
  8
0
  6
Continuous
 62
   179
370
     0
100
AcDbLine
 10
107.7028920658
 20
-108.7869006254
 30
0.0
 11
138.2555929447
 21
-108.7869006254
 31
0.0
  0
LINE
  5
102
330
1F
100
AcDbEntity
  8
0
  6
Continuous
 62
   179
370
     0
100
AcDbLine
 10
138.2555929447
 20
-49.9869006254
 30
0.0
 11
145.2424935701
 21
-43.0
 31
0.0
  0
LINE
  5
103
330
1F
100
AcDbEntity
  8
0
  6
Continuous
 62
   179
370
     0
100
AcDbLine
 10
153.4578920658
 20
-58.6369006255
 30
0.0
 11
153.4578920658
 21
-100.1369006254
 31
0.0
  0
LINE
  5
104
330
1F
100
AcDbEntity
  8
0
  6
Continuous
 62
   179
370
     0
100
AcDbLine
 10
151.7128920658
 20
-100.1369006254
 30
0.0
 11
151.7128920658
 21
-103.1369006254
 31
0.0
  0
LINE
  5
105
330
1F
100
AcDbEntity
  8
0
  6
Continuous
 62
   179
370
     0
100
AcDbLine
 10
151.7128920658
 20
-55.6369006254
 30
0.0
 11
142.8266870823
 21
-55.6369006254
 31
0.0
  0
LINE
  5
106
330
1F
100
AcDbEntity
  8
0
  6
Continuous
 62
   179
370
     0
100
AcDbLine
 10
142.8266870823
 20
-55.6369006254
 30
0.0
 11
139.7496516338
 21
-58.9407926594
 31
0.0
  0
LINE
  5
107
330
1F
100
AcDbEntity
  8
0
  6
Continuous
 62
   179
370
     0
100
AcDbLine
 10
104.7028920658
 20
-49.9869006254
 30
0.0
 11
104.7028920658
 21
-57.9869006254
 31
0.0
  0
LINE
  5
108
330
1F
100
AcDbEntity
  8
0
  6
Continuous
 62
   179
370
     0
100
AcDbLine
 10
151.7128920658
 20
-58.6369006255
 30
0.0
 11
151.7128920658
 21
-55.6369006254
 31
0.0
  0
LINE
  5
109
330
1F
100
AcDbEntity
  8
SLD-0
100
AcDbLine
 10
49.5460057494
 20
-57.9869006254
 30
0.0
 11
49.5460057494
 21
-100.7869006254
 31
0.0
  0
LINE
  5
10A
330
1F
100
AcDbEntity
  8
SLD-0
100
AcDbLine
 10
101.0460057494
 20
-59.4319521942
 30
0.0
 11
101.0460057494
 21
-79.3869006254
 31
0.0
  0
LINE
  5
10B
330
1F
100
AcDbEntity
  8
SLD-0
100
AcDbLine
 10
66.0438654697
 20
-68.6321972138
 30
0.0
 11
66.0438654697
 21
-58.6321972138
 31
0.0
  0
LINE
  5
10C
330
1F
100
AcDbEntity
  8
SLD-0
  6
Continuous
 62
   179
370
     0
100
AcDbLine
 10
101.0460057494
 20
-99.3418490566
 30
0.0
 11
101.0460057494
 21
-79.3869006254
 31
0.0
  0
LINE
  5
10D
330
1F
100
AcDbEntity
  8
SLD-0
  6
Continuous
 62
   179
370
     0
100
AcDbLine
 10
49.5460057494
 20
-108.7869006254
 30
0.0
 11
80.0987066282
 21
-108.7869006254
 31
0.0
  0
LINE
  5
10E
330
1F
100
AcDbEntity
  8
SLD-0
  6
Continuous
 62
   179
370
     0
100
AcDbLine
 10
80.0987066282
 20
-108.7869006254
 30
0.0
 11
87.0856072537
 21
-115.7738012509
 31
0.0
  0
LINE
  5
10F
330
1F
100
AcDbEntity
  8
SLD-0
  6
Continuous
 62
   179
370
     0
100
AcDbLine
 10
93.5560057494
 20
-100.1369006254
 30
0.0
 11
93.5560057494
 21
-103.1369006254
 31
0.0
  0
LINE
  5
110
330
1F
100
AcDbEntity
  8
SLD-0
100
AcDbLine
 10
84.6698007659
 20
-103.1369006254
 30
0.0
 11
81.5927653174
 21
-99.8330085915
 31
0.0
  0
LINE
  5
111
330
1F
100
AcDbEntity
  8
SLD-0
100
AcDbLine
 10
84.6698007659
 20
-55.6369006254
 30
0.0
 11
81.5927653174
 21
-58.9407926594
 31
0.0
  0
LINE
  5
112
330
1F
100
AcDbEntity
  8
SLD-0
100
AcDbLine
 10
69.0438654697
 20
-68.6321972138
 30
0.0
 11
69.0438654697
 21
-58.6321972138
 31
0.0
  0
LINE
  5
113
330
1F
100
AcDbEntity
  8
SLD-0
100
AcDbLine
 10
40.6639199069
 20
7.3713939573
 30
0.0
 11
108.6639199069
 21
7.3713939573
 31
0.0
  0
LINE
  5
114
330
1F
100
AcDbEntity
  8
SLD-0
100
AcDbLine
 10
40.6639199069
 20
-34.6286060427
 30
0.0
 11
108.6639199069
 21
-34.6286060427
 31
0.0
  0
LINE
  5
115
330
1F
100
AcDbEntity
  8
SLD-0
100
AcDbLine
 10
40.6639199069
 20
7.3713939573
 30
0.0
 11
40.6639199069
 21
-2.6286060427
 31
0.0
  0
LINE
  5
116
330
1F
100
AcDbEntity
  8
SLD-0
100
AcDbLine
 10
40.6639199069
 20
-2.6286060427
 30
0.0
 11
43.6639199069
 21
-2.6286060427
 31
0.0
  0
LINE
  5
117
330
1F
100
AcDbEntity
  8
SLD-0
100
AcDbLine
 10
93.5560057494
 20
-58.6369006255
 30
0.0
 11
93.5560057494
 21
-55.6369006254
 31
0.0
  0
LINE
  5
118
330
1F
100
AcDbEntity
  8
SLD-0
  6
Continuous
 62
   179
370
     0
100
AcDbLine
 10
40.6639199069
 20
-24.6286060427
 30
0.0
 11
43.6639199069
 21
-24.6286060427
 31
0.0
  0
LINE
  5
119
330
1F
100
AcDbEntity
  8
SLD-0
  6
Continuous
 62
   179
370
     0
100
AcDbLine
 10
40.6639199069
 20
-34.6286060427
 30
0.0
 11
40.6639199069
 21
-24.6286060427
 31
0.0
  0
LINE
  5
11A
330
1F
100
AcDbEntity
  8
SLD-0
  6
Continuous
 62
   179
370
     0
100
AcDbLine
 10
105.6639199069
 20
-2.6286060427
 30
0.0
 11
105.6639199069
 21
-24.6286060427
 31
0.0
  0
LINE
  5
11B
330
1F
100
AcDbEntity
  8
SLD-0
100
AcDbLine
 10
43.6639199069
 20
-2.6286060427
 30
0.0
 11
43.6639199069
 21
-24.6286060427
 31
0.0
  0
LINE
  5
11C
330
1F
100
AcDbEntity
  8
SLD-0
  6
Continuous
 62
   179
370
     0
100
AcDbLine
 10
108.6639199069
 20
-34.6286060427
 30
0.0
 11
108.6639199069
 21
-24.6286060427
 31
0.0
  0
LINE
  5
11D
330
1F
100
AcDbEntity
  8
SLD-0
  6
Continuous
 62
   179
370
     0
100
AcDbLine
 10
108.6639199069
 20
-24.6286060427
 30
0.0
 11
105.6639199069
 21
-24.6286060427
 31
0.0
  0
LINE
  5
11E
330
1F
100
AcDbEntity
  8
SLD-0
  6
Continuous
 62
   179
370
     0
100
AcDbLine
 10
108.6639199069
 20
-2.6286060427
 30
0.0
 11
105.6639199069
 21
-2.6286060427
 31
0.0
  0
LINE
  5
11F
330
1F
100
AcDbEntity
  8
SLD-0
  6
Continuous
 62
   179
370
     0
100
AcDbLine
 10
108.6639199069
 20
7.3713939573
 30
0.0
 11
108.6639199069
 21
-2.6286060427
 31
0.0
  0
LINE
  5
120
330
1F
100
AcDbEntity
  8
SLD-0
100
AcDbLine
 10
58.6639199069
 20
-2.6286060427
 30
0.0
 11
90.6639199069
 21
-2.6286060427
 31
0.0
  0
LINE
  5
121
330
1F
100
AcDbEntity
  8
SLD-0
100
AcDbLine
 10
58.6639199069
 20
-2.6286060427
 30
0.0
 11
58.6639199069
 21
-24.6286060427
 31
0.0
  0
LINE
  5
122
330
1F
100
AcDbEntity
  8
SLD-0
100
AcDbLine
 10
58.6639199069
 20
-24.6286060427
 30
0.0
 11
90.6639199069
 21
-24.6286060427
 31
0.0
  0
LINE
  5
123
330
1F
100
AcDbEntity
  8
SLD-0
100
AcDbLine
 10
90.6639199069
 20
-2.6286060427
 30
0.0
 11
90.6639199069
 21
-24.6286060427
 31
0.0
  0
LINE
  5
124
330
1F
100
AcDbEntity
  8
SLD-0
  6
Continuous
 62
   179
370
     0
100
AcDbLine
 10
66.0438654697
 20
-100.6321972138
 30
0.0
 11
69.0438654697
 21
-100.6321972138
 31
0.0
  0
LINE
  5
125
330
1F
100
AcDbEntity
  8
SLD-0
100
AcDbLine
 10
80.0987066282
 20
-49.9869006254
 30
0.0
 11
87.0856072537
 21
-43.0
 31
0.0
  0
LINE
  5
126
330
1F
100
AcDbEntity
  8
SLD-0
100
AcDbLine
 10
-21.6656380252
 20
-35.4217420068
 30
0.0
 11
-11.6656380252
 21
-35.4217420068
 31
0.0
  0
LINE
  5
127
330
1F
100
AcDbEntity
  8
SLD-0
100
AcDbLine
 10
-21.6656380252
 20
-35.4217420068
 30
0.0
 11
-21.6656380252
 21
-38.4217420068
 31
0.0
  0
LINE
  5
128
330
1F
100
AcDbEntity
  8
SLD-0
100
AcDbLine
 10
-21.6656380252
 20
-38.4217420068
 30
0.0
 11
-11.6656380252
 21
-38.4217420068
 31
0.0
  0
LINE
  5
129
330
1F
100
AcDbEntity
  8
SLD-0
100
AcDbLine
 10
-11.6656380252
 20
-35.4217420068
 30
0.0
 11
-11.6656380252
 21
-38.4217420068
 31
0.0
  0
LINE
  5
12A
330
1F
100
AcDbEntity
  8
SLD-0
  6
Continuous
 62
   179
370
     0
100
AcDbLine
 10
12.3343619748
 20
-35.4217420068
 30
0.0
 11
12.3343619748
 21
-38.4217420068
 31
0.0
  0
LINE
  5
12B
330
1F
100
AcDbEntity
  8
SLD-0
  6
Continuous
 62
   179
370
     0
100
AcDbLine
 10
22.3343619748
 20
-38.4217420068
 30
0.0
 11
12.3343619748
 21
-38.4217420068
 31
0.0
  0
LINE
  5
12C
330
1F
100
AcDbEntity
  8
SLD-0
  6
Continuous
 62
   179
370
     0
100
AcDbLine
 10
22.3343619748
 20
-35.4217420068
 30
0.0
 11
22.3343619748
 21
-38.4217420068
 31
0.0
  0
LINE
  5
12D
330
1F
100
AcDbEntity
  8
SLD-0
  6
Continuous
 62
   179
370
     0
100
AcDbLine
 10
22.3343619748
 20
-35.4217420068
 30
0.0
 11
12.3343619748
 21
-35.4217420068
 31
0.0
  0
LINE
  5
12E
330
1F
100
AcDbEntity
  8
SLD-0
  6
Continuous
 62
   179
370
     0
100
AcDbLine
 10
20.6874674641
 20
48.4227983858
 30
0.0
 11
20.6874674641
 21
41.4227983858
 31
0.0
  0
LINE
  5
12F
330
1F
100
AcDbEntity
  8
SLD-0
  6
Continuous
 62
   179
370
     0
100
AcDbLine
 10
23.6874674641
 20
41.4227983858
 30
0.0
 11
20.6874674641
 21
41.4227983858
 31
0.0
  0
LINE
  5
130
330
1F
100
AcDbEntity
  8
SLD-0
100
AcDbLine
 10
-23.7485215337
 20
48.4227983858
 30
0.0
 11
-20.7485215337
 21
48.4227983858
 31
0.0
  0
LINE
  5
131
330
1F
100
AcDbEntity
  8
SLD-0
100
AcDbLine
 10
-23.7485215337
 20
48.4227983858
 30
0.0
 11
-23.7485215337
 21
41.4227983858
 31
0.0
  0
LINE
  5
132
330
1F
100
AcDbEntity
  8
SLD-0
100
AcDbLine
 10
-23.7485215337
 20
41.4227983858
 30
0.0
 11
-20.7485215337
 21
41.4227983858
 31
0.0
  0
LINE
  5
133
330
1F
100
AcDbEntity
  8
SLD-0
100
AcDbLine
 10
-20.7485215337
 20
48.4227983858
 30
0.0
 11
-20.7485215337
 21
41.4227983858
 31
0.0
  0
LINE
  5
134
330
1F
100
AcDbEntity
  8
SLD-0
  6
Continuous
 62
   179
370
     0
100
AcDbLine
 10
23.6874674641
 20
48.4227983858
 30
0.0
 11
23.6874674641
 21
41.4227983858
 31
0.0
  0
LINE
  5
135
330
1F
100
AcDbEntity
  8
SLD-0
  6
Continuous
 62
   179
370
     0
100
AcDbLine
 10
23.6874674641
 20
48.4227983858
 30
0.0
 11
20.6874674641
 21
48.4227983858
 31
0.0
  0
LINE
  5
136
330
1F
100
AcDbEntity
  8
SLD-0
100
AcDbLine
 10
93.5560057494
 20
-58.6369006255
 30
0.0
 11
95.3010057494
 21
-58.6369006255
 31
0.0
  0
LINE
  5
137
330
1F
100
AcDbEntity
  8
SLD-0
100
AcDbLine
 10
-1.5
 20
41.4227983858
 30
0.0
 11
1.5
 21
41.4227983858
 31
0.0
  0
LINE
  5
138
330
1F
100
AcDbEntity
  8
SLD-0
100
AcDbLine
 10
-1.5
 20
41.4227983858
 30
0.0
 11
-1.5
 21
48.4227983858
 31
0.0
  0
LINE
  5
139
330
1F
100
AcDbEntity
  8
SLD-0
100
AcDbLine
 10
-1.5
 20
48.4227983858
 30
0.0
 11
1.5
 21
48.4227983858
 31
0.0
  0
LINE
  5
13A
330
1F
100
AcDbEntity
  8
SLD-0
100
AcDbLine
 10
1.5
 20
41.4227983858
 30
0.0
 11
1.5
 21
48.4227983858
 31
0.0
  0
LINE
  5
13B
330
1F
100
AcDbEntity
  8
SLD-0
100
AcDbLine
 10
66.0438654697
 20
-68.6321972138
 30
0.0
 11
69.0438654697
 21
-68.6321972138
 31
0.0
  0
LINE
  5
13C
330
1F
100
AcDbEntity
  8
SLD-0
100
AcDbLine
 10
46.5460057494
 20
-100.7869006254
 30
0.0
 11
46.5460057494
 21
-108.7869006254
 31
0.0
  0
LINE
  5
13D
330
1F
100
AcDbEntity
  8
SLD-0
100
AcDbLine
 10
93.5560057494
 20
-103.1369006254
 30
0.0
 11
84.6698007659
 21
-103.1369006254
 31
0.0
  0
LINE
  5
13E
330
1F
100
AcDbEntity
  8
SLD-0
100
AcDbLine
 10
46.5460057494
 20
-57.9869006254
 30
0.0
 11
49.5460057494
 21
-57.9869006254
 31
0.0
  0
LINE
  5
13F
330
1F
100
AcDbEntity
  8
SLD-0
100
AcDbLine
 10
46.5460057494
 20
-100.7869006254
 30
0.0
 11
49.5460057494
 21
-100.7869006254
 31
0.0
  0
LINE
  5
140
330
1F
100
AcDbEntity
  8
SLD-0
100
AcDbLine
 10
49.5460057494
 20
-49.9869006254
 30
0.0
 11
80.0987066282
 21
-49.9869006254
 31
0.0
  0
LINE
  5
141
330
1F
100
AcDbEntity
  8
SLD-0
100
AcDbLine
 10
66.0438654697
 20
-58.6321972138
 30
0.0
 11
69.0438654697
 21
-58.6321972138
 31
0.0
  0
LINE
  5
142
330
1F
100
AcDbEntity
  8
SLD-0
100
AcDbLine
 10
93.5560057494
 20
-100.1369006254
 30
0.0
 11
95.3010057494
 21
-100.1369006254
 31
0.0
  0
CIRCLE
  5
143
330
1F
100
AcDbEntity
  8
SLD-0
100
AcDbCircle
 10
-34.92
 20
47.5123382643
 30
0.0
 40
1.500000000000008
  0
CIRCLE
  5
144
330
1F
100
AcDbEntity
  8
SLD-0
100
AcDbCircle
 10
34.92
 20
47.5123382643
 30
0.0
 40
1.500000000000001
  0
CIRCLE
  5
145
330
1F
100
AcDbEntity
  8
SLD-0
100
AcDbCircle
 10
-15.0
 20
44.9227983858
 30
0.0
 40
2.999999999999999
  0
ARC
  5
146
330
1F
100
AcDbEntity
  8
0
  6
Continuous
 62
   179
370
     0
100
AcDbCircle
 10
143.801610091
 20
-100.403369661
 30
0.0
 40
15.43782084554545
100
AcDbArc
 50
275.3554759123
 51
3.9428285153
  0
CIRCLE
  5
147
330
1F
100
AcDbEntity
  8
SLD-0
100
AcDbCircle
 10
24.1843619748
 20
22.2432169799
 30
0.0
 40
1.5
  0
CIRCLE
  5
148
330
1F
100
AcDbEntity
  8
SLD-0
100
AcDbCircle
 10
-19.3156380252
 20
-28.6067830201
 30
0.0
 40
1.500000000000002
  0
ARC
  5
149
330
1F
100
AcDbEntity
  8
0
  6
Continuous
 62
   179
370
     0
100
AcDbCircle
 10
143.801610091
 20
-58.3704315899
 30
0.0
 40
15.43782084554546
100
AcDbArc
 50
356.0571714847
 51
84.6445240877
  0
ARC
  5
14A
330
1F
100
AcDbEntity
  8
0
  6
Continuous
 62
   179
370
     0
100
AcDbCircle
 10
161.7031631762
 20
-79.3869006254
 30
0.0
 40
30.00000000000011
100
AcDbArc
 50
137.0361385989
 51
222.9638614011
  0
CIRCLE
  5
14B
330
1F
100
AcDbEntity
  8
SLD-0
100
AcDbCircle
 10
8.6843619748
 20
-28.6067830201
 30
0.0
 40
1.5
  0
CIRCLE
  5
14C
330
1F
100
AcDbEntity
  8
SLD-0
100
AcDbCircle
 10
-23.8156380252
 20
22.24321698
 30
0.0
 40
1.500000000000003
  0
ARC
  5
14D
330
1F
100
AcDbEntity
  8
SLD-0
100
AcDbCircle
 10
85.6447237746
 20
-58.3704315899
 30
0.0
 40
15.43782084554546
100
AcDbArc
 50
356.0571714847
 51
84.6445240877
  0
CIRCLE
  5
14E
330
1F
100
AcDbEntity
  8
SLD-0
100
AcDbCircle
 10
-25.0
 20
-6.0
 30
0.0
 40
1.499999999999999
  0
CIRCLE
  5
14F
330
1F
100
AcDbEntity
  8
SLD-0
100
AcDbCircle
 10
25.0
 20
-6.0
 30
0.0
 40
1.499999999999999
  0
ARC
  5
150
330
1F
100
AcDbEntity
  8
SLD-0
  6
Continuous
 62
   179
370
     0
100
AcDbCircle
 10
85.6447237746
 20
-100.403369661
 30
0.0
 40
15.43782084554545
100
AcDbArc
 50
275.3554759123
 51
3.9428285153
  0
ARC
  5
151
330
1F
100
AcDbEntity
  8
SLD-0
100
AcDbCircle
 10
103.5462768598
 20
-79.3869006254
 30
0.0
 40
30.00000000000012
100
AcDbArc
 50
137.0361385989
 51
222.9638614011
  0
MTEXT
  5
153
330
1F
100
AcDbEntity
  8
0
  6
Continuous
 62
     7
100
AcDbMText
 10
0.0
 20
41.6694529712
 30
0.0
 40
14.94028
 41
0.0
 71
     1
 72
     1
  1
SolidWorks Educational Edition.
  7
SLDTEXTSTYLE0
 73
     1
 44
1.0
  0
MTEXT
  5
154
330
1F
100
AcDbEntity
  8
0
  6
Continuous
 62
     7
100
AcDbMText
 10
0.0
 20
19.2590329712
 30
0.0
 40
14.94028
 41
0.0
 71
     1
 72
     1
  1
For Instructional Use Only.
  7
SLDTEXTSTYLE0
 73
     1
 44
1.0
  0
ENDSEC
  0
SECTION
  2
OBJECTS
  0
DICTIONARY
  5
C
330
0
100
AcDbDictionary
281
     1
  3
ACAD_GROUP
350
D
  3
ACAD_LAYOUT
350
1A
  3
ACAD_MLINESTYLE
350
17
  3
ACAD_PLOTSETTINGS
350
19
  3
ACAD_PLOTSTYLENAME
350
E
  0
DICTIONARY
  5
D
102
{ACAD_REACTORS
330
C
102
}
330
C
100
AcDbDictionary
281
     1
  0
DICTIONARY
  5
1A
102
{ACAD_REACTORS
330
C
102
}
330
C
100
AcDbDictionary
281
     1
  3
Layout1
350
1E
  3
Layout2
350
26
  3
Model
350
22
  0
DICTIONARY
  5
17
102
{ACAD_REACTORS
330
C
102
}
330
C
100
AcDbDictionary
281
     1
  3
Standard
350
18
  0
DICTIONARY
  5
19
102
{ACAD_REACTORS
330
C
102
}
330
C
100
AcDbDictionary
281
     1
  0
ACDBDICTIONARYWDFLT
  5
E
102
{ACAD_REACTORS
330
C
102
}
330
C
100
AcDbDictionary
281
     1
  3
Normal
350
F
100
AcDbDictionaryWithDefault
340
F
  0
LAYOUT
  5
1E
102
{ACAD_REACTORS
330
1A
102
}
330
1A
100
AcDbPlotSettings
  1

  2
none_device
  4

  6

 40
0.0
 41
0.0
 42
0.0
 43
0.0
 44
0.0
 45
0.0
 46
0.0
 47
0.0
 48
0.0
 49
0.0
140
0.0
141
0.0
142
1.0
143
1.0
 70
   688
 72
     0
 73
     0
 74
     5
  7

 75
    16
147
1.0
148
0.0
149
0.0
100
AcDbLayout
  1
Layout1
 70
     1
 71
     1
 10
0.0
 20
0.0
 11
420.0
 21
297.0
 12
0.0
 22
0.0
 32
0.0
 14
1.0000000000E+20
 24
1.0000000000E+20
 34
1.0000000000E+20
 15
-1.0000000000E+20
 25
-1.0000000000E+20
 35
-1.0000000000E+20
146
0.0
 13
0.0
 23
0.0
 33
0.0
 16
1.0
 26
0.0
 36
0.0
 17
0.0
 27
1.0
 37
0.0
 76
     0
330
1B
  0
LAYOUT
  5
26
102
{ACAD_REACTORS
330
1A
102
}
330
1A
100
AcDbPlotSettings
  1

  2
none_device
  4

  6

 40
0.0
 41
0.0
 42
0.0
 43
0.0
 44
0.0
 45
0.0
 46
0.0
 47
0.0
 48
0.0
 49
0.0
140
0.0
141
0.0
142
1.0
143
1.0
 70
   688
 72
     0
 73
     0
 74
     5
  7

 75
    16
147
1.0
148
0.0
149
0.0
100
AcDbLayout
  1
Layout2
 70
     1
 71
     2
 10
0.0
 20
0.0
 11
0.0
 21
0.0
 12
0.0
 22
0.0
 32
0.0
 14
0.0
 24
0.0
 34
0.0
 15
0.0
 25
0.0
 35
0.0
146
0.0
 13
0.0
 23
0.0
 33
0.0
 16
1.0
 26
0.0
 36
0.0
 17
0.0
 27
1.0
 37
0.0
 76
     0
330
23
  0
LAYOUT
  5
22
102
{ACAD_REACTORS
330
1A
102
}
330
1A
100
AcDbPlotSettings
  1

  2
none_device
  4

  6

 40
0.0
 41
0.0
 42
0.0
 43
0.0
 44
0.0
 45
0.0
 46
0.0
 47
0.0
 48
0.0
 49
0.0
140
0.0
141
0.0
142
1.0
143
1.0
 70
  1712
 72
     0
 73
     0
 74
     0
  7

 75
     0
147
1.0
148
0.0
149
0.0
100
AcDbLayout
  1
Model
 70
     1
 71
     0
 10
0.0
 20
0.0
 11
1117.6
 21
863.6
 12
0.0
 22
0.0
 32
0.0
 14
0.0
 24
0.0
 34
0.0
 15
1117.6
 25
863.6
 35
0.0
146
0.0
 13
0.0
 23
0.0
 33
0.0
 16
1.0
 26
0.0
 36
0.0
 17
0.0
 27
1.0
 37
0.0
 76
     0
330
1F
331
29
  0
MLINESTYLE
  5
18
102
{ACAD_REACTORS
330
17
102
}
330
17
100
AcDbMlineStyle
  2
Standard
 70
     0
  3

 62
   256
 51
90.0
 52
90.0
 71
     2
 49
0.5
 62
   256
  6
BYLAYER
 49
-0.5
 62
   256
  6
BYLAYER
  0
ACDBPLACEHOLDER
  5
F
102
{ACAD_REACTORS
330
E
102
}
330
E
  0
ENDSEC
  0
EOF
