  0
SECTION
  2
HEADER
  9
$ACADVER
  1
AC1015
  9
$ACADMAINTVER
 70
     6
  9
$DWGCODEPAGE
  3
ANSI_1252
  9
$INSBASE
 10
0.0
 20
0.0
 30
0.0
  9
$EXTMIN
 10
0.0
 20
0.0
 30
0.0
  9
$EXTMAX
 10
1117.6
 20
863.6
 30
0.0
  9
$LIMMIN
 10
0.0
 20
0.0
  9
$LIMMAX
 10
1117.6
 20
863.6
  9
$ORTHOMODE
 70
     0
  9
$REGENMODE
 70
     1
  9
$FILLMODE
 70
     1
  9
$QTEXTMODE
 70
     0
  9
$MIRRTEXT
 70
     1
  9
$LTSCALE
 40
1.0
  9
$ATTMODE
 70
     1
  9
$TEXTSIZE
 40
3.5
  9
$TRACEWID
 40
1.0
  9
$TEXTSTYLE
  7
Standard
  9
$CLAYER
  8
0
  9
$CELTYPE
  6
ByLayer
  9
$CECOLOR
 62
   256
  9
$CELTSCALE
 40
1.0
  9
$DISPSILH
 70
     0
  9
$DIMSCALE
 40
1.0
  9
$DIMASZ
 40
3.302
  9
$DIMEXO
 40
1.0
  9
$DIMDLI
 40
3.75
  9
$DIMRND
 40
0.0
  9
$DIMDLE
 40
0.0
  9
$DIMEXE
 40
1.0
  9
$DIMTP
 40
0.0
  9
$DIMTM
 40
0.0
  9
$DIMTXT
 40
3.5
  9
$DIMCEN
 40
2.5
  9
$DIMTSZ
 40
0.0
  9
$DIMTOL
 70
     0
  9
$DIMLIM
 70
     0
  9
$DIMTIH
 70
     1
  9
$DIMTOH
 70
     1
  9
$DIMSE1
 70
     0
  9
$DIMSE2
 70
     0
  9
$DIMTAD
 70
     1
  9
$DIMZIN
 70
     1
  9
$DIMBLK
  1

  9
$DIMASO
 70
     1
  9
$DIMSHO
 70
     1
  9
$DIMPOST
  1

  9
$DIMAPOST
  1

  9
$DIMALT
 70
     0
  9
$DIMALTD
 70
     3
  9
$DIMALTF
 40
0.0393700787
  9
$DIMLFAC
 40
1.0
  9
$DIMTOFL
 70
     1
  9
$DIMTVP
 40
0.0
  9
$DIMTIX
 70
     0
  9
$DIMSOXD
 70
     0
  9
$DIMSAH
 70
     0
  9
$DIMBLK1
  1

  9
$DIMBLK2
  1

  9
$DIMSTYLE
  2
ISO-25
  9
$DIMCLRD
 70
     0
  9
$DIMCLRE
 70
     0
  9
$DIMCLRT
 70
     0
  9
$DIMTFAC
 40
1.0
  9
$DIMGAP
 40
1.524
  9
$DIMJUST
 70
     0
  9
$DIMSD1
 70
     0
  9
$DIMSD2
 70
     0
  9
$DIMTOLJ
 70
     0
  9
$DIMTZIN
 70
     1
  9
$DIMALTZ
 70
     0
  9
$DIMALTTZ
 70
     0
  9
$DIMUPT
 70
     0
  9
$DIMDEC
 70
     0
  9
$DIMTDEC
 70
     4
  9
$DIMALTU
 70
     2
  9
$DIMALTTD
 70
     3
  9
$DIMTXSTY
  7
Standard
  9
$DIMAUNIT
 70
     0
  9
$DIMADEC
 70
     0
  9
$DIMALTRND
 40
0.0
  9
$DIMAZIN
 70
     0
  9
$DIMDSEP
 70
    44
  9
$DIMATFIT
 70
     3
  9
$DIMFRAC
 70
     0
  9
$DIMLDRBLK
  1

  9
$DIMLUNIT
 70
     2
  9
$DIMLWD
 70
    -2
  9
$DIMLWE
 70
    -2
  9
$DIMTMOVE
 70
     0
  9
$LUNITS
 70
     2
  9
$LUPREC
 70
     4
  9
$SKETCHINC
 40
1.0
  9
$FILLETRAD
 40
10.0
  9
$AUNITS
 70
     0
  9
$AUPREC
 70
     0
  9
$MENU
  1
.
  9
$ELEVATION
 40
0.0
  9
$PELEVATION
 40
0.0
  9
$THICKNESS
 40
0.0
  9
$LIMCHECK
 70
     0
  9
$CHAMFERA
 40
10.0
  9
$CHAMFERB
 40
10.0
  9
$CHAMFERC
 40
20.0
  9
$CHAMFERD
 40
0.0
  9
$SKPOLY
 70
     0
  9
$TDCREATE
 40
2456419.721850104
  9
$TDUCREATE
 40
2456419.221850104
  9
$TDUPDATE
 40
2456419.721850382
  9
$TDUUPDATE
 40
2456419.221850382
  9
$TDINDWG
 40
0.0000000116
  9
$TDUSRTIMER
 40
0.0000000116
  9
$USRTIMER
 70
     1
  9
$ANGBASE
 50
0.0
  9
$ANGDIR
 70
     0
  9
$PDMODE
 70
     0
  9
$PDSIZE
 40
-1.0
  9
$PLINEWID
 40
0.0
  9
$SPLFRAME
 70
     0
  9
$SPLINETYPE
 70
     6
  9
$SPLINESEGS
 70
     8
  9
$HANDSEED
  5
157
  9
$SURFTAB1
 70
     6
  9
$SURFTAB2
 70
     6
  9
$SURFTYPE
 70
     6
  9
$SURFU
 70
     6
  9
$SURFV
 70
     6
  9
$UCSBASE
  2

  9
$UCSNAME
  2

  9
$UCSORG
 10
0.0
 20
0.0
 30
0.0
  9
$UCSXDIR
 10
1.0
 20
0.0
 30
0.0
  9
$UCSYDIR
 10
0.0
 20
1.0
 30
0.0
  9
$UCSORTHOREF
  2

  9
$UCSORTHOVIEW
 70
     0
  9
$UCSORGTOP
 10
0.0
 20
0.0
 30
0.0
  9
$UCSORGBOTTOM
 10
0.0
 20
0.0
 30
0.0
  9
$UCSORGLEFT
 10
0.0
 20
0.0
 30
0.0
  9
$UCSORGRIGHT
 10
0.0
 20
0.0
 30
0.0
  9
$UCSORGFRONT
 10
0.0
 20
0.0
 30
0.0
  9
$UCSORGBACK
 10
0.0
 20
0.0
 30
0.0
  9
$PUCSBASE
  2

  9
$PUCSNAME
  2

  9
$PUCSORG
 10
0.0
 20
0.0
 30
0.0
  9
$PUCSXDIR
 10
1.0
 20
0.0
 30
0.0
  9
$PUCSYDIR
 10
0.0
 20
1.0
 30
0.0
  9
$PUCSORTHOREF
  2

  9
$PUCSORTHOVIEW
 70
     0
  9
$PUCSORGTOP
 10
0.0
 20
0.0
 30
0.0
  9
$PUCSORGBOTTOM
 10
0.0
 20
0.0
 30
0.0
  9
$PUCSORGLEFT
 10
0.0
 20
0.0
 30
0.0
  9
$PUCSORGRIGHT
 10
0.0
 20
0.0
 30
0.0
  9
$PUCSORGFRONT
 10
0.0
 20
0.0
 30
0.0
  9
$PUCSORGBACK
 10
0.0
 20
0.0
 30
0.0
  9
$USERI1
 70
     0
  9
$USERI2
 70
     0
  9
$USERI3
 70
     0
  9
$USERI4
 70
     0
  9
$USERI5
 70
     0
  9
$USERR1
 40
0.0
  9
$USERR2
 40
0.0
  9
$USERR3
 40
0.0
  9
$USERR4
 40
0.0
  9
$USERR5
 40
0.0
  9
$WORLDVIEW
 70
     1
  9
$SHADEDGE
 70
     3
  9
$SHADEDIF
 70
    70
  9
$TILEMODE
 70
     1
  9
$MAXACTVP
 70
    64
  9
$PINSBASE
 10
0.0
 20
0.0
 30
0.0
  9
$PLIMCHECK
 70
     0
  9
$PEXTMIN
 10
1.0000000000E+20
 20
1.0000000000E+20
 30
1.0000000000E+20
  9
$PEXTMAX
 10
-1.0000000000E+20
 20
-1.0000000000E+20
 30
-1.0000000000E+20
  9
$PLIMMIN
 10
0.0
 20
0.0
  9
$PLIMMAX
 10
420.0
 20
297.0
  9
$UNITMODE
 70
     0
  9
$VISRETAIN
 70
     1
  9
$PLINEGEN
 70
     0
  9
$PSLTSCALE
 70
     1
  9
$TREEDEPTH
 70
  3020
  9
$CMLSTYLE
  2
Standard
  9
$CMLJUST
 70
     0
  9
$CMLSCALE
 40
20.0
  9
$PROXYGRAPHICS
 70
     1
  9
$MEASUREMENT
 70
     1
  9
$CELWEIGHT
370
    -1
  9
$ENDCAPS
280
     0
  9
$JOINSTYLE
280
     0
  9
$LWDISPLAY
290
     1
  9
$INSUNITS
 70
     4
  9
$HYPERLINKBASE
  1

  9
$STYLESHEET
  1

  9
$XEDIT
290
     1
  9
$CEPSNTYPE
380
     0
  9
$PSTYLEMODE
290
     1
  9
$FINGERPRINTGUID
  2
{EF5F9A65-49DC-4847-A4EC-20DAEE1E2164}
  9
$VERSIONGUID
  2
{FAEB1C32-E019-11D5-929B-00C0DF256EC4}
  9
$EXTNAMES
290
     1
  9
$PSVPSCALE
 40
0.0
  9
$OLESTARTUP
290
     0
  0
ENDSEC
  0
SECTION
  2
CLASSES
  0
CLASS
  1
ACDBDICTIONARYWDFLT
  2
AcDbDictionaryWithDefault
  3
ObjectDBX Classes
 90
        0
280
     0
281
     0
  0
CLASS
  1
VISUALSTYLE
  2
AcDbVisualStyle
  3
ObjectDBX Classes
 90
     4095
280
     0
281
     0
  0
CLASS
  1
MATERIAL
  2
AcDbMaterial
  3
ObjectDBX Classes
 90
     1153
280
     0
281
     0
  0
CLASS
  1
ACDBPLACEHOLDER
  2
AcDbPlaceHolder
  3
ObjectDBX Classes
 90
        0
280
     0
281
     0
  0
CLASS
  1
LAYOUT
  2
AcDbLayout
  3
ObjectDBX Classes
 90
        0
280
     0
281
     0
  0
ENDSEC
  0
SECTION
  2
TABLES
  0
TABLE
  2
VPORT
  5
8
330
0
100
AcDbSymbolTable
 70
     1
  0
VPORT
  5
29
330
8
100
AcDbSymbolTableRecord
100
AcDbViewportTableRecord
  2
*Active
 70
     0
 10
0.0
 20
0.0
 11
1.0
 21
1.0
 12
558.8
 22
431.8
 13
0.0
 23
0.0
 14
10.0
 24
10.0
 15
10.0
 25
10.0
 16
0.0
 26
0.0
 36
1.0
 17
0.0
 27
0.0
 37
0.0
 40
863.6
 41
1.2941176471
 42
50.0
 43
0.0
 44
0.0
 50
0.0
 51
0.0
 71
     0
 72
  2000
 73
     1
 74
     3
 75
     0
 76
     0
 77
     0
 78
     0
281
     0
 65
     1
110
0.0
120
0.0
130
0.0
111
1.0
121
0.0
131
0.0
112
0.0
122
1.0
132
0.0
 79
     0
146
0.0
  0
ENDTAB
  0
TABLE
  2
LTYPE
  5
5
330
0
100
AcDbSymbolTable
 70
     6
  0
LTYPE
  5
14
330
5
100
AcDbSymbolTableRecord
100
AcDbLinetypeTableRecord
  2
ByBlock
 70
     0
  3

 72
    65
 73
     0
 40
0.0
  0
LTYPE
  5
15
330
5
100
AcDbSymbolTableRecord
100
AcDbLinetypeTableRecord
  2
ByLayer
 70
     0
  3

 72
    65
 73
     0
 40
0.0
  0
LTYPE
  5
16
330
5
100
AcDbSymbolTableRecord
100
AcDbLinetypeTableRecord
  2
Continuous
 70
     0
  3
Solid line
 72
    65
 73
     0
 40
0.0
  0
LTYPE
  5
3F
330
5
100
AcDbSymbolTableRecord
100
AcDbLinetypeTableRecord
  2
HIDDEN
 70
     0
  3
Hidden __ __ __ __ __ __ __ __ __ __ __ __ __ __
 72
    65
 73
     2
 40
1.905
 49
1.27
 74
     0
 49
-0.635
 74
     0
  0
LTYPE
  5
40
330
5
100
AcDbSymbolTableRecord
100
AcDbLinetypeTableRecord
  2
PHANTOM
 70
     0
  3
Phantom ______  __  __  ______  __  __  ______
 72
    65
 73
     6
 40
12.7
 49
6.35
 74
     0
 49
-1.27
 74
     0
 49
1.27
 74
     0
 49
-1.27
 74
     0
 49
1.27
 74
     0
 49
-1.27
 74
     0
  0
LTYPE
  5
41
330
5
100
AcDbSymbolTableRecord
100
AcDbLinetypeTableRecord
  2
CENTER
 70
     0
  3
Center ____ _ ____ _ ____ _ ____ _ ____ _ ____
 72
    65
 73
     4
 40
10.16
 49
6.35
 74
     0
 49
-1.27
 74
     0
 49
1.27
 74
     0
 49
-1.27
 74
     0
  0
LTYPE
  5
42
330
5
100
AcDbSymbolTableRecord
100
AcDbLinetypeTableRecord
  2
CENTERX2
 70
     0
  3
Center (2x) ________  __  ________  __  _____
 72
    65
 73
     4
 40
20.32
 49
12.7
 74
     0
 49
-2.54
 74
     0
 49
2.54
 74
     0
 49
-2.54
 74
     0
  0
LTYPE
  5
43
330
5
100
AcDbSymbolTableRecord
100
AcDbLinetypeTableRecord
  2
DOT2
 70
     0
  3
Dot (.5x) ........................................
 72
    65
 73
     2
 40
0.635
 49
0.0
 74
     0
 49
-0.635
 74
     0
  0
ENDTAB
  0
TABLE
  2
LAYER
  5
2
330
0
100
AcDbSymbolTable
 70
     3
  0
LAYER
  5
10
330
2
100
AcDbSymbolTableRecord
100
AcDbLayerTableRecord
  2
0
 70
     0
 62
     7
  6
Continuous
370
    -3
390
F
  0
LAYER
  5
44
330
2
100
AcDbSymbolTableRecord
100
AcDbLayerTableRecord
  2
SLD-0
 70
     0
 62
   179
  6
Continuous
370
    -3
390
F
  0
LAYER
  5
45
330
2
100
AcDbSymbolTableRecord
100
AcDbLayerTableRecord
  2
PYDXF
 70
     0
 62
   179
  6
Continuous
370
    -3
390
F
  0
ENDTAB
  0
TABLE
  2
STYLE
  5
3
330
0
100
AcDbSymbolTable
 70
     2
  0
STYLE
  5
11
330
3
100
AcDbSymbolTableRecord
100
AcDbTextStyleTableRecord
  2
Standard
 70
     0
 40
0.0
 41
1.0
 50
0.0
 71
     0
 42
3.5
  3
txt
  4

  0
STYLE
  5
154
330
3
100
AcDbSymbolTableRecord
100
AcDbTextStyleTableRecord
  2
SLDTEXTSTYLE0
 70
     0
 40
0.0
 41
0.7
 50
0.0
 71
     0
 42
0.2
  3
TXT
  4

  0
ENDTAB
  0
TABLE
  2
VIEW
  5
6
330
0
100
AcDbSymbolTable
 70
     0
  0
ENDTAB
  0
TABLE
  2
UCS
  5
7
330
0
100
AcDbSymbolTable
 70
     0
  0
ENDTAB
  0
TABLE
  2
APPID
  5
9
330
0
100
AcDbSymbolTable
 70
     1
  0
APPID
  5
12
330
9
100
AcDbSymbolTableRecord
100
AcDbRegAppTableRecord
  2
ACAD
 70
     0
  0
ENDTAB
  0
TABLE
  2
DIMSTYLE
  5
A
330
0
100
AcDbSymbolTable
 70
     1
100
AcDbDimStyleTable
  0
DIMSTYLE
105
27
330
A
100
AcDbSymbolTableRecord
100
AcDbDimStyleTableRecord
  2
ISO-25
 70
     0
 41
2.5
 42
0.625
 43
3.75
 44
1.25
 73
     0
 74
     0
 77
     1
 78
     8
140
2.5
141
2.5
143
0.0393700787
147
0.625
171
     3
172
     1
178
     0
271
     2
272
     2
274
     3
278
    44
283
     0
284
     8
340
11
  0
ENDTAB
  0
TABLE
  2
BLOCK_RECORD
  5
1
330
0
100
AcDbSymbolTable
 70
     1
  0
BLOCK_RECORD
  5
1F
330
1
100
AcDbSymbolTableRecord
100
AcDbBlockTableRecord
  2
*Model_Space
340
22
  0
BLOCK_RECORD
  5
1B
330
1
100
AcDbSymbolTableRecord
100
AcDbBlockTableRecord
  2
*Paper_Space
340
1E
  0
BLOCK_RECORD
  5
23
330
1
100
AcDbSymbolTableRecord
100
AcDbBlockTableRecord
  2
*Paper_Space0
340
26
  0
ENDTAB
  0
ENDSEC
  0
SECTION
  2
BLOCKS
  0
BLOCK
  5
20
330
1F
100
AcDbEntity
  8
0
100
AcDbBlockBegin
  2
*Model_Space
 70
     0
 10
0.0
 20
0.0
 30
0.0
  3
*Model_Space
  1

  0
ENDBLK
  5
21
330
1F
100
AcDbEntity
  8
0
100
AcDbBlockEnd
  0
BLOCK
  5
1C
330
1B
100
AcDbEntity
 67
     1
  8
0
100
AcDbBlockBegin
  2
*Paper_Space
 70
     0
 10
0.0
 20
0.0
 30
0.0
  3
*Paper_Space
  1

  0
ENDBLK
  5
1D
330
1B
100
AcDbEntity
 67
     1
  8
0
100
AcDbBlockEnd
  0
BLOCK
  5
24
330
23
100
AcDbEntity
  8
0
100
AcDbBlockBegin
  2
*Paper_Space0
 70
     0
 10
0.0
 20
0.0
 30
0.0
  3
*Paper_Space0
  1

  0
ENDBLK
  5
25
330
23
100
AcDbEntity
  8
0
100
AcDbBlockEnd
  0
ENDSEC
  0
SECTION
  2
ENTITIES
  0
LINE
  5
46
330
1F
100
AcDbEntity
  8
0
  6
Continuous
 62
   179
370
     0
100
AcDbLine
 10
56.5909203824
 20
105.790429781
 30
0.0
 11
56.5909203824
 21
108.790429781
 31
0.0
  0
LINE
  5
47
330
1F
100
AcDbEntity
  8
0
  6
Continuous
 62
   179
370
     0
100
AcDbLine
 10
46.5909203824
 20
68.790429781
 30
0.0
 11
46.5909203824
 21
65.790429781
 31
0.0
  0
LINE
  5
48
330
1F
100
AcDbEntity
  8
0
  6
Continuous
 62
   179
370
     0
100
AcDbLine
 10
80.5909203824
 20
58.790429781
 30
0.0
 11
2.5909203824
 21
58.790429781
 31
0.0
  0
LINE
  5
49
330
1F
100
AcDbEntity
  8
0
  6
Continuous
 62
   179
370
     0
100
AcDbLine
 10
75.5909203824
 20
119.190429781
 30
0.0
 11
72.5909203824
 21
119.190429781
 31
0.0
  0
LINE
  5
4A
330
1F
100
AcDbEntity
  8
0
  6
Continuous
 62
   179
370
     0
100
AcDbLine
 10
129.4771253659
 20
69.040429781
 30
0.0
 11
129.4771253659
 21
66.040429781
 31
0.0
  0
LINE
  5
4B
330
1F
100
AcDbEntity
  8
0
  6
Continuous
 62
   179
370
     0
100
AcDbLine
 10
77.6100705665
 20
22.9749951673
 30
0.0
 11
77.6100705665
 21
2.9749951673
 31
0.0
  0
LINE
  5
4C
330
1F
100
AcDbEntity
  8
0
  6
Continuous
 62
   179
370
     0
100
AcDbLine
 10
97.0909203824
 20
53.4185873903
 30
0.0
 11
97.0909203824
 21
50.4185873903
 31
0.0
  0
LINE
  5
4D
330
1F
100
AcDbEntity
  8
0
  6
Continuous
 62
   179
370
     0
100
AcDbLine
 10
26.5909203824
 20
34.8645812165
 30
0.0
 11
56.5909203824
 21
34.8645812165
 31
0.0
  0
LINE
  5
4E
330
1F
100
AcDbEntity
  8
0
  6
Continuous
 62
   179
370
     0
100
AcDbLine
 10
75.5909203824
 20
17.9900468271
 30
0.0
 11
75.5909203824
 21
7.9900468271
 31
0.0
  0
LINE
  5
4F
330
1F
100
AcDbEntity
  8
0
  6
Continuous
 62
   179
370
     0
100
AcDbLine
 10
66.5717701983
 20
25.9749951673
 30
0.0
 11
66.5717701983
 21
22.9749951673
 31
0.0
  0
LINE
  5
50
330
1F
100
AcDbEntity
  8
0
  6
Continuous
 62
   179
370
     0
100
AcDbLine
 10
97.0909203824
 20
25.990053402
 30
0.0
 11
97.0909203824
 21
22.990053402
 31
0.0
  0
LINE
  5
51
330
1F
100
AcDbEntity
  8
0
  6
Continuous
 62
   179
370
     0
100
AcDbLine
 10
86.2666310317
 20
170.2235967946
 30
0.0
 11
86.2666310317
 21
180.2235967946
 31
0.0
  0
LINE
  5
52
330
1F
100
AcDbEntity
  8
0
  6
Continuous
 62
   179
370
     0
100
AcDbLine
 10
71.7687713114
 20
180.3783002063
 30
0.0
 11
74.7687713114
 21
180.3783002063
 31
0.0
  0
LINE
  5
53
330
1F
100
AcDbEntity
  8
0
  6
Continuous
 62
   179
370
     0
100
AcDbLine
 10
20.8423988488
 20
212.2132281668
 30
0.0
 11
20.8423988488
 21
205.2132281668
 31
0.0
  0
LINE
  5
54
330
1F
100
AcDbEntity
  8
0
  6
Continuous
 62
   179
370
     0
100
AcDbLine
 10
66.5909203824
 20
105.790429781
 30
0.0
 11
66.5909203824
 21
108.790429781
 31
0.0
  0
LINE
  5
55
330
1F
100
AcDbEntity
  8
0
  6
Continuous
 62
   179
370
     0
100
AcDbLine
 10
2.5909203824
 20
120.790429781
 30
0.0
 11
2.5909203824
 21
58.790429781
 31
0.0
  0
LINE
  5
56
330
1F
100
AcDbEntity
  8
0
  6
Continuous
 62
   179
370
     0
100
AcDbLine
 10
7.5909203824
 20
119.190429781
 30
0.0
 11
10.5909203824
 21
119.190429781
 31
0.0
  0
LINE
  5
57
330
1F
100
AcDbEntity
  8
0
  6
Continuous
 62
   179
370
     0
100
AcDbLine
 10
84.4716770356
 20
119.190429781
 30
0.0
 11
87.4716770356
 21
119.190429781
 31
0.0
  0
LINE
  5
58
330
1F
100
AcDbEntity
  8
0
  6
Continuous
 62
   179
370
     0
100
AcDbLine
 10
138.9716770356
 20
69.8354813498
 30
0.0
 11
138.9716770356
 21
89.790429781
 31
0.0
  0
LINE
  5
59
330
1F
100
AcDbEntity
  8
0
  6
Continuous
 62
   179
370
     0
100
AcDbLine
 10
75.5909203824
 20
35.4185808154
 30
0.0
 11
72.5909203824
 21
35.4185808154
 31
0.0
  0
LINE
  5
5A
330
1F
100
AcDbEntity
  8
0
  6
Continuous
 62
   179
370
     0
100
AcDbLine
 10
107.0909203824
 20
50.4185873903
 30
0.0
 11
120.5909203824
 21
50.4185873903
 31
0.0
  0
LINE
  5
5B
330
1F
100
AcDbEntity
  8
0
  6
Continuous
 62
   179
370
     0
100
AcDbLine
 10
56.5909203824
 20
32.8645812165
 30
0.0
 11
41.5909203824
 21
32.8645812165
 31
0.0
  0
LINE
  5
5C
330
1F
100
AcDbEntity
  8
0
  6
Continuous
 62
   179
370
     0
100
AcDbLine
 10
16.5717701983
 20
25.9749951673
 30
0.0
 11
26.5717701983
 21
25.9749951673
 31
0.0
  0
LINE
  5
5D
330
1F
100
AcDbEntity
  8
0
  6
Continuous
 62
   179
370
     0
100
AcDbLine
 10
120.5909203824
 20
17.990053402
 30
0.0
 11
120.5909203824
 21
22.990053402
 31
0.0
  0
LINE
  5
5E
330
1F
100
AcDbEntity
  8
0
  6
Continuous
 62
   179
370
     0
100
AcDbLine
 10
98.969536756
 20
68.5451331927
 30
0.0
 11
101.969536756
 21
68.5451331927
 31
0.0
  0
LINE
  5
5F
330
1F
100
AcDbEntity
  8
0
  6
Continuous
 62
   179
370
     0
100
AcDbLine
 10
143.5595332279
 20
229.4594175739
 30
0.0
 11
140.5595332279
 21
229.4594175739
 31
0.0
  0
LINE
  5
60
330
1F
100
AcDbEntity
  8
0
  6
Continuous
 62
   179
370
     0
100
AcDbLine
 10
74.7687713114
 20
129.5783002063
 30
0.0
 11
105.3214721903
 21
129.5783002063
 31
0.0
  0
LINE
  5
61
330
1F
100
AcDbEntity
  8
0
  6
Continuous
 62
   179
370
     0
100
AcDbLine
 10
74.7687713114
 20
188.3783002063
 30
0.0
 11
105.3214721903
 21
188.3783002063
 31
0.0
  0
LINE
  5
62
330
1F
100
AcDbEntity
  8
0
  6
Continuous
 62
   179
370
     0
100
AcDbLine
 10
65.2783878466
 20
212.2132281668
 30
0.0
 11
62.2783878466
 21
212.2132281668
 31
0.0
  0
LINE
  5
63
330
1F
100
AcDbEntity
  8
0
  6
Continuous
 62
   179
370
     0
100
AcDbLine
 10
40.0909203824
 20
205.2132281668
 30
0.0
 11
40.0909203824
 21
212.2132281668
 31
0.0
  0
LINE
  5
64
330
1F
100
AcDbEntity
  8
0
  6
Continuous
 62
   179
370
     0
100
AcDbLine
 10
2.5909203824
 20
215.8151063096
 30
0.0
 11
80.5909203824
 21
215.8151063096
 31
0.0
  0
LINE
  5
65
330
1F
100
AcDbEntity
  8
0
  6
Continuous
 62
   179
370
     0
100
AcDbLine
 10
36.5909203824
 20
108.790429781
 30
0.0
 11
36.5909203824
 21
105.790429781
 31
0.0
  0
LINE
  5
66
330
1F
100
AcDbEntity
  8
0
  6
Continuous
 62
   179
370
     0
100
AcDbLine
 10
7.5909203824
 20
111.190429781
 30
0.0
 11
10.5909203824
 21
111.190429781
 31
0.0
  0
LINE
  5
67
330
1F
100
AcDbEntity
  8
0
  6
Continuous
 62
   179
370
     0
100
AcDbLine
 10
84.4716770356
 20
111.190429781
 30
0.0
 11
87.4716770356
 21
111.190429781
 31
0.0
  0
LINE
  5
68
330
1F
100
AcDbEntity
  8
0
  6
Continuous
 62
   179
370
     0
100
AcDbLine
 10
87.4716770356
 20
60.390429781
 30
0.0
 11
118.0243779145
 21
60.390429781
 31
0.0
  0
LINE
  5
69
330
1F
100
AcDbEntity
  8
0
  6
Continuous
 62
   179
370
     0
100
AcDbLine
 10
80.5909203824
 20
45.4185873903
 30
0.0
 11
83.5909203824
 21
45.4185873903
 31
0.0
  0
LINE
  5
6A
330
1F
100
AcDbEntity
  8
0
  6
Continuous
 62
   179
370
     0
100
AcDbLine
 10
72.5298663129
 20
84.7904771194
 30
0.0
 11
72.5298663129
 21
89.790429781
 31
0.0
  0
LINE
  5
6B
330
1F
100
AcDbEntity
  8
0
  6
Continuous
 62
   179
370
     0
100
AcDbLine
 10
36.5717701983
 20
25.9749951673
 30
0.0
 11
46.6100705665
 21
25.9749951673
 31
0.0
  0
LINE
  5
6C
330
1F
100
AcDbEntity
  8
0
  6
Continuous
 62
   179
370
     0
100
AcDbLine
 10
7.5909203824
 20
17.9900468271
 30
0.0
 11
10.5909203824
 21
17.9900468271
 31
0.0
  0
LINE
  5
6D
330
1F
100
AcDbEntity
  8
0
  6
Continuous
 62
   179
370
     0
100
AcDbLine
 10
123.5909203824
 20
17.990053402
 30
0.0
 11
123.5909203824
 21
7.990053402
 31
0.0
  0
LINE
  5
6E
330
1F
100
AcDbEntity
  8
0
  6
Continuous
 62
   179
370
     0
100
AcDbLine
 10
98.969536756
 20
78.5451331927
 30
0.0
 11
101.969536756
 21
78.5451331927
 31
0.0
  0
LINE
  5
6F
330
1F
100
AcDbEntity
  8
0
  6
Continuous
 62
   179
370
     0
100
AcDbLine
 10
99.5595332279
 20
229.4594175739
 30
0.0
 11
125.5595332279
 21
229.4594175739
 31
0.0
  0
LINE
  5
70
330
1F
100
AcDbEntity
  8
0
  6
Continuous
 62
   179
370
     0
100
AcDbLine
 10
116.7742196416
 20
138.2283002063
 30
0.0
 11
116.7742196416
 21
135.2283002063
 31
0.0
  0
LINE
  5
71
330
1F
100
AcDbEntity
  8
0
  6
Continuous
 62
   179
370
     0
100
AcDbLine
 10
19.9252823572
 20
128.3686877742
 30
0.0
 11
29.9252823572
 21
128.3686877742
 31
0.0
  0
LINE
  5
72
330
1F
100
AcDbEntity
  8
0
  6
Continuous
 62
   179
370
     0
100
AcDbLine
 10
43.0909203824
 20
205.2132281668
 30
0.0
 11
43.0909203824
 21
212.2132281668
 31
0.0
  0
LINE
  5
73
330
1F
100
AcDbEntity
  8
0
  6
Continuous
 62
   179
370
     0
100
AcDbLine
 10
16.5909203824
 20
108.790429781
 30
0.0
 11
26.5909203824
 21
108.790429781
 31
0.0
  0
LINE
  5
74
330
1F
100
AcDbEntity
  8
0
  6
Continuous
 62
   179
370
     0
100
AcDbLine
 10
46.5909203824
 20
108.790429781
 30
0.0
 11
46.5909203824
 21
105.790429781
 31
0.0
  0
LINE
  5
75
330
1F
100
AcDbEntity
  8
0
  6
Continuous
 62
   179
370
     0
100
AcDbLine
 10
10.5909203824
 20
60.390429781
 30
0.0
 11
10.5909203824
 21
68.390429781
 31
0.0
  0
LINE
  5
76
330
1F
100
AcDbEntity
  8
0
  6
Continuous
 62
   179
370
     0
100
AcDbLine
 10
84.4716770356
 20
68.390429781
 30
0.0
 11
87.4716770356
 21
68.390429781
 31
0.0
  0
LINE
  5
77
330
1F
100
AcDbEntity
  8
0
  6
Continuous
 62
   179
370
     0
100
AcDbLine
 10
121.5909203824
 20
113.540429781
 30
0.0
 11
118.5138849339
 21
110.2365377471
 31
0.0
  0
LINE
  5
78
330
1F
100
AcDbEntity
  8
0
  6
Continuous
 62
   179
370
     0
100
AcDbLine
 10
80.5909203824
 20
35.4185873903
 30
0.0
 11
83.5909203824
 21
35.4185873903
 31
0.0
  0
LINE
  5
79
330
1F
100
AcDbEntity
  8
0
  6
Continuous
 62
   179
370
     0
100
AcDbLine
 10
72.5298663129
 20
94.7904771194
 30
0.0
 11
75.5298663129
 21
94.7904771194
 31
0.0
  0
LINE
  5
7A
330
1F
100
AcDbEntity
  8
0
  6
Continuous
 62
   179
370
     0
100
AcDbLine
 10
123.5909203824
 20
17.990053402
 30
0.0
 11
120.5909203824
 21
17.990053402
 31
0.0
  0
LINE
  5
7B
330
1F
100
AcDbEntity
  8
0
  6
Continuous
 62
   179
370
     0
100
AcDbLine
 10
26.5717701983
 20
25.9749951673
 30
0.0
 11
26.5717701983
 21
22.9749951673
 31
0.0
  0
LINE
  5
7C
330
1F
100
AcDbEntity
  8
0
  6
Continuous
 62
   179
370
     0
100
AcDbLine
 10
120.5909203824
 20
7.990053402
 30
0.0
 11
120.5909203824
 21
2.990053402
 31
0.0
  0
LINE
  5
7D
330
1F
100
AcDbEntity
  8
0
  6
Continuous
 62
   179
370
     0
100
AcDbLine
 10
81.5595332279
 20
197.4594175739
 30
0.0
 11
143.5595332279
 21
197.4594175739
 31
0.0
  0
LINE
  5
7E
330
1F
100
AcDbEntity
  8
0
  6
Continuous
 62
   179
370
     0
100
AcDbLine
 10
99.5595332279
 20
207.4594175739
 30
0.0
 11
125.5595332279
 21
207.4594175739
 31
0.0
  0
LINE
  5
7F
330
1F
100
AcDbEntity
  8
0
  6
Continuous
 62
   179
370
     0
100
AcDbLine
 10
108.8880146582
 20
182.7283002063
 30
0.0
 11
105.8109792097
 21
179.4244081723
 31
0.0
  0
LINE
  5
80
330
1F
100
AcDbEntity
  8
0
  6
Continuous
 62
   179
370
     0
100
AcDbLine
 10
19.9252823572
 20
125.3686877742
 30
0.0
 11
29.9252823572
 21
125.3686877742
 31
0.0
  0
LINE
  5
81
330
1F
100
AcDbEntity
  8
0
  6
Continuous
 62
   179
370
     0
100
AcDbLine
 10
14.5909203824
 20
206.790429781
 30
0.0
 11
14.5909203824
 21
120.790429781
 31
0.0
  0
LINE
  5
82
330
1F
100
AcDbEntity
  8
0
  6
Continuous
 62
   179
370
     0
100
AcDbLine
 10
16.5909203824
 20
65.790429781
 30
0.0
 11
26.5909203824
 21
65.790429781
 31
0.0
  0
LINE
  5
83
330
1F
100
AcDbEntity
  8
0
  6
Continuous
 62
   179
370
     0
100
AcDbLine
 10
7.5909203824
 20
60.390429781
 30
0.0
 11
7.5909203824
 21
68.390429781
 31
0.0
  0
LINE
  5
84
330
1F
100
AcDbEntity
  8
0
  6
Continuous
 62
   179
370
     0
100
AcDbLine
 10
84.4716770356
 20
60.390429781
 30
0.0
 11
87.4716770356
 21
60.390429781
 31
0.0
  0
LINE
  5
85
330
1F
100
AcDbEntity
  8
0
  6
Continuous
 62
   179
370
     0
100
AcDbLine
 10
16.5717701983
 20
53.4035291556
 30
0.0
 11
16.5717701983
 21
50.4035291556
 31
0.0
  0
LINE
  5
86
330
1F
100
AcDbEntity
  8
0
  6
Continuous
 62
   179
370
     0
100
AcDbLine
 10
66.5717701983
 20
53.4035291556
 30
0.0
 11
66.5717701983
 21
50.4035291556
 31
0.0
  0
LINE
  5
87
330
1F
100
AcDbEntity
  8
0
  6
Continuous
 62
   179
370
     0
100
AcDbLine
 10
83.5909203824
 20
35.4185873903
 30
0.0
 11
83.5909203824
 21
30.4185873903
 31
0.0
  0
LINE
  5
88
330
1F
100
AcDbEntity
  8
0
  6
Continuous
 62
   179
370
     0
100
AcDbLine
 10
98.969536756
 20
101.0357263694
 30
0.0
 11
98.969536756
 21
111.0357263694
 31
0.0
  0
LINE
  5
89
330
1F
100
AcDbEntity
  8
0
  6
Continuous
 62
   179
370
     0
100
AcDbLine
 10
46.6100705665
 20
22.9749951673
 30
0.0
 11
56.5717701983
 21
22.9749951673
 31
0.0
  0
LINE
  5
8A
330
1F
100
AcDbEntity
  8
0
  6
Continuous
 62
   179
370
     0
100
AcDbLine
 10
26.5909203824
 20
5.4360472282
 30
0.0
 11
26.5909203824
 21
7.4360472282
 31
0.0
  0
LINE
  5
8B
330
1F
100
AcDbEntity
  8
0
  6
Continuous
 62
   179
370
     0
100
AcDbLine
 10
83.5909203824
 20
17.990053402
 30
0.0
 11
83.5909203824
 21
22.990053402
 31
0.0
  0
LINE
  5
8C
330
1F
100
AcDbEntity
  8
0
  6
Continuous
 62
   179
370
     0
100
AcDbLine
 10
81.5595332279
 20
229.4594175739
 30
0.0
 11
84.5595332279
 21
229.4594175739
 31
0.0
  0
LINE
  5
8D
330
1F
100
AcDbEntity
  8
0
  6
Continuous
 62
   179
370
     0
100
AcDbLine
 10
86.2666310317
 20
147.7330036179
 30
0.0
 11
86.2666310317
 21
137.7330036179
 31
0.0
  0
LINE
  5
8E
330
1F
100
AcDbEntity
  8
0
  6
Continuous
 62
   179
370
     0
100
AcDbLine
 10
116.7742196416
 20
179.7283002062
 30
0.0
 11
116.7742196416
 21
182.7283002063
 31
0.0
  0
LINE
  5
8F
330
1F
100
AcDbEntity
  8
0
  6
Continuous
 62
   179
370
     0
100
AcDbLine
 10
53.9252823572
 20
128.3686877742
 30
0.0
 11
53.9252823572
 21
125.3686877742
 31
0.0
  0
LINE
  5
90
330
1F
100
AcDbEntity
  8
0
  6
Continuous
 62
   179
370
     0
100
AcDbLine
 10
26.5909203824
 20
108.790429781
 30
0.0
 11
26.5909203824
 21
105.790429781
 31
0.0
  0
LINE
  5
91
330
1F
100
AcDbEntity
  8
0
  6
Continuous
 62
   179
370
     0
100
AcDbLine
 10
56.5909203824
 20
65.790429781
 30
0.0
 11
66.5909203824
 21
65.790429781
 31
0.0
  0
LINE
  5
92
330
1F
100
AcDbEntity
  8
0
  6
Continuous
 62
   179
370
     0
100
AcDbLine
 10
75.5909203824
 20
60.390429781
 30
0.0
 11
72.5909203824
 21
60.390429781
 31
0.0
  0
LINE
  5
93
330
1F
100
AcDbEntity
  8
0
  6
Continuous
 62
   179
370
     0
100
AcDbLine
 10
129.4771253659
 20
113.540429781
 30
0.0
 11
121.5909203824
 21
113.540429781
 31
0.0
  0
LINE
  5
94
330
1F
100
AcDbEntity
  8
0
  6
Continuous
 62
   179
370
     0
100
AcDbLine
 10
26.5717701983
 20
53.4035291556
 30
0.0
 11
26.5717701983
 21
50.4035291556
 31
0.0
  0
LINE
  5
95
330
1F
100
AcDbEntity
  8
0
  6
Continuous
 62
   179
370
     0
100
AcDbLine
 10
77.6100705665
 20
50.4035291556
 30
0.0
 11
77.6100705665
 21
30.4035291556
 31
0.0
  0
LINE
  5
96
330
1F
100
AcDbEntity
  8
0
  6
Continuous
 62
   179
370
     0
100
AcDbLine
 10
120.5909203824
 20
35.4185873903
 30
0.0
 11
120.5909203824
 21
30.4185873903
 31
0.0
  0
LINE
  5
97
330
1F
100
AcDbEntity
  8
0
  6
Continuous
 62
   179
370
     0
100
AcDbLine
 10
10.5909203824
 20
94.7904771194
 30
0.0
 11
7.5909203824
 21
94.7904771194
 31
0.0
  0
LINE
  5
98
330
1F
100
AcDbEntity
  8
0
  6
Continuous
 62
   179
370
     0
100
AcDbLine
 10
75.5909203824
 20
17.9900468271
 30
0.0
 11
72.5909203824
 21
17.9900468271
 31
0.0
  0
LINE
  5
99
330
1F
100
AcDbEntity
  8
0
  6
Continuous
 62
   179
370
     0
100
AcDbLine
 10
80.5909203824
 20
17.990053402
 30
0.0
 11
80.5909203824
 21
7.990053402
 31
0.0
  0
LINE
  5
9A
330
1F
100
AcDbEntity
  8
0
  6
Continuous
 62
   179
370
     0
100
AcDbLine
 10
81.5595332279
 20
197.4594175739
 30
0.0
 11
81.5595332279
 21
207.4594175739
 31
0.0
  0
LINE
  5
9B
330
1F
100
AcDbEntity
  8
0
  6
Continuous
 62
   179
370
     0
100
AcDbLine
 10
71.7687713114
 20
129.5783002063
 30
0.0
 11
74.7687713114
 21
129.5783002063
 31
0.0
  0
LINE
  5
9C
330
1F
100
AcDbEntity
  8
0
  6
Continuous
 62
   179
370
     0
100
AcDbLine
 10
118.2687713114
 20
138.2283002063
 30
0.0
 11
116.7742196416
 21
138.2283002063
 31
0.0
  0
LINE
  5
9D
330
1F
100
AcDbEntity
  8
0
  6
Continuous
 62
   179
370
     0
100
AcDbLine
 10
63.9252823572
 20
128.3686877742
 30
0.0
 11
63.9252823572
 21
125.3686877742
 31
0.0
  0
LINE
  5
9E
330
1F
100
AcDbEntity
  8
0
  6
CENTERX2
 62
   179
370
     0
100
AcDbLine
 10
68.5752823572
 20
132.0836467609
 30
0.0
 11
68.5752823572
 21
200.6836467609
 31
0.0
  0
LINE
  5
9F
330
1F
100
AcDbEntity
  8
0
  6
Continuous
 62
   179
370
     0
100
AcDbLine
 10
2.5909203824
 20
206.790429781
 30
0.0
 11
2.5909203824
 21
215.8151063096
 31
0.0
  0
LINE
  5
A0
330
1F
100
AcDbEntity
  8
0
  6
Continuous
 62
   179
370
     0
100
AcDbLine
 10
56.5909203824
 20
68.790429781
 30
0.0
 11
66.5909203824
 21
68.790429781
 31
0.0
  0
LINE
  5
A1
330
1F
100
AcDbEntity
  8
0
  6
Continuous
 62
   179
370
     0
100
AcDbLine
 10
75.5909203824
 20
68.390429781
 30
0.0
 11
72.5909203824
 21
68.390429781
 31
0.0
  0
LINE
  5
A2
330
1F
100
AcDbEntity
  8
0
  6
Continuous
 62
   179
370
     0
100
AcDbLine
 10
138.9716770356
 20
109.7453782123
 30
0.0
 11
138.9716770356
 21
89.790429781
 31
0.0
  0
LINE
  5
A3
330
1F
100
AcDbEntity
  8
0
  6
Continuous
 62
   179
370
     0
100
AcDbLine
 10
36.5717701983
 20
53.4035291556
 30
0.0
 11
36.5717701983
 21
50.4035291556
 31
0.0
  0
LINE
  5
A4
330
1F
100
AcDbEntity
  8
0
  6
Continuous
 62
   179
370
     0
100
AcDbLine
 10
83.5909203824
 20
45.4185873903
 30
0.0
 11
83.5909203824
 21
50.4185873903
 31
0.0
  0
LINE
  5
A5
330
1F
100
AcDbEntity
  8
0
  6
Continuous
 62
   179
370
     0
100
AcDbLine
 10
123.5909203824
 20
45.4185873903
 30
0.0
 11
123.5909203824
 21
35.4185873903
 31
0.0
  0
LINE
  5
A6
330
1F
100
AcDbEntity
  8
0
  6
Continuous
 62
   179
370
     0
100
AcDbLine
 10
10.5909203824
 20
84.7904771194
 30
0.0
 11
10.5909203824
 21
89.790429781
 31
0.0
  0
LINE
  5
A7
330
1F
100
AcDbEntity
  8
0
  6
Continuous
 62
   179
370
     0
100
AcDbLine
 10
80.5909203824
 20
17.990053402
 30
0.0
 11
83.5909203824
 21
17.990053402
 31
0.0
  0
LINE
  5
A8
330
1F
100
AcDbEntity
  8
0
  6
Continuous
 62
   179
370
     0
100
AcDbLine
 10
75.5909203824
 20
7.9900468271
 30
0.0
 11
72.5909203824
 21
7.9900468271
 31
0.0
  0
LINE
  5
A9
330
1F
100
AcDbEntity
  8
0
  6
Continuous
 62
   179
370
     0
100
AcDbLine
 10
84.5595332279
 20
229.4594175739
 30
0.0
 11
84.5595332279
 21
207.4594175739
 31
0.0
  0
LINE
  5
AA
330
1F
100
AcDbEntity
  8
0
  6
Continuous
 62
   179
370
     0
100
AcDbLine
 10
86.2666310317
 20
147.7330036179
 30
0.0
 11
89.2666310317
 21
147.7330036179
 31
0.0
  0
LINE
  5
AB
330
1F
100
AcDbEntity
  8
0
  6
Continuous
 62
   179
370
     0
100
AcDbLine
 10
118.2687713114
 20
138.2283002063
 30
0.0
 11
118.2687713114
 21
179.7283002062
 31
0.0
  0
LINE
  5
AC
330
1F
100
AcDbEntity
  8
0
  6
Continuous
 62
   179
370
     0
100
AcDbLine
 10
62.2783878466
 20
212.2132281668
 30
0.0
 11
62.2783878466
 21
205.2132281668
 31
0.0
  0
LINE
  5
AD
330
1F
100
AcDbEntity
  8
0
  6
Continuous
 62
   179
370
     0
100
AcDbLine
 10
16.5909203824
 20
105.790429781
 30
0.0
 11
26.5909203824
 21
105.790429781
 31
0.0
  0
LINE
  5
AE
330
1F
100
AcDbEntity
  8
0
  6
Continuous
 62
   179
370
     0
100
AcDbLine
 10
36.5909203824
 20
68.790429781
 30
0.0
 11
46.5909203824
 21
68.790429781
 31
0.0
  0
LINE
  5
AF
330
1F
100
AcDbEntity
  8
0
  6
Continuous
 62
   179
370
     0
100
AcDbLine
 10
72.5909203824
 20
119.190429781
 30
0.0
 11
72.5909203824
 21
111.190429781
 31
0.0
  0
LINE
  5
B0
330
1F
100
AcDbEntity
  8
0
  6
Continuous
 62
   179
370
     0
100
AcDbLine
 10
130.9716770356
 20
110.540429781
 30
0.0
 11
129.4771253659
 21
110.540429781
 31
0.0
  0
LINE
  5
B1
330
1F
100
AcDbEntity
  8
0
  6
Continuous
 62
   179
370
     0
100
AcDbLine
 10
46.6100705665
 20
53.4035291556
 30
0.0
 11
46.6100705665
 21
50.4035291556
 31
0.0
  0
LINE
  5
B2
330
1F
100
AcDbEntity
  8
0
  6
Continuous
 62
   179
370
     0
100
AcDbLine
 10
7.5909203824
 20
45.4185808154
 30
0.0
 11
7.5909203824
 21
35.4185808154
 31
0.0
  0
LINE
  5
B3
330
1F
100
AcDbEntity
  8
0
  6
Continuous
 62
   179
370
     0
100
AcDbLine
 10
120.5909203824
 20
45.4185873903
 30
0.0
 11
120.5909203824
 21
50.4185873903
 31
0.0
  0
LINE
  5
B4
330
1F
100
AcDbEntity
  8
0
  6
Continuous
 62
   179
370
     0
100
AcDbLine
 10
75.5909203824
 20
45.4185808154
 30
0.0
 11
72.5909203824
 21
45.4185808154
 31
0.0
  0
LINE
  5
B5
330
1F
100
AcDbEntity
  8
0
  6
Continuous
 62
   179
370
     0
100
AcDbLine
 10
123.5909203824
 20
7.990053402
 30
0.0
 11
120.5909203824
 21
7.990053402
 31
0.0
  0
LINE
  5
B6
330
1F
100
AcDbEntity
  8
0
  6
Continuous
 62
   179
370
     0
100
AcDbLine
 10
10.5909203824
 20
17.9900468271
 30
0.0
 11
10.5909203824
 21
7.9900468271
 31
0.0
  0
LINE
  5
B7
330
1F
100
AcDbEntity
  8
0
  6
Continuous
 62
   179
370
     0
100
AcDbLine
 10
66.5717701983
 20
22.9749951673
 30
0.0
 11
77.6100705665
 21
22.9749951673
 31
0.0
  0
LINE
  5
B8
330
1F
100
AcDbEntity
  8
0
  6
Continuous
 62
   179
370
     0
100
AcDbLine
 10
143.5595332279
 20
207.4594175739
 30
0.0
 11
140.5595332279
 21
207.4594175739
 31
0.0
  0
LINE
  5
B9
330
1F
100
AcDbEntity
  8
0
  6
Continuous
 62
   179
370
     0
100
AcDbLine
 10
89.2666310317
 20
147.7330036179
 30
0.0
 11
89.2666310317
 21
137.7330036179
 31
0.0
  0
LINE
  5
BA
330
1F
100
AcDbEntity
  8
0
  6
Continuous
 62
   179
370
     0
100
AcDbLine
 10
86.2666310317
 20
170.2235967946
 30
0.0
 11
89.2666310317
 21
170.2235967946
 31
0.0
  0
LINE
  5
BB
330
1F
100
AcDbEntity
  8
0
  6
Continuous
 62
   179
370
     0
100
AcDbLine
 10
17.8423988488
 20
212.2132281668
 30
0.0
 11
20.8423988488
 21
212.2132281668
 31
0.0
  0
LINE
  5
BC
330
1F
100
AcDbEntity
  8
0
  6
Continuous
 62
   179
370
     0
100
AcDbLine
 10
80.5909203824
 20
215.8151063096
 30
0.0
 11
80.5909203824
 21
206.790429781
 31
0.0
  0
LINE
  5
BD
330
1F
100
AcDbEntity
  8
0
  6
Continuous
 62
   179
370
     0
100
AcDbLine
 10
36.5909203824
 20
65.790429781
 30
0.0
 11
46.5909203824
 21
65.790429781
 31
0.0
  0
LINE
  5
BE
330
1F
100
AcDbEntity
  8
0
  6
Continuous
 62
   179
370
     0
100
AcDbLine
 10
80.5909203824
 20
120.790429781
 30
0.0
 11
80.5909203824
 21
58.790429781
 31
0.0
  0
LINE
  5
BF
330
1F
100
AcDbEntity
  8
0
  6
Continuous
 62
   179
370
     0
100
AcDbLine
 10
75.5909203824
 20
119.190429781
 30
0.0
 11
75.5909203824
 21
111.190429781
 31
0.0
  0
LINE
  5
C0
330
1F
100
AcDbEntity
  8
0
  6
Continuous
 62
   179
370
     0
100
AcDbLine
 10
129.4771253659
 20
66.040429781
 30
0.0
 11
121.5909203824
 21
66.040429781
 31
0.0
  0
LINE
  5
C1
330
1F
100
AcDbEntity
  8
0
  6
Continuous
 62
   179
370
     0
100
AcDbLine
 10
56.5717701983
 20
53.4035291556
 30
0.0
 11
56.5717701983
 21
50.4035291556
 31
0.0
  0
LINE
  5
C2
330
1F
100
AcDbEntity
  8
0
  6
Continuous
 62
   179
370
     0
100
AcDbLine
 10
10.5909203824
 20
45.4185808154
 30
0.0
 11
10.5909203824
 21
35.4185808154
 31
0.0
  0
LINE
  5
C3
330
1F
100
AcDbEntity
  8
0
  6
Continuous
 62
   179
370
     0
100
AcDbLine
 10
107.0909203824
 20
53.4185873903
 30
0.0
 11
97.0909203824
 21
53.4185873903
 31
0.0
  0
LINE
  5
C4
330
1F
100
AcDbEntity
  8
0
  6
Continuous
 62
   179
370
     0
100
AcDbLine
 10
26.5909203824
 20
32.8645812165
 30
0.0
 11
26.5909203824
 21
34.8645812165
 31
0.0
  0
LINE
  5
C5
330
1F
100
AcDbEntity
  8
0
  6
Continuous
 62
   179
370
     0
100
AcDbLine
 10
7.5909203824
 20
17.9900468271
 30
0.0
 11
7.5909203824
 21
7.9900468271
 31
0.0
  0
LINE
  5
C6
330
1F
100
AcDbEntity
  8
0
  6
Continuous
 62
   179
370
     0
100
AcDbLine
 10
16.5717701983
 20
22.9749951673
 30
0.0
 11
5.5717701983
 21
22.9749951673
 31
0.0
  0
LINE
  5
C7
330
1F
100
AcDbEntity
  8
0
  6
Continuous
 62
   179
370
     0
100
AcDbLine
 10
107.0909203824
 20
22.990053402
 30
0.0
 11
120.5909203824
 21
22.990053402
 31
0.0
  0
LINE
  5
C8
330
1F
100
AcDbEntity
  8
0
  6
Continuous
 62
   179
370
     0
100
AcDbLine
 10
126.2687713114
 20
178.9332486375
 30
0.0
 11
126.2687713114
 21
158.9783002063
 31
0.0
  0
LINE
  5
C9
330
1F
100
AcDbEntity
  8
0
  6
Continuous
 62
   179
370
     0
100
AcDbLine
 10
116.7742196416
 20
135.2283002063
 30
0.0
 11
108.8880146582
 21
135.2283002063
 31
0.0
  0
LINE
  5
CA
330
1F
100
AcDbEntity
  8
0
  6
Continuous
 62
   179
370
     0
100
AcDbLine
 10
17.8423988488
 20
205.2132281668
 30
0.0
 11
20.8423988488
 21
205.2132281668
 31
0.0
  0
LINE
  5
CB
330
1F
100
AcDbEntity
  8
0
  6
Continuous
 62
   179
370
     0
100
AcDbLine
 10
56.5909203824
 20
108.790429781
 30
0.0
 11
66.5909203824
 21
108.790429781
 31
0.0
  0
LINE
  5
CC
330
1F
100
AcDbEntity
  8
0
  6
Continuous
 62
   179
370
     0
100
AcDbLine
 10
14.5909203824
 20
120.790429781
 30
0.0
 11
2.5909203824
 21
120.790429781
 31
0.0
  0
LINE
  5
CD
330
1F
100
AcDbEntity
  8
0
  6
Continuous
 62
   179
370
     0
100
AcDbLine
 10
26.5717701983
 20
50.4035291556
 30
0.0
 11
36.5717701983
 21
50.4035291556
 31
0.0
  0
LINE
  5
CE
330
1F
100
AcDbEntity
  8
0
  6
Continuous
 62
   179
370
     0
100
AcDbLine
 10
87.4716770356
 20
111.190429781
 30
0.0
 11
87.4716770356
 21
68.390429781
 31
0.0
  0
LINE
  5
CF
330
1F
100
AcDbEntity
  8
0
  6
Continuous
 62
   179
370
     0
100
AcDbLine
 10
130.9716770356
 20
69.040429781
 30
0.0
 11
129.4771253659
 21
69.040429781
 31
0.0
  0
LINE
  5
D0
330
1F
100
AcDbEntity
  8
0
  6
Continuous
 62
   179
370
     0
100
AcDbLine
 10
72.5909203824
 20
45.4185808154
 30
0.0
 11
72.5909203824
 21
35.4185808154
 31
0.0
  0
LINE
  5
D1
330
1F
100
AcDbEntity
  8
0
  6
Continuous
 62
   179
370
     0
100
AcDbLine
 10
107.0909203824
 20
53.4185873903
 30
0.0
 11
107.0909203824
 21
50.4185873903
 31
0.0
  0
LINE
  5
D2
330
1F
100
AcDbEntity
  8
0
  6
Continuous
 62
   179
370
     0
100
AcDbLine
 10
56.5909203824
 20
34.8645812165
 30
0.0
 11
56.5909203824
 21
32.8645812165
 31
0.0
  0
LINE
  5
D3
330
1F
100
AcDbEntity
  8
0
  6
Continuous
 62
   179
370
     0
100
AcDbLine
 10
98.969536756
 20
111.0357263694
 30
0.0
 11
101.969536756
 21
111.0357263694
 31
0.0
  0
LINE
  5
D4
330
1F
100
AcDbEntity
  8
0
  6
Continuous
 62
   179
370
     0
100
AcDbLine
 10
80.5909203824
 20
7.990053402
 30
0.0
 11
83.5909203824
 21
7.990053402
 31
0.0
  0
LINE
  5
D5
330
1F
100
AcDbEntity
  8
0
  6
Continuous
 62
   179
370
     0
100
AcDbLine
 10
101.969536756
 20
101.0357263694
 30
0.0
 11
101.969536756
 21
111.0357263694
 31
0.0
  0
LINE
  5
D6
330
1F
100
AcDbEntity
  8
0
  6
Continuous
 62
   179
370
     0
100
AcDbLine
 10
126.2687713114
 20
139.0233517751
 30
0.0
 11
126.2687713114
 21
158.9783002063
 31
0.0
  0
LINE
  5
D7
330
1F
100
AcDbEntity
  8
0
  6
Continuous
 62
   179
370
     0
100
AcDbLine
 10
71.7687713114
 20
137.5783002063
 30
0.0
 11
74.7687713114
 21
137.5783002063
 31
0.0
  0
LINE
  5
D8
330
1F
100
AcDbEntity
  8
0
  6
Continuous
 62
   179
370
     0
100
AcDbLine
 10
65.2783878466
 20
212.2132281668
 30
0.0
 11
65.2783878466
 21
205.2132281668
 31
0.0
  0
LINE
  5
D9
330
1F
100
AcDbEntity
  8
0
  6
Continuous
 62
   179
370
     0
100
AcDbLine
 10
36.5909203824
 20
108.790429781
 30
0.0
 11
46.5909203824
 21
108.790429781
 31
0.0
  0
LINE
  5
DA
330
1F
100
AcDbEntity
  8
0
  6
Continuous
 62
   179
370
     0
100
AcDbLine
 10
7.5909203824
 20
119.190429781
 30
0.0
 11
7.5909203824
 21
111.190429781
 31
0.0
  0
LINE
  5
DB
330
1F
100
AcDbEntity
  8
0
  6
Continuous
 62
   179
370
     0
100
AcDbLine
 10
84.4716770356
 20
119.190429781
 30
0.0
 11
84.4716770356
 21
111.190429781
 31
0.0
  0
LINE
  5
DC
330
1F
100
AcDbEntity
  8
0
  6
Continuous
 62
   179
370
     0
100
AcDbLine
 10
121.5909203824
 20
66.040429781
 30
0.0
 11
118.5138849339
 21
69.344321815
 31
0.0
  0
LINE
  5
DD
330
1F
100
AcDbEntity
  8
0
  6
Continuous
 62
   179
370
     0
100
AcDbLine
 10
75.5909203824
 20
45.4185808154
 30
0.0
 11
75.5909203824
 21
35.4185808154
 31
0.0
  0
LINE
  5
DE
330
1F
100
AcDbEntity
  8
0
  6
Continuous
 62
   179
370
     0
100
AcDbLine
 10
75.5298663129
 20
84.7904771194
 30
0.0
 11
72.5298663129
 21
84.7904771194
 31
0.0
  0
LINE
  5
DF
330
1F
100
AcDbEntity
  8
0
  6
Continuous
 62
   179
370
     0
100
AcDbLine
 10
83.5909203824
 20
22.990053402
 30
0.0
 11
97.0909203824
 21
22.990053402
 31
0.0
  0
LINE
  5
E0
330
1F
100
AcDbEntity
  8
0
  6
Continuous
 62
   179
370
     0
100
AcDbLine
 10
16.5717701983
 20
25.9749951673
 30
0.0
 11
16.5717701983
 21
22.9749951673
 31
0.0
  0
LINE
  5
E1
330
1F
100
AcDbEntity
  8
0
  6
Continuous
 62
   179
370
     0
100
AcDbLine
 10
7.5909203824
 20
7.9900468271
 30
0.0
 11
10.5909203824
 21
7.9900468271
 31
0.0
  0
LINE
  5
E2
330
1F
100
AcDbEntity
  8
0
  6
Continuous
 62
   179
370
     0
100
AcDbLine
 10
98.969536756
 20
78.5451331927
 30
0.0
 11
98.969536756
 21
68.5451331927
 31
0.0
  0
LINE
  5
E3
330
1F
100
AcDbEntity
  8
0
  6
Continuous
 62
   179
370
     0
100
AcDbLine
 10
143.5595332279
 20
239.4594175739
 30
0.0
 11
143.5595332279
 21
229.4594175739
 31
0.0
  0
LINE
  5
E4
330
1F
100
AcDbEntity
  8
0
  6
Continuous
 62
   179
370
     0
100
AcDbLine
 10
105.3214721903
 20
129.5783002063
 30
0.0
 11
112.3083728157
 21
122.5913995808
 31
0.0
  0
LINE
  5
E5
330
1F
100
AcDbEntity
  8
0
  6
Continuous
 62
   179
370
     0
100
AcDbLine
 10
86.2666310317
 20
180.2235967946
 30
0.0
 11
89.2666310317
 21
180.2235967946
 31
0.0
  0
LINE
  5
E6
330
1F
100
AcDbEntity
  8
0
  6
Continuous
 62
   179
370
     0
100
AcDbLine
 10
40.0909203824
 20
205.2132281668
 30
0.0
 11
43.0909203824
 21
205.2132281668
 31
0.0
  0
LINE
  5
E7
330
1F
100
AcDbEntity
  8
0
  6
Continuous
 62
   179
370
     0
100
AcDbLine
 10
40.0909203824
 20
212.2132281668
 30
0.0
 11
43.0909203824
 21
212.2132281668
 31
0.0
  0
LINE
  5
E8
330
1F
100
AcDbEntity
  8
0
  6
Continuous
 62
   179
370
     0
100
AcDbLine
 10
56.5909203824
 20
105.790429781
 30
0.0
 11
66.5909203824
 21
105.790429781
 31
0.0
  0
LINE
  5
E9
330
1F
100
AcDbEntity
  8
0
  6
Continuous
 62
   179
370
     0
100
AcDbLine
 10
36.5909203824
 20
105.790429781
 30
0.0
 11
46.5909203824
 21
105.790429781
 31
0.0
  0
LINE
  5
EA
330
1F
100
AcDbEntity
  8
0
  6
Continuous
 62
   179
370
     0
100
AcDbLine
 10
10.5909203824
 20
119.190429781
 30
0.0
 11
10.5909203824
 21
111.190429781
 31
0.0
  0
LINE
  5
EB
330
1F
100
AcDbEntity
  8
0
  6
Continuous
 62
   179
370
     0
100
AcDbLine
 10
87.4716770356
 20
119.190429781
 30
0.0
 11
118.0243779145
 21
119.190429781
 31
0.0
  0
LINE
  5
EC
330
1F
100
AcDbEntity
  8
0
  6
Continuous
 62
   179
370
     0
100
AcDbLine
 10
118.0243779145
 20
60.390429781
 30
0.0
 11
125.0112785399
 21
53.4035291556
 31
0.0
  0
LINE
  5
ED
330
1F
100
AcDbEntity
  8
0
  6
Continuous
 62
   179
370
     0
100
AcDbLine
 10
80.5909203824
 20
45.4185873903
 30
0.0
 11
80.5909203824
 21
35.4185873903
 31
0.0
  0
LINE
  5
EE
330
1F
100
AcDbEntity
  8
0
  6
Continuous
 62
   179
370
     0
100
AcDbLine
 10
72.5298663129
 20
89.790429781
 30
0.0
 11
72.5298663129
 21
94.7904771194
 31
0.0
  0
LINE
  5
EF
330
1F
100
AcDbEntity
  8
0
  6
Continuous
 62
   179
370
     0
100
AcDbLine
 10
36.5717701983
 20
25.9749951673
 30
0.0
 11
36.5717701983
 21
22.9749951673
 31
0.0
  0
LINE
  5
F0
330
1F
100
AcDbEntity
  8
0
  6
Continuous
 62
   179
370
     0
100
AcDbLine
 10
56.5909203824
 20
7.4360472282
 30
0.0
 11
56.5909203824
 21
5.4360472282
 31
0.0
  0
LINE
  5
F1
330
1F
100
AcDbEntity
  8
0
  6
Continuous
 62
   179
370
     0
100
AcDbLine
 10
5.5717701983
 20
22.9749951673
 30
0.0
 11
5.5717701983
 21
2.9749951673
 31
0.0
  0
LINE
  5
F2
330
1F
100
AcDbEntity
  8
0
  6
Continuous
 62
   179
370
     0
100
AcDbLine
 10
81.5595332279
 20
239.4594175739
 30
0.0
 11
143.5595332279
 21
239.4594175739
 31
0.0
  0
LINE
  5
F3
330
1F
100
AcDbEntity
  8
0
  6
Continuous
 62
   179
370
     0
100
AcDbLine
 10
99.5595332279
 20
229.4594175739
 30
0.0
 11
99.5595332279
 21
207.4594175739
 31
0.0
  0
LINE
  5
F4
330
1F
100
AcDbEntity
  8
0
  6
Continuous
 62
   179
370
     0
100
AcDbLine
 10
108.8880146582
 20
135.2283002063
 30
0.0
 11
105.8109792097
 21
138.5321922402
 31
0.0
  0
LINE
  5
F5
330
1F
100
AcDbEntity
  8
0
  6
Continuous
 62
   179
370
     0
100
AcDbLine
 10
19.9252823572
 20
128.3686877742
 30
0.0
 11
19.9252823572
 21
125.3686877742
 31
0.0
  0
LINE
  5
F6
330
1F
100
AcDbEntity
  8
0
  6
Continuous
 62
   179
370
     0
100
AcDbLine
 10
16.5909203824
 20
68.790429781
 30
0.0
 11
26.5909203824
 21
68.790429781
 31
0.0
  0
LINE
  5
F7
330
1F
100
AcDbEntity
  8
0
  6
Continuous
 62
   179
370
     0
100
AcDbLine
 10
16.5909203824
 20
68.790429781
 30
0.0
 11
16.5909203824
 21
65.790429781
 31
0.0
  0
LINE
  5
F8
330
1F
100
AcDbEntity
  8
0
  6
Continuous
 62
   179
370
     0
100
AcDbLine
 10
7.5909203824
 20
68.390429781
 30
0.0
 11
10.5909203824
 21
68.390429781
 31
0.0
  0
LINE
  5
F9
330
1F
100
AcDbEntity
  8
0
  6
Continuous
 62
   179
370
     0
100
AcDbLine
 10
84.4716770356
 20
68.390429781
 30
0.0
 11
84.4716770356
 21
60.390429781
 31
0.0
  0
LINE
  5
FA
330
1F
100
AcDbEntity
  8
0
  6
Continuous
 62
   179
370
     0
100
AcDbLine
 10
16.5717701983
 20
53.4035291556
 30
0.0
 11
26.5717701983
 21
53.4035291556
 31
0.0
  0
LINE
  5
FB
330
1F
100
AcDbEntity
  8
0
  6
Continuous
 62
   179
370
     0
100
AcDbLine
 10
66.5717701983
 20
50.4035291556
 30
0.0
 11
77.6100705665
 21
50.4035291556
 31
0.0
  0
LINE
  5
FC
330
1F
100
AcDbEntity
  8
0
  6
Continuous
 62
   179
370
     0
100
AcDbLine
 10
98.969536756
 20
101.0357263694
 30
0.0
 11
101.969536756
 21
101.0357263694
 31
0.0
  0
LINE
  5
FD
330
1F
100
AcDbEntity
  8
0
  6
Continuous
 62
   179
370
     0
100
AcDbLine
 10
75.5298663129
 20
94.7904771194
 30
0.0
 11
75.5298663129
 21
84.7904771194
 31
0.0
  0
LINE
  5
FE
330
1F
100
AcDbEntity
  8
0
  6
Continuous
 62
   179
370
     0
100
AcDbLine
 10
56.5717701983
 20
25.9749951673
 30
0.0
 11
56.5717701983
 21
22.9749951673
 31
0.0
  0
LINE
  5
FF
330
1F
100
AcDbEntity
  8
0
  6
Continuous
 62
   179
370
     0
100
AcDbLine
 10
83.5909203824
 20
7.990053402
 30
0.0
 11
83.5909203824
 21
2.990053402
 31
0.0
  0
LINE
  5
100
330
1F
100
AcDbEntity
  8
0
  6
Continuous
 62
   179
370
     0
100
AcDbLine
 10
56.5717701983
 20
25.9749951673
 30
0.0
 11
66.5717701983
 21
25.9749951673
 31
0.0
  0
LINE
  5
101
330
1F
100
AcDbEntity
  8
0
  6
Continuous
 62
   179
370
     0
100
AcDbLine
 10
81.5595332279
 20
239.4594175739
 30
0.0
 11
81.5595332279
 21
229.4594175739
 31
0.0
  0
LINE
  5
102
330
1F
100
AcDbEntity
  8
0
  6
Continuous
 62
   179
370
     0
100
AcDbLine
 10
125.5595332279
 20
229.4594175739
 30
0.0
 11
125.5595332279
 21
207.4594175739
 31
0.0
  0
LINE
  5
103
330
1F
100
AcDbEntity
  8
0
  6
Continuous
 62
   179
370
     0
100
AcDbLine
 10
89.2666310317
 20
170.2235967946
 30
0.0
 11
89.2666310317
 21
180.2235967946
 31
0.0
  0
LINE
  5
104
330
1F
100
AcDbEntity
  8
0
  6
Continuous
 62
   179
370
     0
100
AcDbLine
 10
29.9252823572
 20
128.3686877742
 30
0.0
 11
29.9252823572
 21
125.3686877742
 31
0.0
  0
LINE
  5
105
330
1F
100
AcDbEntity
  8
0
  6
Continuous
 62
   179
370
     0
100
AcDbLine
 10
68.5909203824
 20
206.790429781
 30
0.0
 11
68.5909203824
 21
120.790429781
 31
0.0
  0
LINE
  5
106
330
1F
100
AcDbEntity
  8
0
  6
Continuous
 62
   179
370
     0
100
AcDbLine
 10
26.5909203824
 20
68.790429781
 30
0.0
 11
26.5909203824
 21
65.790429781
 31
0.0
  0
LINE
  5
107
330
1F
100
AcDbEntity
  8
0
  6
Continuous
 62
   179
370
     0
100
AcDbLine
 10
7.5909203824
 20
60.390429781
 30
0.0
 11
10.5909203824
 21
60.390429781
 31
0.0
  0
LINE
  5
108
330
1F
100
AcDbEntity
  8
0
  6
Continuous
 62
   179
370
     0
100
AcDbLine
 10
118.0243779145
 20
119.190429781
 30
0.0
 11
125.0112785399
 21
126.1773304065
 31
0.0
  0
LINE
  5
109
330
1F
100
AcDbEntity
  8
0
  6
Continuous
 62
   179
370
     0
100
AcDbLine
 10
16.5717701983
 20
50.4035291556
 30
0.0
 11
5.5717701983
 21
50.4035291556
 31
0.0
  0
LINE
  5
10A
330
1F
100
AcDbEntity
  8
0
  6
Continuous
 62
   179
370
     0
100
AcDbLine
 10
46.6100705665
 20
50.4035291556
 30
0.0
 11
56.5717701983
 21
50.4035291556
 31
0.0
  0
LINE
  5
10B
330
1F
100
AcDbEntity
  8
0
  6
Continuous
 62
   179
370
     0
100
AcDbLine
 10
83.5909203824
 20
30.4185873903
 30
0.0
 11
120.5909203824
 21
30.4185873903
 31
0.0
  0
LINE
  5
10C
330
1F
100
AcDbEntity
  8
0
  6
Continuous
 62
   179
370
     0
100
AcDbLine
 10
7.5909203824
 20
94.7904771194
 30
0.0
 11
7.5909203824
 21
84.7904771194
 31
0.0
  0
LINE
  5
10D
330
1F
100
AcDbEntity
  8
0
  6
Continuous
 62
   179
370
     0
100
AcDbLine
 10
77.6100705665
 20
2.9749951673
 30
0.0
 11
5.5717701983
 21
2.9749951673
 31
0.0
  0
LINE
  5
10E
330
1F
100
AcDbEntity
  8
0
  6
Continuous
 62
   179
370
     0
100
AcDbLine
 10
56.5909203824
 20
5.4360472282
 30
0.0
 11
41.5909203824
 21
5.4360472282
 31
0.0
  0
LINE
  5
10F
330
1F
100
AcDbEntity
  8
0
  6
Continuous
 62
   179
370
     0
100
AcDbLine
 10
81.5595332279
 20
207.4594175739
 30
0.0
 11
84.5595332279
 21
207.4594175739
 31
0.0
  0
LINE
  5
110
330
1F
100
AcDbEntity
  8
0
  6
Continuous
 62
   179
370
     0
100
AcDbLine
 10
116.7742196416
 20
182.7283002063
 30
0.0
 11
108.8880146582
 21
182.7283002063
 31
0.0
  0
LINE
  5
111
330
1F
100
AcDbEntity
  8
0
  6
Continuous
 62
   179
370
     0
100
AcDbLine
 10
86.2666310317
 20
137.7330036179
 30
0.0
 11
89.2666310317
 21
137.7330036179
 31
0.0
  0
LINE
  5
112
330
1F
100
AcDbEntity
  8
0
  6
Continuous
 62
   179
370
     0
100
AcDbLine
 10
63.9252823572
 20
125.3686877742
 30
0.0
 11
53.9252823572
 21
125.3686877742
 31
0.0
  0
LINE
  5
113
330
1F
100
AcDbEntity
  8
0
  6
Continuous
 62
   179
370
     0
100
AcDbLine
 10
16.5909203824
 20
108.790429781
 30
0.0
 11
16.5909203824
 21
105.790429781
 31
0.0
  0
LINE
  5
114
330
1F
100
AcDbEntity
  8
0
  6
Continuous
 62
   179
370
     0
100
AcDbLine
 10
56.5909203824
 20
65.790429781
 30
0.0
 11
56.5909203824
 21
68.790429781
 31
0.0
  0
LINE
  5
115
330
1F
100
AcDbEntity
  8
0
  6
Continuous
 62
   179
370
     0
100
AcDbLine
 10
75.5909203824
 20
60.390429781
 30
0.0
 11
75.5909203824
 21
68.390429781
 31
0.0
  0
LINE
  5
116
330
1F
100
AcDbEntity
  8
0
  6
Continuous
 62
   179
370
     0
100
AcDbLine
 10
101.969536756
 20
78.5451331927
 30
0.0
 11
101.969536756
 21
68.5451331927
 31
0.0
  0
LINE
  5
117
330
1F
100
AcDbEntity
  8
0
  6
Continuous
 62
   179
370
     0
100
AcDbLine
 10
36.5717701983
 20
53.4035291556
 30
0.0
 11
46.6100705665
 21
53.4035291556
 31
0.0
  0
LINE
  5
118
330
1F
100
AcDbEntity
  8
0
  6
Continuous
 62
   179
370
     0
100
AcDbLine
 10
77.6100705665
 20
30.4035291556
 30
0.0
 11
5.5717701983
 21
30.4035291556
 31
0.0
  0
LINE
  5
119
330
1F
100
AcDbEntity
  8
0
  6
Continuous
 62
   179
370
     0
100
AcDbLine
 10
123.5909203824
 20
35.4185873903
 30
0.0
 11
120.5909203824
 21
35.4185873903
 31
0.0
  0
LINE
  5
11A
330
1F
100
AcDbEntity
  8
0
  6
Continuous
 62
   179
370
     0
100
AcDbLine
 10
10.5909203824
 20
89.790429781
 30
0.0
 11
10.5909203824
 21
94.7904771194
 31
0.0
  0
LINE
  5
11B
330
1F
100
AcDbEntity
  8
0
  6
Continuous
 62
   179
370
     0
100
AcDbLine
 10
26.5717701983
 20
22.9749951673
 30
0.0
 11
36.5717701983
 21
22.9749951673
 31
0.0
  0
LINE
  5
11C
330
1F
100
AcDbEntity
  8
0
  6
Continuous
 62
   179
370
     0
100
AcDbLine
 10
26.5909203824
 20
7.4360472282
 30
0.0
 11
56.5909203824
 21
7.4360472282
 31
0.0
  0
LINE
  5
11D
330
1F
100
AcDbEntity
  8
0
  6
Continuous
 62
   179
370
     0
100
AcDbLine
 10
140.5595332279
 20
229.4594175739
 30
0.0
 11
140.5595332279
 21
207.4594175739
 31
0.0
  0
LINE
  5
11E
330
1F
100
AcDbEntity
  8
0
  6
Continuous
 62
   179
370
     0
100
AcDbLine
 10
71.7687713114
 20
188.3783002063
 30
0.0
 11
71.7687713114
 21
180.3783002063
 31
0.0
  0
LINE
  5
11F
330
1F
100
AcDbEntity
  8
0
  6
Continuous
 62
   179
370
     0
100
AcDbLine
 10
105.3214721903
 20
188.3783002063
 30
0.0
 11
112.3083728157
 21
195.3652008317
 31
0.0
  0
LINE
  5
120
330
1F
100
AcDbEntity
  8
0
  6
Continuous
 62
   179
370
     0
100
AcDbLine
 10
63.9252823572
 20
128.3686877742
 30
0.0
 11
53.9252823572
 21
128.3686877742
 31
0.0
  0
LINE
  5
121
330
1F
100
AcDbEntity
  8
0
  6
Continuous
 62
   179
370
     0
100
AcDbLine
 10
14.5909203824
 20
206.790429781
 30
0.0
 11
2.5909203824
 21
206.790429781
 31
0.0
  0
LINE
  5
122
330
1F
100
AcDbEntity
  8
0
  6
Continuous
 62
   179
370
     0
100
AcDbLine
 10
66.5909203824
 20
65.790429781
 30
0.0
 11
66.5909203824
 21
68.790429781
 31
0.0
  0
LINE
  5
123
330
1F
100
AcDbEntity
  8
0
  6
Continuous
 62
   179
370
     0
100
AcDbLine
 10
72.5909203824
 20
60.390429781
 30
0.0
 11
72.5909203824
 21
68.390429781
 31
0.0
  0
LINE
  5
124
330
1F
100
AcDbEntity
  8
0
  6
Continuous
 62
   179
370
     0
100
AcDbLine
 10
130.9716770356
 20
69.040429781
 30
0.0
 11
130.9716770356
 21
110.540429781
 31
0.0
  0
LINE
  5
125
330
1F
100
AcDbEntity
  8
0
  6
Continuous
 62
   179
370
     0
100
AcDbLine
 10
5.5717701983
 20
50.4035291556
 30
0.0
 11
5.5717701983
 21
30.4035291556
 31
0.0
  0
LINE
  5
126
330
1F
100
AcDbEntity
  8
0
  6
Continuous
 62
   179
370
     0
100
AcDbLine
 10
7.5909203824
 20
45.4185808154
 30
0.0
 11
10.5909203824
 21
45.4185808154
 31
0.0
  0
LINE
  5
127
330
1F
100
AcDbEntity
  8
0
  6
Continuous
 62
   179
370
     0
100
AcDbLine
 10
123.5909203824
 20
45.4185873903
 30
0.0
 11
120.5909203824
 21
45.4185873903
 31
0.0
  0
LINE
  5
128
330
1F
100
AcDbEntity
  8
0
  6
Continuous
 62
   179
370
     0
100
AcDbLine
 10
7.5909203824
 20
84.7904771194
 30
0.0
 11
10.5909203824
 21
84.7904771194
 31
0.0
  0
LINE
  5
129
330
1F
100
AcDbEntity
  8
0
  6
Continuous
 62
   179
370
     0
100
AcDbLine
 10
83.5909203824
 20
2.990053402
 30
0.0
 11
120.5909203824
 21
2.990053402
 31
0.0
  0
LINE
  5
12A
330
1F
100
AcDbEntity
  8
0
  6
Continuous
 62
   179
370
     0
100
AcDbLine
 10
107.0909203824
 20
25.990053402
 30
0.0
 11
107.0909203824
 21
22.990053402
 31
0.0
  0
LINE
  5
12B
330
1F
100
AcDbEntity
  8
0
  6
Continuous
 62
   179
370
     0
100
AcDbLine
 10
41.5909203824
 20
5.4360472282
 30
0.0
 11
26.5909203824
 21
5.4360472282
 31
0.0
  0
LINE
  5
12C
330
1F
100
AcDbEntity
  8
0
  6
Continuous
 62
   179
370
     0
100
AcDbLine
 10
143.5595332279
 20
197.4594175739
 30
0.0
 11
143.5595332279
 21
207.4594175739
 31
0.0
  0
LINE
  5
12D
330
1F
100
AcDbEntity
  8
0
  6
Continuous
 62
   179
370
     0
100
AcDbLine
 10
71.7687713114
 20
188.3783002063
 30
0.0
 11
74.7687713114
 21
188.3783002063
 31
0.0
  0
LINE
  5
12E
330
1F
100
AcDbEntity
  8
0
  6
Continuous
 62
   179
370
     0
100
AcDbLine
 10
118.2687713114
 20
179.7283002062
 30
0.0
 11
116.7742196416
 21
179.7283002062
 31
0.0
  0
LINE
  5
12F
330
1F
100
AcDbEntity
  8
0
  6
Continuous
 62
   179
370
     0
100
AcDbLine
 10
65.2783878466
 20
205.2132281668
 30
0.0
 11
62.2783878466
 21
205.2132281668
 31
0.0
  0
LINE
  5
130
330
1F
100
AcDbEntity
  8
0
  6
Continuous
 62
   179
370
     0
100
AcDbLine
 10
80.5909203824
 20
206.790429781
 30
0.0
 11
68.5909203824
 21
206.790429781
 31
0.0
  0
LINE
  5
131
330
1F
100
AcDbEntity
  8
0
  6
Continuous
 62
   179
370
     0
100
AcDbLine
 10
36.5909203824
 20
68.790429781
 30
0.0
 11
36.5909203824
 21
65.790429781
 31
0.0
  0
LINE
  5
132
330
1F
100
AcDbEntity
  8
0
  6
Continuous
 62
   179
370
     0
100
AcDbLine
 10
68.5909203824
 20
120.790429781
 30
0.0
 11
80.5909203824
 21
120.790429781
 31
0.0
  0
LINE
  5
133
330
1F
100
AcDbEntity
  8
0
  6
Continuous
 62
   179
370
     0
100
AcDbLine
 10
75.5909203824
 20
111.190429781
 30
0.0
 11
72.5909203824
 21
111.190429781
 31
0.0
  0
LINE
  5
134
330
1F
100
AcDbEntity
  8
0
  6
Continuous
 62
   179
370
     0
100
AcDbLine
 10
129.4771253659
 20
110.540429781
 30
0.0
 11
129.4771253659
 21
113.540429781
 31
0.0
  0
LINE
  5
135
330
1F
100
AcDbEntity
  8
0
  6
Continuous
 62
   179
370
     0
100
AcDbLine
 10
56.5717701983
 20
53.4035291556
 30
0.0
 11
66.5717701983
 21
53.4035291556
 31
0.0
  0
LINE
  5
136
330
1F
100
AcDbEntity
  8
0
  6
Continuous
 62
   179
370
     0
100
AcDbLine
 10
7.5909203824
 20
35.4185808154
 30
0.0
 11
10.5909203824
 21
35.4185808154
 31
0.0
  0
LINE
  5
137
330
1F
100
AcDbEntity
  8
0
  6
Continuous
 62
   179
370
     0
100
AcDbLine
 10
83.5909203824
 20
50.4185873903
 30
0.0
 11
97.0909203824
 21
50.4185873903
 31
0.0
  0
LINE
  5
138
330
1F
100
AcDbEntity
  8
0
  6
Continuous
 62
   179
370
     0
100
AcDbLine
 10
41.5909203824
 20
32.8645812165
 30
0.0
 11
26.5909203824
 21
32.8645812165
 31
0.0
  0
LINE
  5
139
330
1F
100
AcDbEntity
  8
0
  6
Continuous
 62
   179
370
     0
100
AcDbLine
 10
46.6100705665
 20
25.9749951673
 30
0.0
 11
46.6100705665
 21
22.9749951673
 31
0.0
  0
LINE
  5
13A
330
1F
100
AcDbEntity
  8
0
  6
Continuous
 62
   179
370
     0
100
AcDbLine
 10
107.0909203824
 20
25.990053402
 30
0.0
 11
97.0909203824
 21
25.990053402
 31
0.0
  0
LINE
  5
13B
330
1F
100
AcDbEntity
  8
0
  6
Continuous
 62
   179
370
     0
100
AcDbLine
 10
72.5909203824
 20
17.9900468271
 30
0.0
 11
72.5909203824
 21
7.9900468271
 31
0.0
  0
LINE
  5
13C
330
1F
100
AcDbEntity
  8
0
  6
Continuous
 62
   179
370
     0
100
AcDbLine
 10
74.7687713114
 20
180.3783002063
 30
0.0
 11
74.7687713114
 21
137.5783002063
 31
0.0
  0
LINE
  5
13D
330
1F
100
AcDbEntity
  8
0
  6
Continuous
 62
   179
370
     0
100
AcDbLine
 10
71.7687713114
 20
137.5783002063
 30
0.0
 11
71.7687713114
 21
129.5783002063
 31
0.0
  0
LINE
  5
13E
330
1F
100
AcDbEntity
  8
0
  6
Continuous
 62
   179
370
     0
100
AcDbLine
 10
17.8423988488
 20
212.2132281668
 30
0.0
 11
17.8423988488
 21
205.2132281668
 31
0.0
  0
CIRCLE
  5
13F
330
1F
100
AcDbEntity
  8
0
  6
Continuous
 62
   179
370
     0
100
AcDbCircle
 10
66.5909203824
 20
157.790429781
 30
0.0
 40
1.000000000000011
  0
CIRCLE
  5
140
330
1F
100
AcDbEntity
  8
0
  6
Continuous
 62
   179
370
     0
100
AcDbCircle
 10
66.5909203824
 20
169.790429781
 30
0.0
 40
1.000000000000011
  0
CIRCLE
  5
141
330
1F
100
AcDbEntity
  8
0
  6
Continuous
 62
   179
370
     0
100
AcDbCircle
 10
16.5909203824
 20
166.790429781
 30
0.0
 40
1.000000000000001
  0
CIRCLE
  5
142
330
1F
100
AcDbEntity
  8
0
  6
Continuous
 62
   179
370
     0
100
AcDbCircle
 10
66.5909203824
 20
163.790429781
 30
0.0
 40
0.9999999999999976
  0
ARC
  5
143
330
1F
100
AcDbEntity
  8
0
  6
Continuous
 62
   179
370
     0
100
AcDbCircle
 10
110.8674893366
 20
179.9947692418
 30
0.0
 40
15.43782084554545
100
AcDbArc
 50
356.0571714847
 51
84.6445240877
  0
CIRCLE
  5
144
330
1F
100
AcDbEntity
  8
0
  6
Continuous
 62
   179
370
     0
100
AcDbCircle
 10
76.5109203824
 20
211.3027680453
 30
0.0
 40
0.9999999999999976
  0
ARC
  5
145
330
1F
100
AcDbEntity
  8
0
  6
Continuous
 62
   179
370
     0
100
AcDbCircle
 10
127.7644907521
 20
158.9783002063
 30
0.0
 40
30.00000000000004
100
AcDbArc
 50
137.0361385989
 51
222.9638614011
  0
CIRCLE
  5
146
330
1F
100
AcDbEntity
  8
0
  6
Continuous
 62
   179
370
     0
100
AcDbCircle
 10
22.2752823572
 20
135.1836467609
 30
0.0
 40
1.000000000000001
  0
ARC
  5
147
330
1F
100
AcDbEntity
  8
0
  6
Continuous
 62
   179
370
     0
100
AcDbCircle
 10
123.5703950609
 20
110.8068988166
 30
0.0
 40
15.43782084554545
100
AcDbArc
 50
356.0571714847
 51
84.6445240877
  0
CIRCLE
  5
148
330
1F
100
AcDbEntity
  8
0
  6
Continuous
 62
   179
370
     0
100
AcDbCircle
 10
16.5909203824
 20
160.790429781
 30
0.0
 40
1.000000000000001
  0
CIRCLE
  5
149
330
1F
100
AcDbEntity
  8
0
  6
Continuous
 62
   179
370
     0
100
AcDbCircle
 10
16.5909203824
 20
157.790429781
 30
0.0
 40
1.000000000000001
  0
CIRCLE
  5
14A
330
1F
100
AcDbEntity
  8
0
  6
Continuous
 62
   179
370
     0
100
AcDbCircle
 10
16.5909203824
 20
169.790429781
 30
0.0
 40
1.000000000000001
  0
CIRCLE
  5
14B
330
1F
100
AcDbEntity
  8
0
  6
Continuous
 62
   179
370
     0
100
AcDbCircle
 10
66.5909203824
 20
166.790429781
 30
0.0
 40
1.000000000000011
  0
CIRCLE
  5
14C
330
1F
100
AcDbEntity
  8
0
  6
Continuous
 62
   179
370
     0
100
AcDbCircle
 10
16.5909203824
 20
163.790429781
 30
0.0
 40
0.9999999999999976
  0
CIRCLE
  5
14D
330
1F
100
AcDbEntity
  8
0
  6
Continuous
 62
   179
370
     0
100
AcDbCircle
 10
23.7587035381
 20
120.437038271
 30
0.0
 40
4.000000000000049
  0
CIRCLE
  5
14E
330
1F
100
AcDbEntity
  8
0
  6
Continuous
 62
   179
370
     0
100
AcDbCircle
 10
6.6709203824
 20
211.3027680453
 30
0.0
 40
0.9999999999999984
  0
ARC
  5
14F
330
1F
100
AcDbEntity
  8
0
  6
Continuous
 62
   179
370
     0
100
AcDbCircle
 10
110.8674893366
 20
137.9618311707
 30
0.0
 40
15.43782084554544
100
AcDbArc
 50
275.3554759123
 51
3.9428285153
  0
CIRCLE
  5
150
330
1F
100
AcDbEntity
  8
0
  6
Continuous
 62
   179
370
     0
100
AcDbCircle
 10
65.7752823572
 20
186.0336467609
 30
0.0
 40
0.9999999999999976
  0
ARC
  5
151
330
1F
100
AcDbEntity
  8
0
  6
Continuous
 62
   179
370
     0
100
AcDbCircle
 10
123.5703950609
 20
68.7739607455
 30
0.0
 40
15.43782084554539
100
AcDbArc
 50
275.3554759123
 51
3.9428285153
  0
ARC
  5
152
330
1F
100
AcDbEntity
  8
0
  6
Continuous
 62
   179
370
     0
100
AcDbCircle
 10
140.4673964763
 20
89.790429781
 30
0.0
 40
30.00000000000012
100
AcDbArc
 50
137.0361385989
 51
222.9638614011
  0
CIRCLE
  5
153
330
1F
100
AcDbEntity
  8
0
  6
Continuous
 62
   179
370
     0
100
AcDbCircle
 10
66.5909203824
 20
160.790429781
 30
0.0
 40
1.000000000000011
  0
MTEXT
  5
155
330
1F
100
AcDbEntity
  8
0
  6
Continuous
 62
     7
100
AcDbMText
 10
0.0
 20
41.6694529712
 30
0.0
 40
14.94028
 41
0.0
 71
     1
 72
     1
  1
  
  7
SLDTEXTSTYLE0
 73
     1
 44
1.0
  0
MTEXT
  5
156
330
1F
100
AcDbEntity
  8
0
  6
Continuous
 62
     7
100
AcDbMText
 10
0.0
 20
19.2590329712
 30
0.0
 40
14.94028
 41
0.0
 71
     1
 72
     1
  1

  7
SLDTEXTSTYLE0
 73
     1
 44
1.0
  0
ENDSEC
  0
SECTION
  2
OBJECTS
  0
DICTIONARY
  5
C
330
0
100
AcDbDictionary
281
     1
  3
ACAD_GROUP
350
D
  3
ACAD_LAYOUT
350
1A
  3
ACAD_MLINESTYLE
350
17
  3
ACAD_PLOTSETTINGS
350
19
  3
ACAD_PLOTSTYLENAME
350
E
  0
DICTIONARY
  5
D
102
{ACAD_REACTORS
330
C
102
}
330
C
100
AcDbDictionary
281
     1
  0
DICTIONARY
  5
1A
102
{ACAD_REACTORS
330
C
102
}
330
C
100
AcDbDictionary
281
     1
  3
Layout1
350
1E
  3
Layout2
350
26
  3
Model
350
22
  0
DICTIONARY
  5
17
102
{ACAD_REACTORS
330
C
102
}
330
C
100
AcDbDictionary
281
     1
  3
Standard
350
18
  0
DICTIONARY
  5
19
102
{ACAD_REACTORS
330
C
102
}
330
C
100
AcDbDictionary
281
     1
  0
ACDBDICTIONARYWDFLT
  5
E
102
{ACAD_REACTORS
330
C
102
}
330
C
100
AcDbDictionary
281
     1
  3
Normal
350
F
100
AcDbDictionaryWithDefault
340
F
  0
LAYOUT
  5
1E
102
{ACAD_REACTORS
330
1A
102
}
330
1A
100
AcDbPlotSettings
  1

  2
none_device
  4

  6

 40
0.0
 41
0.0
 42
0.0
 43
0.0
 44
0.0
 45
0.0
 46
0.0
 47
0.0
 48
0.0
 49
0.0
140
0.0
141
0.0
142
1.0
143
1.0
 70
   688
 72
     0
 73
     0
 74
     5
  7

 75
    16
147
1.0
148
0.0
149
0.0
100
AcDbLayout
  1
Layout1
 70
     1
 71
     1
 10
0.0
 20
0.0
 11
420.0
 21
297.0
 12
0.0
 22
0.0
 32
0.0
 14
1.0000000000E+20
 24
1.0000000000E+20
 34
1.0000000000E+20
 15
-1.0000000000E+20
 25
-1.0000000000E+20
 35
-1.0000000000E+20
146
0.0
 13
0.0
 23
0.0
 33
0.0
 16
1.0
 26
0.0
 36
0.0
 17
0.0
 27
1.0
 37
0.0
 76
     0
330
1B
  0
LAYOUT
  5
26
102
{ACAD_REACTORS
330
1A
102
}
330
1A
100
AcDbPlotSettings
  1

  2
none_device
  4

  6

 40
0.0
 41
0.0
 42
0.0
 43
0.0
 44
0.0
 45
0.0
 46
0.0
 47
0.0
 48
0.0
 49
0.0
140
0.0
141
0.0
142
1.0
143
1.0
 70
   688
 72
     0
 73
     0
 74
     5
  7

 75
    16
147
1.0
148
0.0
149
0.0
100
AcDbLayout
  1
Layout2
 70
     1
 71
     2
 10
0.0
 20
0.0
 11
0.0
 21
0.0
 12
0.0
 22
0.0
 32
0.0
 14
0.0
 24
0.0
 34
0.0
 15
0.0
 25
0.0
 35
0.0
146
0.0
 13
0.0
 23
0.0
 33
0.0
 16
1.0
 26
0.0
 36
0.0
 17
0.0
 27
1.0
 37
0.0
 76
     0
330
23
  0
LAYOUT
  5
22
102
{ACAD_REACTORS
330
1A
102
}
330
1A
100
AcDbPlotSettings
  1

  2
none_device
  4

  6

 40
0.0
 41
0.0
 42
0.0
 43
0.0
 44
0.0
 45
0.0
 46
0.0
 47
0.0
 48
0.0
 49
0.0
140
0.0
141
0.0
142
1.0
143
1.0
 70
  1712
 72
     0
 73
     0
 74
     0
  7

 75
     0
147
1.0
148
0.0
149
0.0
100
AcDbLayout
  1
Model
 70
     1
 71
     0
 10
0.0
 20
0.0
 11
1117.6
 21
863.6
 12
0.0
 22
0.0
 32
0.0
 14
0.0
 24
0.0
 34
0.0
 15
1117.6
 25
863.6
 35
0.0
146
0.0
 13
0.0
 23
0.0
 33
0.0
 16
1.0
 26
0.0
 36
0.0
 17
0.0
 27
1.0
 37
0.0
 76
     0
330
1F
331
29
  0
MLINESTYLE
  5
18
102
{ACAD_REACTORS
330
17
102
}
330
17
100
AcDbMlineStyle
  2
Standard
 70
     0
  3

 62
   256
 51
90.0
 52
90.0
 71
     2
 49
0.5
 62
   256
  6
BYLAYER
 49
-0.5
 62
   256
  6
BYLAYER
  0
ACDBPLACEHOLDER
  5
F
102
{ACAD_REACTORS
330
E
102
}
330
E
  0
ENDSEC
  0
EOF
